{"glyphs":{"0":{"ha":630,"x_min":6,"x_max":625,"o":"m 88 67 q 67 101 81 74 q 40 167 53 127 q 16 256 27 207 q 6 360 6 306 q 10 421 6 390 q 23 483 14 453 q 118 626 63 565 q 229 726 174 686 q 330 784 284 765 q 399 803 377 803 q 435 804 414 809 q 465 788 456 799 q 512 741 487 770 q 558 679 536 712 q 597 612 580 646 q 619 550 613 579 q 622 500 625 534 q 605 422 618 466 q 568 328 591 378 q 512 227 545 278 q 435 130 479 177 q 336 47 390 83 q 273 15 304 28 q 204 2 242 2 q 138 20 170 2 q 88 67 105 37 m 316 425 q 289 415 302 428 q 266 379 275 402 q 251 330 257 356 q 245 280 245 303 q 258 234 245 247 q 274 244 265 234 q 291 267 284 253 q 305 293 299 280 q 314 314 311 307 q 319 338 315 321 q 325 374 323 355 q 326 407 328 392 q 316 425 324 422 z "},"1":{"ha":523,"x_min":2,"x_max":520,"o":"m 146 441 q 119 424 128 431 q 102 413 109 418 q 90 406 95 409 q 81 402 86 404 q 58 403 65 394 q 50 425 51 412 q 32 492 44 446 q 8 612 21 539 q 25 648 2 639 l 253 799 q 285 802 265 810 l 500 712 q 515 703 510 709 q 515 681 520 697 l 418 69 q 409 32 416 38 q 395 24 403 25 q 284 13 322 17 q 230 6 247 8 q 213 2 214 3 q 211 1 212 1 q 194 8 199 1 q 186 31 189 14 q 175 135 178 84 q 168 237 171 186 q 161 339 166 288 q 146 441 156 389 z "},"2":{"ha":565,"x_min":5,"x_max":558,"o":"m 119 7 q 101 11 106 7 q 91 28 95 15 q 86 71 88 45 q 82 123 83 96 q 79 176 80 150 q 79 219 79 201 q 79 230 79 223 q 94 242 79 237 q 163 281 119 253 q 248 344 206 308 q 319 420 289 380 q 350 500 350 461 q 341 531 350 515 q 319 545 333 546 q 289 526 300 544 q 270 454 278 508 q 260 436 267 439 q 248 434 252 434 q 233 436 240 434 q 205 444 226 438 q 142 461 184 450 q 23 491 101 472 q 6 501 8 493 q 10 522 5 509 q 44 638 24 586 q 96 729 64 691 q 177 787 128 766 q 296 808 225 808 q 398 791 351 808 q 481 744 446 774 q 538 670 517 713 q 558 574 558 626 q 541 481 558 525 q 497 396 523 436 q 438 318 470 355 q 374 249 405 281 q 400 251 381 250 q 440 254 419 252 q 480 258 461 256 q 506 260 499 259 q 514 262 506 260 q 533 262 523 263 q 550 257 543 262 q 556 242 558 252 q 550 189 556 221 q 539 126 545 157 q 527 67 532 94 q 519 31 521 41 q 504 9 516 14 q 484 3 492 3 q 352 5 406 5 q 261 6 297 6 q 201 6 225 6 q 164 6 178 6 q 139 7 149 7 q 119 7 130 7 z "},"3":{"ha":481,"x_min":5,"x_max":475,"o":"m 59 6 q 38 15 50 6 q 25 36 25 24 q 24 60 24 45 q 23 93 23 74 q 24 153 23 120 q 28 216 25 186 q 34 271 30 247 q 42 304 37 295 q 54 314 44 315 q 71 301 65 314 q 93 273 80 287 q 122 248 106 259 q 152 230 137 237 q 183 222 168 222 q 204 222 192 219 q 225 234 215 226 q 240 252 234 242 q 244 273 245 263 q 232 318 244 299 q 205 352 220 338 q 175 376 190 367 q 155 387 160 384 q 175 396 159 390 q 209 413 191 403 q 242 439 228 424 q 257 476 257 455 q 239 516 257 499 q 198 532 221 532 q 167 527 184 532 q 132 512 149 521 q 99 494 115 503 q 73 475 83 484 q 54 466 64 466 q 42 479 45 466 q 29 542 35 507 q 19 611 23 578 q 12 674 15 645 q 7 716 8 703 q 9 740 5 734 q 21 751 13 747 q 108 790 57 774 q 203 806 160 806 q 296 790 249 806 q 381 745 343 774 q 443 674 419 716 q 468 578 468 631 q 433 468 468 519 q 351 383 399 417 q 386 366 365 377 q 427 334 407 354 q 461 288 447 315 q 475 227 475 262 q 443 122 473 164 q 366 52 413 79 q 259 12 318 24 q 142 0 200 0 q 100 2 120 0 q 59 6 79 3 z "},"4":{"ha":725,"x_min":3,"x_max":719,"o":"m 352 235 l 120 214 q 105 217 111 214 q 94 240 100 220 q 72 301 86 259 q 46 398 59 343 q 21 518 32 453 q 8 650 10 583 q 11 696 3 683 q 36 716 19 708 q 98 740 63 729 q 167 758 133 750 q 226 770 200 765 q 260 775 252 774 q 275 775 266 778 q 286 758 284 773 q 285 722 286 749 q 284 659 285 694 q 282 583 282 623 q 281 508 281 543 q 282 456 281 478 q 285 426 282 434 l 345 443 q 344 603 345 523 q 337 765 343 683 q 342 779 339 771 q 358 787 345 787 l 641 804 q 656 802 649 804 q 663 784 663 800 l 638 524 l 698 539 q 712 535 706 539 q 719 521 719 530 q 718 511 719 517 q 714 481 716 505 q 707 410 712 457 q 693 278 701 362 q 678 252 694 252 q 657 251 670 250 q 634 247 644 251 q 630 210 632 236 q 624 155 627 184 q 619 98 622 125 q 617 58 617 71 q 611 43 617 47 q 596 37 605 38 l 409 1 q 386 -2 394 -5 q 375 6 378 1 q 371 17 372 12 q 369 25 370 23 l 352 235 z "},"5":{"ha":586,"x_min":3,"x_max":580,"o":"m 65 306 q 49 366 57 326 q 33 450 41 405 q 19 539 25 495 q 9 612 13 583 q 8 637 3 628 q 20 656 12 645 q 67 709 49 689 q 96 741 84 729 q 116 758 108 752 q 132 766 124 764 q 150 772 133 766 q 207 785 168 778 q 310 798 245 792 q 471 808 375 804 q 513 807 493 808 q 547 798 532 806 q 569 775 561 791 q 578 730 578 759 q 578 713 578 729 q 576 670 578 697 q 571 608 574 642 q 559 535 567 573 q 547 510 557 515 q 525 503 537 506 q 380 484 433 492 q 303 470 326 476 q 276 472 281 464 q 271 497 271 479 q 272 520 271 507 q 273 547 273 534 q 267 571 273 560 q 245 581 262 582 q 222 556 229 580 q 214 501 214 531 q 219 451 214 475 q 233 420 223 428 q 314 440 274 433 q 389 448 353 448 q 460 438 427 448 q 519 406 493 428 q 560 347 544 383 q 580 258 575 310 q 560 161 580 203 q 508 91 541 120 q 432 44 475 63 q 343 16 389 25 q 251 2 297 6 q 166 -2 205 -2 q 84 1 116 -2 q 66 9 72 2 q 60 35 60 16 q 58 108 59 69 q 54 190 57 146 q 60 216 54 205 q 86 227 66 228 q 111 222 94 226 q 152 215 128 219 q 201 209 175 212 q 255 206 228 206 q 334 219 300 206 q 373 267 368 231 q 352 303 374 294 q 297 313 330 313 q 241 308 271 313 q 184 298 211 303 q 137 288 157 293 q 108 284 116 284 q 79 285 87 279 q 65 306 72 292 z "},"6":{"ha":543,"x_min":6,"x_max":537,"o":"m 7 241 q 6 261 6 251 q 6 281 6 271 q 16 417 6 347 q 45 554 27 486 q 87 683 63 622 q 139 794 111 744 q 163 810 145 804 q 193 806 181 815 q 230 791 205 803 q 288 760 255 779 q 361 718 321 742 q 447 669 402 694 q 454 656 455 663 q 450 643 454 649 q 442 632 447 637 q 435 626 436 627 q 396 588 419 610 q 352 542 374 566 q 311 494 330 519 q 282 448 293 470 q 377 470 333 470 q 444 455 414 470 q 494 416 473 441 q 526 358 515 391 q 537 287 537 325 q 529 223 537 256 q 503 156 521 190 q 404 46 475 87 q 242 3 333 5 q 100 77 162 20 q 7 241 37 134 m 259 251 q 243 239 248 249 q 238 215 238 229 q 248 174 238 194 q 271 153 257 153 q 288 166 282 153 q 294 197 294 179 q 285 236 294 218 q 259 251 277 253 z "},"7":{"ha":662,"x_min":5,"x_max":657,"o":"m 148 8 q 128 16 135 10 q 131 43 122 21 l 322 499 q 263 487 297 497 q 193 466 228 478 q 130 442 159 454 q 88 426 101 431 q 71 425 78 421 q 60 435 64 428 q 54 447 56 441 q 53 455 53 454 q 42 500 47 472 q 31 560 36 528 q 21 626 25 593 q 14 689 17 660 q 9 738 12 718 q 7 766 7 759 q 17 796 5 787 q 43 804 30 804 l 131 804 q 367 801 257 804 q 568 791 478 797 q 576 790 571 791 q 589 787 582 789 q 601 779 596 785 q 608 763 606 773 q 626 721 616 744 q 643 675 635 698 q 654 633 650 652 q 653 603 657 613 q 619 506 642 569 q 567 364 595 442 q 511 200 539 286 q 463 35 483 115 q 451 9 461 19 q 422 3 442 -1 q 355 5 388 3 q 289 6 322 6 q 222 8 256 7 q 148 8 188 8 z "},"8":{"ha":575,"x_min":5,"x_max":569,"o":"m 59 167 q 65 218 59 192 q 82 266 71 243 q 111 308 94 289 q 149 341 127 328 q 111 356 128 350 q 73 375 93 362 q 50 399 60 381 q 31 440 39 418 q 16 484 22 462 q 8 521 10 507 q 8 561 5 541 q 30 612 12 582 q 174 762 86 703 q 375 829 263 821 q 447 821 412 831 q 508 789 481 810 q 551 735 535 767 q 567 662 567 703 q 556 593 567 627 q 528 527 545 558 q 488 470 510 495 q 442 429 465 444 l 442 428 q 505 407 480 421 q 543 373 529 392 q 564 332 558 354 q 569 287 569 309 q 566 247 569 266 q 557 212 563 227 q 515 140 547 177 q 436 72 483 103 q 334 21 390 41 q 223 1 279 1 q 153 14 184 1 q 102 49 123 27 q 70 102 81 72 q 59 167 59 132 m 307 581 q 276 566 289 581 q 256 533 263 551 q 251 499 249 515 q 270 484 253 484 q 299 499 286 484 q 318 532 311 514 q 322 565 324 550 q 307 581 321 581 m 330 243 q 299 228 313 243 q 279 195 286 213 q 274 161 272 177 q 293 146 277 146 q 322 161 309 146 q 341 194 334 176 q 345 227 347 212 q 330 243 344 243 z "},"9":{"ha":634,"x_min":6,"x_max":627,"o":"m 12 579 q 57 684 24 641 q 135 754 89 727 q 236 793 181 781 q 353 806 292 806 q 456 788 409 807 q 539 737 503 770 q 597 663 574 705 q 627 579 620 622 q 619 552 627 575 q 597 491 611 529 q 563 401 582 453 q 522 290 544 350 q 476 166 500 230 q 428 36 451 101 q 416 12 425 22 q 387 7 406 1 q 339 20 368 13 q 278 36 309 28 q 218 52 247 44 q 171 66 189 60 q 149 77 156 72 q 150 102 141 82 q 190 181 166 135 q 236 282 215 227 q 220 277 227 280 q 206 271 213 273 q 190 270 199 269 q 170 278 182 271 q 111 314 139 294 q 60 354 83 334 q 34 385 44 366 q 17 426 23 404 q 9 472 12 448 q 6 517 6 495 q 12 579 6 556 m 215 503 q 218 482 212 493 q 236 464 223 471 q 263 453 248 456 q 292 456 278 450 q 299 479 296 466 q 302 505 302 492 q 288 521 302 514 q 257 529 273 529 q 233 523 244 529 q 215 503 221 517 z "}," ":{"ha":231,"x_min":0,"x_max":0,"o":""},"E":{"ha":611,"x_min":6,"x_max":605,"o":"m 73 258 q 72 362 73 310 q 71 466 72 414 q 53 464 61 466 q 35 459 45 462 q 8 483 9 455 q 6 509 7 495 q 6 539 6 523 q 9 615 6 576 q 17 686 12 654 q 28 715 20 703 q 54 733 36 727 q 149 759 97 748 q 252 780 200 771 q 353 793 303 788 q 443 802 403 799 q 512 807 484 806 q 549 808 539 808 q 575 802 565 808 q 589 778 584 796 q 589 763 589 772 q 589 735 589 755 q 586 680 588 715 q 580 584 584 645 q 576 558 580 571 q 553 544 572 546 q 519 542 537 543 q 474 539 501 542 q 407 532 447 537 q 309 519 368 528 q 305 499 306 509 q 304 483 304 490 q 330 487 314 484 q 365 492 346 490 q 405 497 384 495 q 444 498 426 498 q 463 493 457 499 q 465 476 469 487 l 442 362 q 428 339 439 346 q 409 332 418 332 l 278 316 q 275 281 277 300 q 273 228 274 262 l 500 346 q 538 354 521 356 q 565 334 556 351 q 592 259 579 297 q 605 181 605 221 q 601 163 605 171 q 589 149 597 154 q 442 83 495 108 q 359 45 389 59 q 313 24 329 31 q 277 9 296 17 q 253 2 264 3 q 228 14 242 1 l 97 139 q 81 159 88 148 q 73 182 74 169 l 73 258 z "},"F":{"ha":633,"x_min":6,"x_max":633,"o":"m 356 506 q 352 486 353 497 q 350 463 352 476 q 367 464 355 463 q 395 465 380 464 q 425 468 410 466 q 453 470 440 469 q 486 459 479 472 q 486 424 492 447 l 458 304 q 452 284 456 295 q 425 269 448 272 q 402 266 418 267 q 369 264 387 265 q 337 263 352 264 q 315 263 322 263 l 291 29 q 280 9 289 17 q 257 6 271 0 q 247 9 253 7 q 223 18 240 12 q 177 37 207 24 q 94 73 146 50 q 82 79 88 76 q 72 87 76 81 q 66 106 68 94 q 65 146 64 119 q 65 250 65 198 q 66 360 66 302 q 66 419 66 389 q 65 481 66 449 q 47 481 56 481 q 31 483 39 481 q 7 508 10 485 q 6 544 6 523 q 7 589 6 565 q 10 635 8 612 q 14 677 12 659 q 43 713 14 704 q 315 773 179 747 q 593 808 450 800 q 626 752 633 808 l 583 560 q 570 534 579 541 q 544 524 561 527 q 461 517 493 520 q 409 512 428 514 q 377 508 389 509 q 356 506 366 507 z "},"G":{"ha":618,"x_min":6,"x_max":612,"o":"m 9 374 q 24 465 9 414 q 64 566 38 515 q 126 665 89 617 q 207 748 162 713 q 298 796 247 778 q 398 815 350 815 q 485 793 449 815 q 516 746 500 778 q 546 677 532 714 q 571 605 560 640 q 587 547 581 569 q 584 514 594 521 q 549 499 574 507 q 465 466 507 483 q 372 432 424 450 q 345 425 358 426 q 334 447 333 425 q 332 471 334 464 q 317 509 330 497 q 282 495 303 521 q 265 458 275 481 q 245 407 255 435 q 227 350 235 380 q 220 295 220 321 q 229 251 220 270 q 260 222 237 231 q 283 234 273 222 q 293 258 293 245 l 293 259 q 282 260 289 259 q 269 263 275 260 q 254 274 257 265 q 253 296 251 284 q 258 318 256 308 q 259 330 259 329 q 267 351 262 340 q 286 363 273 361 l 587 406 l 589 406 q 605 403 598 407 q 611 390 612 398 l 587 204 q 581 186 586 191 q 564 183 576 181 q 547 184 560 183 q 521 186 535 185 q 497 188 508 188 q 485 185 486 188 q 437 116 458 145 q 396 68 416 88 q 356 34 376 47 q 316 12 337 21 q 280 0 300 5 q 240 -5 260 -5 q 205 -1 222 -5 q 175 13 188 3 q 143 43 160 23 q 107 95 126 63 q 66 177 88 128 q 19 291 44 225 q 7 333 8 313 q 9 374 6 354 z "},"H":{"ha":688,"x_min":6,"x_max":685,"o":"m 574 41 q 569 11 574 17 q 537 10 564 5 q 446 30 494 19 q 358 54 398 41 q 341 64 348 58 q 336 86 334 69 q 340 145 337 105 q 353 260 344 185 l 280 252 l 249 44 q 237 17 248 20 q 221 15 226 14 q 140 36 172 28 q 86 51 108 45 q 52 61 65 57 q 27 69 38 65 q 8 90 9 76 q 7 126 6 104 q 15 236 8 166 q 31 393 22 306 q 49 578 39 480 q 65 771 58 676 q 102 795 65 807 l 328 727 q 355 712 346 723 q 355 670 365 700 l 323 513 l 325 513 q 343 515 332 514 q 363 517 353 516 q 380 520 373 519 q 389 522 388 521 q 406 653 399 604 q 417 728 412 701 q 423 766 421 755 q 427 784 425 777 q 433 800 428 792 q 461 803 438 808 q 544 775 512 787 q 597 756 576 764 q 630 744 618 749 q 652 736 642 740 q 675 724 666 731 q 679 693 685 716 l 574 41 l 574 41 z "},"I":{"ha":384,"x_min":19,"x_max":373,"o":"m 46 45 q 39 49 44 46 q 28 57 34 51 q 21 74 23 64 q 21 101 19 84 l 75 777 q 83 796 78 793 q 97 797 89 799 q 220 773 157 785 q 348 749 282 762 q 369 735 365 747 q 368 712 373 723 q 367 696 373 723 q 352 616 362 669 q 327 494 341 564 q 299 351 313 424 q 280 251 288 301 q 266 159 272 201 q 256 84 259 116 q 252 41 252 53 q 248 17 250 28 q 227 3 247 6 q 135 15 182 1 q 46 45 88 29 z "},"J":{"ha":803,"x_min":2,"x_max":800,"o":"m 286 5 q 225 25 260 12 q 150 58 189 38 q 75 102 111 78 q 14 156 39 126 q 6 176 2 168 q 17 191 10 184 q 112 275 64 240 q 203 337 161 310 q 224 344 212 345 q 242 334 236 344 q 258 315 249 326 q 275 292 266 303 q 292 274 284 281 q 309 266 301 266 q 319 271 315 263 q 326 297 323 280 q 330 338 329 315 q 332 385 332 361 q 330 440 332 414 q 324 485 329 466 q 311 484 319 485 q 286 480 303 483 q 241 473 270 477 q 166 463 212 469 q 159 462 163 463 q 150 464 155 462 q 142 472 146 466 q 135 488 138 477 l 100 684 q 100 704 97 691 q 124 721 103 716 q 408 781 264 757 q 712 804 552 804 q 740 804 726 804 q 769 803 753 803 q 792 796 784 803 q 796 773 800 789 q 793 749 795 765 q 787 708 791 734 q 778 642 784 682 q 764 547 772 603 q 759 519 764 525 q 748 510 755 513 q 726 510 743 510 q 690 510 709 510 q 653 509 670 510 q 630 507 635 508 q 626 433 628 473 q 621 355 624 394 q 615 283 618 316 q 606 231 611 250 q 589 190 604 209 q 564 160 574 170 q 541 140 554 152 q 501 111 527 128 q 438 69 476 94 q 341 10 399 45 q 328 3 338 8 q 286 5 317 -1 z "},"K":{"ha":649,"x_min":5,"x_max":646,"o":"m 520 758 q 542 771 528 770 q 558 758 556 773 l 640 524 q 644 510 641 522 q 632 492 646 499 l 356 326 q 400 315 374 322 q 457 301 427 309 q 516 284 486 293 q 567 267 545 275 q 593 243 593 259 q 583 207 593 233 q 571 168 579 191 q 555 120 564 145 q 536 71 546 95 q 516 29 527 46 q 510 17 514 23 q 501 7 507 10 q 486 4 494 3 q 466 12 477 5 l 241 120 l 231 54 q 223 35 230 39 q 203 36 215 31 q 123 53 168 41 q 42 74 79 65 q 27 78 35 76 q 14 82 20 79 q 7 93 9 86 q 7 116 5 100 q 13 264 10 190 q 20 416 16 338 q 27 576 23 493 q 38 753 31 660 q 40 779 39 769 q 45 796 41 789 q 57 805 49 802 q 82 808 65 808 q 138 804 103 808 q 211 796 172 801 q 285 784 249 791 q 345 770 322 777 q 358 765 352 767 q 369 758 365 763 q 374 743 373 752 q 370 719 375 734 l 343 608 l 520 758 z "},"L":{"ha":506,"x_min":5,"x_max":500,"o":"m 22 146 q 9 164 13 155 q 7 191 5 172 q 12 260 8 216 q 23 356 16 303 q 38 467 30 409 q 54 580 46 525 q 69 684 63 635 q 82 766 76 733 q 86 785 84 777 q 91 798 88 793 q 101 806 95 803 q 120 807 108 808 q 233 780 168 801 q 378 738 299 759 q 398 730 392 735 q 404 719 403 725 q 403 708 405 713 q 400 699 402 703 l 292 306 q 406 335 365 328 q 468 343 447 343 q 491 340 483 341 q 500 314 500 339 q 499 274 500 300 q 498 220 499 248 q 497 168 498 192 q 497 133 497 144 q 490 100 495 113 q 463 80 484 86 l 209 12 q 147 16 163 -10 q 101 58 132 23 q 22 146 71 94 z "},"M":{"ha":822,"x_min":6,"x_max":816,"o":"m 427 639 q 476 704 453 668 q 519 771 499 741 q 531 784 524 779 q 552 791 538 789 q 639 800 591 796 q 727 807 688 803 q 746 807 737 807 q 761 806 755 808 q 771 797 767 803 q 774 779 774 792 q 785 602 780 694 q 795 427 791 509 q 803 279 799 344 q 811 185 808 214 q 814 163 813 172 q 814 145 816 153 q 804 130 813 137 q 778 119 796 124 l 552 46 q 534 54 536 46 q 529 74 531 61 q 527 98 529 80 q 524 141 525 117 q 519 193 522 166 q 513 247 516 221 q 507 291 510 272 q 500 316 503 309 q 486 297 495 314 q 464 261 476 281 q 442 221 453 241 q 426 193 432 201 l 425 193 l 303 338 q 306 238 303 287 q 316 135 308 189 q 317 113 317 120 q 294 97 316 106 l 68 19 q 28 15 44 10 q 12 54 12 20 q 8 120 9 74 q 6 228 6 166 q 6 333 6 277 q 9 448 7 389 q 13 567 10 507 q 17 683 15 626 q 24 716 15 709 q 47 725 34 722 q 165 757 103 743 q 286 786 227 771 q 307 785 299 789 q 322 770 315 781 q 346 734 333 753 q 373 696 359 714 q 400 662 387 677 q 427 639 413 647 z "},"N":{"ha":648,"x_min":6,"x_max":642,"o":"m 251 0 q 105 33 157 20 q 37 51 53 46 q 12 62 19 56 q 6 87 6 68 q 12 271 9 172 q 19 461 15 369 q 26 628 22 553 q 36 744 30 704 q 57 769 39 767 q 88 757 75 770 q 182 679 140 716 q 258 610 225 641 q 313 557 291 579 q 347 529 336 536 q 345 599 348 558 q 339 679 343 640 q 330 748 334 719 q 325 784 326 778 q 327 800 322 795 q 341 805 332 804 q 362 804 351 806 q 381 801 374 802 q 428 789 399 796 q 490 773 457 782 q 554 751 522 763 q 611 725 586 738 q 626 717 619 721 q 637 705 633 713 q 641 683 640 697 q 640 647 642 669 q 634 582 638 625 q 623 484 630 538 q 611 369 617 429 q 598 254 604 309 q 586 155 591 199 q 578 87 580 110 q 575 67 576 78 q 568 48 573 56 q 553 38 563 41 q 528 44 544 35 q 459 118 498 80 q 384 189 420 156 q 318 245 347 222 q 278 273 288 267 q 270 232 272 264 q 267 163 267 200 q 269 90 267 126 q 272 38 270 54 q 270 10 273 22 q 251 0 266 -2 z "},"O":{"ha":615,"x_min":6,"x_max":609,"o":"m 161 16 q 109 63 137 31 q 59 137 82 94 q 21 233 36 179 q 7 345 6 286 q 24 445 7 397 q 64 535 41 493 q 113 608 88 576 q 156 659 139 640 q 201 703 174 677 q 259 751 228 728 q 324 791 291 774 q 387 807 358 807 q 439 795 414 808 q 489 752 464 782 q 541 672 514 721 q 600 552 567 623 q 609 507 609 537 q 595 423 609 470 q 564 332 582 376 q 525 250 545 287 q 494 197 506 213 q 468 159 485 183 q 427 108 450 134 q 373 56 403 81 q 310 16 344 31 q 229 -1 272 -1 q 192 3 209 -1 q 161 16 174 7 m 332 375 q 310 367 319 375 q 294 348 300 360 q 285 321 288 336 q 282 292 282 306 q 288 253 282 270 q 304 237 294 237 q 323 250 314 237 q 340 280 332 263 q 352 314 347 297 q 356 337 356 331 q 356 347 356 340 q 353 359 355 353 q 345 370 351 366 q 332 375 340 375 z "},"P":{"ha":609,"x_min":6,"x_max":603,"o":"m 391 97 q 390 84 391 91 q 381 73 389 76 l 163 -2 q 152 -2 155 -1 q 146 -2 148 -2 q 141 1 144 -1 q 133 9 139 3 q 117 130 124 84 q 105 212 110 176 q 95 283 100 248 q 86 373 90 318 q 71 366 80 368 q 58 363 63 365 q 43 366 46 361 q 36 375 41 370 q 14 502 21 438 q 6 632 8 566 q 11 655 6 648 q 32 670 16 662 q 120 718 75 693 q 211 762 166 742 q 301 794 257 781 q 385 807 345 807 q 447 795 418 806 q 502 759 477 785 q 550 688 528 733 q 593 575 573 644 q 600 551 597 563 q 603 527 603 539 q 593 484 603 506 q 538 408 558 435 q 508 367 519 381 q 494 348 498 353 q 487 339 491 344 q 472 323 480 330 q 449 316 463 316 q 400 316 427 314 q 350 321 373 318 l 391 97 m 328 447 q 344 446 330 442 q 375 458 359 450 q 403 478 391 466 q 411 500 414 490 q 399 505 409 505 q 377 503 390 506 q 348 494 363 500 q 322 478 333 487 l 328 447 z "},"Q":{"ha":589,"x_min":6,"x_max":583,"o":"m 314 105 q 288 90 303 98 q 256 73 272 81 q 223 60 240 65 q 194 54 206 54 q 152 69 175 54 q 119 102 130 83 q 57 193 81 154 q 21 263 34 233 q 9 311 13 281 q 6 375 6 341 q 11 450 6 413 q 27 509 16 486 q 74 601 44 551 q 146 697 104 652 q 240 773 188 742 q 351 807 292 804 q 425 788 389 809 q 491 727 462 766 q 539 635 521 688 q 557 525 557 583 q 487 296 560 419 q 490 292 487 295 q 501 279 493 288 q 523 253 508 270 q 565 209 538 236 q 583 179 583 192 q 575 162 583 170 q 556 141 566 154 q 484 72 510 97 q 444 32 458 46 q 424 13 429 19 q 414 6 418 8 q 405 2 411 3 q 389 9 399 0 l 314 105 m 247 319 q 248 306 247 315 q 252 288 249 297 q 259 272 255 279 q 272 265 264 265 q 274 298 273 277 q 277 336 274 319 q 307 341 286 337 q 343 354 328 346 q 344 369 344 359 q 343 391 345 380 q 336 410 341 402 q 323 420 331 419 q 294 414 308 425 q 270 387 280 404 q 253 351 259 370 q 247 319 247 332 z "},"R":{"ha":650,"x_min":7,"x_max":645,"o":"m 601 179 q 615 152 610 166 q 603 125 619 138 q 587 114 596 122 q 558 94 578 106 q 509 60 539 81 q 428 8 478 39 q 412 2 422 2 q 391 23 402 1 q 370 64 382 41 q 344 111 358 87 q 317 159 331 135 q 289 204 302 183 q 285 193 286 208 q 285 156 285 178 q 288 112 286 134 q 291 79 289 89 q 285 57 292 65 q 270 49 279 50 q 234 39 255 43 q 190 32 213 36 q 145 26 168 29 q 104 21 123 23 q 88 20 94 17 q 79 28 82 22 q 76 41 76 34 q 75 56 75 49 q 73 83 74 68 q 73 117 73 98 q 74 190 73 150 q 76 266 75 229 q 79 332 78 302 q 81 376 81 362 l 78 375 q 69 372 75 374 q 54 366 64 369 q 38 369 45 363 q 30 389 31 375 q 14 542 19 487 q 7 623 9 597 q 8 645 7 632 q 25 663 9 657 q 42 675 31 668 q 68 691 52 682 q 127 722 93 705 q 201 754 161 738 q 288 782 242 770 q 382 801 334 795 q 396 803 388 802 q 416 803 405 803 q 464 799 436 803 q 519 781 492 794 q 571 743 546 767 q 611 679 595 719 q 638 598 631 631 q 645 543 645 565 q 639 510 645 522 q 628 490 634 499 q 594 435 612 459 q 557 385 575 410 q 514 355 537 360 q 502 353 509 354 q 487 351 495 352 q 473 351 479 351 q 463 351 466 351 l 601 179 m 291 417 q 325 423 304 417 q 363 439 345 429 q 395 461 382 449 q 409 484 409 472 q 399 499 409 494 q 375 505 390 505 q 331 497 355 505 q 291 472 307 488 l 291 417 z "},"S":{"ha":642,"x_min":5,"x_max":637,"o":"m 309 547 q 280 534 292 549 q 260 497 267 519 q 252 451 253 475 q 257 413 251 427 q 318 415 289 413 q 379 419 347 417 q 449 423 411 421 q 538 425 487 425 q 578 415 557 426 q 604 383 598 404 q 617 343 612 367 q 623 289 623 318 q 612 217 623 255 q 573 148 601 179 q 420 33 507 71 q 244 -5 332 -5 q 138 10 189 -5 q 47 53 88 24 q 27 75 34 66 q 36 102 20 84 q 47 114 41 106 q 67 136 53 122 q 102 175 80 150 q 161 240 125 199 q 183 252 174 252 q 208 240 192 251 q 258 217 234 226 q 313 208 282 208 q 398 228 356 208 q 464 284 439 248 q 440 286 453 286 q 414 286 427 286 q 266 276 347 286 q 106 264 185 266 q 75 269 87 264 q 56 293 63 273 q 34 359 43 324 q 20 432 25 395 q 12 506 15 469 q 7 579 9 544 q 15 626 5 600 q 43 669 25 653 q 115 724 72 698 q 208 769 157 750 q 315 798 259 787 q 427 809 372 809 q 544 795 488 809 q 610 755 584 782 q 635 672 635 727 q 636 668 635 670 q 635 650 637 666 q 631 601 634 635 q 619 502 627 567 q 613 483 617 490 q 583 473 609 476 l 347 451 q 329 455 334 449 q 325 481 323 461 q 326 495 325 485 q 326 517 328 506 q 322 538 325 529 q 309 547 318 546 z "},"T":{"ha":749,"x_min":3,"x_max":743,"o":"m 31 660 q 120 693 68 676 q 229 727 171 711 q 349 758 287 743 q 471 783 411 772 q 586 800 531 794 q 683 807 640 807 q 709 800 701 807 q 716 774 716 793 q 730 658 725 715 q 741 541 735 601 q 742 517 743 527 q 725 503 742 507 l 579 463 q 577 436 578 450 q 576 407 576 422 q 583 292 576 360 q 603 116 589 225 q 605 94 605 106 q 597 80 605 82 l 340 10 q 317 5 324 2 q 306 16 309 7 q 301 36 302 24 q 299 61 300 49 q 287 219 289 140 q 280 378 285 299 l 111 318 q 84 317 89 310 q 75 333 79 324 q 65 366 71 345 q 51 420 59 387 q 32 501 43 453 q 9 615 22 549 q 9 642 3 627 q 31 660 14 656 z "},"U":{"ha":727,"x_min":6,"x_max":721,"o":"m 289 777 q 307 783 299 780 q 322 786 316 786 q 333 782 329 786 q 337 766 337 778 q 335 672 336 719 q 334 579 334 625 q 339 380 334 471 q 353 235 343 289 q 369 224 359 229 q 396 229 380 219 q 390 407 396 318 q 384 588 384 497 q 388 692 384 640 q 392 719 387 708 q 413 731 397 729 l 698 807 q 719 800 718 809 q 720 786 721 792 q 703 663 712 730 q 685 522 693 595 q 672 374 677 449 q 667 229 667 299 q 668 164 667 196 q 672 104 670 133 q 670 83 674 89 q 649 74 667 76 q 604 64 630 71 q 550 50 578 58 q 498 33 523 42 q 456 17 473 24 q 435 14 442 9 q 425 30 428 20 q 421 50 422 39 q 419 68 420 60 q 405 57 414 65 q 384 40 396 50 q 359 21 372 30 q 336 6 346 12 q 312 3 322 0 q 288 10 302 6 q 170 59 211 42 q 110 93 130 76 q 96 123 102 109 q 84 157 90 138 q 72 203 79 176 q 56 270 65 229 q 8 634 15 451 q 8 660 6 649 q 29 679 10 670 l 289 777 l 289 777 z "},"V":{"ha":785,"x_min":3,"x_max":779,"o":"m 397 347 q 399 389 397 367 q 406 447 402 411 q 415 537 410 483 q 426 677 420 591 q 430 700 424 693 q 446 709 436 707 q 600 769 519 743 q 765 809 682 795 q 774 808 770 809 q 778 793 779 807 q 720 652 747 726 q 672 505 694 578 q 633 367 650 433 q 604 249 616 301 q 584 165 591 198 q 576 127 578 132 q 573 112 574 117 q 569 103 572 106 q 561 97 566 100 q 547 93 557 95 q 424 58 472 72 q 346 34 376 44 q 300 19 316 24 q 274 9 285 13 q 254 3 262 3 q 241 19 247 2 l 12 596 q 9 628 3 620 q 30 642 14 637 l 300 764 q 326 769 318 773 q 336 747 333 765 q 343 701 339 731 q 354 623 347 671 q 372 507 361 575 q 397 347 382 439 z "},"W":{"ha":760,"x_min":5,"x_max":755,"o":"m 7 644 q 8 672 5 664 q 30 690 12 681 q 68 705 42 694 q 133 729 95 715 q 218 762 171 743 q 315 801 264 780 q 333 800 328 807 q 336 779 338 794 q 329 730 333 764 q 321 652 325 697 q 314 554 317 608 q 311 447 311 501 q 311 419 311 433 q 313 391 311 405 q 334 439 322 410 q 353 483 346 468 q 370 505 362 505 q 388 486 378 505 q 417 444 402 469 q 447 404 433 420 q 442 545 444 475 q 435 684 439 615 q 436 704 429 697 q 466 718 443 712 q 597 756 550 742 q 670 778 645 771 q 707 787 696 785 q 729 789 719 789 q 745 789 736 789 q 755 774 755 788 q 745 729 750 764 q 736 645 741 694 q 725 535 730 595 q 716 412 720 475 q 709 291 712 350 q 707 184 707 231 q 705 167 707 172 q 693 159 703 162 q 599 117 633 132 q 547 95 565 103 q 525 86 530 88 q 516 83 520 84 q 500 78 508 75 q 487 88 492 81 q 442 135 464 111 q 395 181 420 159 q 376 128 382 150 q 365 91 370 106 q 360 75 361 79 q 343 65 359 71 q 328 59 336 61 q 304 51 321 57 q 256 35 287 45 q 171 6 225 24 q 154 3 162 0 q 146 14 146 6 q 119 112 134 57 q 89 229 104 168 q 58 353 73 291 q 32 471 44 416 q 14 572 21 527 q 7 644 7 617 z "},"X":{"ha":725,"x_min":1,"x_max":722,"o":"m 402 667 q 432 715 421 690 q 456 760 443 741 q 473 785 463 782 q 497 781 483 787 q 507 777 500 780 q 535 761 514 773 q 596 726 556 749 q 708 663 637 703 q 718 652 714 660 q 709 628 722 644 q 649 538 686 587 q 574 444 611 490 q 508 364 537 399 q 470 315 478 329 q 506 201 487 243 q 531 140 525 160 q 534 121 534 131 q 521 102 535 111 q 494 78 510 90 q 460 53 478 65 q 424 31 442 42 q 391 12 405 20 q 369 12 375 6 q 358 24 362 19 l 299 103 l 200 -6 q 186 -13 191 -14 q 169 -6 181 -12 l 31 87 q 8 106 15 98 q 14 130 1 113 q 107 247 72 203 q 160 314 142 291 q 184 346 178 338 q 189 356 190 354 q 143 450 167 397 q 99 550 119 502 q 65 633 79 598 q 50 674 51 668 q 46 690 45 684 q 49 699 46 696 q 56 704 52 703 q 59 705 59 705 q 60 705 59 705 q 67 708 60 706 q 90 716 74 711 q 139 733 106 722 q 223 760 171 743 q 351 802 274 777 q 361 801 353 802 q 370 787 368 800 l 402 667 l 402 667 z "},"Y":{"ha":766,"x_min":3,"x_max":763,"o":"m 192 57 q 178 65 181 60 q 179 87 175 69 q 187 117 183 98 q 197 165 191 135 q 209 236 203 194 q 223 336 215 278 l 13 605 q 6 621 3 612 q 14 633 9 630 q 93 690 61 668 q 152 729 125 712 q 206 763 179 747 q 270 801 233 779 q 284 805 274 803 q 297 794 293 807 l 394 601 l 494 785 q 505 793 499 793 q 517 792 510 794 q 528 786 521 791 q 557 765 535 781 q 624 716 580 749 q 748 625 669 683 q 759 611 756 619 q 753 593 763 602 l 494 288 q 500 160 494 223 q 506 27 506 96 q 502 9 508 14 q 478 6 497 3 q 411 12 455 5 q 319 28 368 19 q 234 46 262 39 q 192 57 206 52 z "},"Z":{"ha":600,"x_min":6,"x_max":594,"o":"m 45 20 q 42 55 45 30 q 36 110 39 80 q 31 172 34 140 q 27 231 28 205 q 27 241 27 235 q 38 258 28 247 l 313 486 l 53 449 q 28 465 34 443 q 10 663 15 584 q 6 786 6 742 q 30 810 6 810 q 268 802 153 810 q 503 794 383 794 l 546 794 q 564 788 558 794 q 571 777 569 781 q 588 641 582 711 q 594 506 594 572 q 592 488 594 494 q 581 475 590 481 q 564 459 575 469 q 525 428 553 450 q 446 365 498 405 q 306 259 394 325 q 355 266 326 259 q 414 281 384 272 q 474 300 444 289 q 527 319 503 310 q 550 320 544 324 q 556 300 557 316 q 548 187 553 248 q 538 73 543 126 q 535 48 537 56 q 513 38 532 41 l 72 -2 q 51 0 59 -3 q 45 20 43 3 z "},"˚":{"ha":289,"x_min":6,"x_max":284,"o":"m 6 924 q 22 983 6 953 q 64 1036 38 1013 q 122 1074 89 1059 q 186 1089 154 1089 q 255 1063 227 1089 q 284 994 284 1037 q 269 923 284 955 q 228 869 253 891 q 171 836 203 847 q 104 824 139 824 q 69 832 87 824 q 37 852 51 839 q 14 883 23 865 q 6 924 6 902 m 160 955 q 145 949 152 955 q 135 935 139 943 q 133 919 132 927 q 139 906 133 911 q 157 911 149 905 q 168 927 164 918 q 170 943 171 935 q 160 955 168 951 z "},";":{"ha":248,"x_min":6,"x_max":242,"o":"m 10 -17 q 50 35 34 0 q 63 115 66 69 q 19 150 31 120 q 6 212 6 179 q 14 257 6 234 q 38 299 23 280 q 72 330 52 318 q 117 343 93 343 q 160 333 142 343 q 187 306 177 323 q 201 268 197 289 q 205 225 205 247 q 193 154 205 193 q 156 78 181 115 q 95 15 132 42 q 10 -17 59 -12 m 118 468 q 57 501 78 468 q 36 575 36 534 q 43 623 36 600 q 57 655 47 638 q 81 686 67 671 q 114 711 95 701 q 156 723 133 721 q 190 717 175 725 q 218 697 206 709 q 236 667 229 684 q 242 631 242 649 q 234 576 242 605 q 210 523 226 547 q 171 483 194 499 q 118 468 148 468 z "},":":{"ha":249,"x_min":6,"x_max":243,"o":"m 88 83 q 27 116 47 83 q 6 191 6 149 q 13 238 6 215 q 27 270 17 253 q 51 302 37 287 q 84 327 65 317 q 126 339 103 337 q 160 333 145 340 q 188 313 176 325 q 205 282 199 300 q 212 247 212 265 q 204 192 212 221 q 180 139 196 163 q 141 99 164 115 q 88 83 118 83 m 119 459 q 58 492 79 459 q 37 567 37 525 q 44 615 37 591 q 58 646 49 630 q 82 678 68 663 q 115 703 96 693 q 157 715 134 713 q 192 709 176 716 q 219 689 207 701 q 237 659 230 676 q 243 623 243 641 q 235 568 243 597 q 211 515 227 539 q 172 475 196 491 q 119 459 149 459 z "},".":{"ha":302,"x_min":10,"x_max":216,"o":"m 93 0 q 31 33 52 0 q 10 108 10 66 q 17 155 10 132 q 32 187 22 170 q 56 219 42 204 q 89 244 69 234 q 131 256 108 253 q 165 249 149 257 q 192 229 181 242 q 210 199 204 216 q 216 163 216 182 q 208 109 216 138 q 185 56 200 80 q 146 16 169 31 q 93 0 123 0 z "},",":{"ha":211,"x_min":6,"x_max":205,"o":"m 10 -132 q 50 -80 34 -115 q 63 0 66 -45 q 19 35 31 6 q 6 97 6 65 q 14 142 6 119 q 38 185 23 166 q 72 216 52 204 q 117 228 93 228 q 160 218 142 228 q 187 192 177 208 q 201 153 197 175 q 205 110 205 132 q 193 39 205 79 q 156 -36 181 0 q 95 -100 132 -73 q 10 -132 59 -126 z "},"$":{"ha":541,"x_min":6,"x_max":535,"o":"m 227 53 q 189 53 213 53 q 140 56 166 53 q 91 65 115 59 q 58 82 68 71 q 53 93 54 87 q 61 118 52 100 l 126 216 q 139 237 132 229 q 160 240 147 245 q 178 233 167 235 q 204 231 190 231 q 241 234 221 231 q 280 241 262 237 q 314 251 299 245 q 337 264 329 257 q 347 284 347 272 q 331 299 347 295 q 275 291 303 296 q 219 278 248 285 q 162 267 191 272 q 103 262 133 262 q 68 266 80 262 q 49 281 56 271 q 39 306 42 291 q 32 341 36 321 l 13 469 q 7 498 8 485 q 6 520 6 510 q 14 557 6 547 q 24 572 22 567 q 75 620 46 594 q 133 661 103 646 q 128 699 133 679 q 125 740 124 719 q 164 763 137 748 q 222 795 191 779 q 282 822 252 810 q 330 833 311 833 q 336 818 333 833 q 340 782 338 802 q 343 745 341 763 q 346 722 344 727 q 402 730 372 730 q 466 716 441 730 q 507 680 492 703 q 528 628 522 657 q 535 567 535 598 q 533 531 535 549 q 529 497 531 514 q 510 463 525 471 q 464 449 494 455 q 394 437 431 442 q 323 432 358 432 q 296 435 304 432 q 285 457 287 438 q 282 487 282 471 q 272 512 281 502 q 254 498 263 502 q 238 488 245 494 q 226 473 230 483 q 221 446 221 464 q 223 416 221 429 q 249 399 226 403 q 286 402 259 398 q 347 412 314 406 q 411 423 380 418 q 464 429 443 428 q 488 424 479 429 q 502 405 497 419 q 511 358 508 388 q 514 294 514 328 q 509 222 514 257 q 495 167 505 186 q 479 143 490 156 q 453 116 468 130 q 422 93 439 103 q 389 81 405 83 l 389 22 q 388 12 390 17 q 377 -9 387 7 l 324 -36 q 296 -48 310 -42 q 267 -60 281 -54 q 252 -58 259 -60 q 243 -46 244 -57 l 227 53 l 227 53 z "},"¢":{"ha":448,"x_min":7,"x_max":442,"o":"m 189 1 q 180 6 181 1 q 177 17 179 10 q 174 62 172 39 q 168 104 176 84 q 133 109 147 104 q 109 124 119 115 q 90 146 98 133 q 72 177 81 160 q 52 220 63 194 q 31 273 41 245 q 14 328 21 301 q 7 372 7 354 q 7 389 7 376 q 17 429 7 403 q 52 496 28 455 q 125 597 76 537 l 112 684 q 113 701 112 690 q 124 716 115 712 q 167 739 147 727 q 208 763 188 751 q 249 786 228 775 q 296 804 271 796 q 311 807 301 807 q 323 794 322 807 l 326 707 q 385 681 363 707 q 418 616 406 654 q 435 535 431 578 q 442 459 440 492 q 439 443 442 444 q 424 435 436 441 q 344 405 374 417 q 299 387 315 394 q 277 377 284 380 q 267 373 271 374 l 266 373 q 250 387 253 373 q 241 419 244 403 q 229 451 238 435 q 202 417 213 446 q 191 353 191 389 q 206 282 191 314 q 215 281 211 277 q 223 295 220 286 q 230 315 227 304 q 235 333 233 326 q 247 345 238 345 q 265 341 255 345 q 330 317 303 326 q 373 301 356 307 q 399 292 390 295 q 413 287 409 288 q 425 256 435 274 q 366 182 402 213 q 303 126 330 152 l 303 123 l 306 83 q 304 67 306 71 q 292 54 302 64 q 266 37 280 46 q 238 20 252 28 q 212 6 225 12 q 189 1 199 1 z "},"!":{"ha":270,"x_min":6,"x_max":265,"o":"m 6 80 q 12 116 6 97 q 28 151 17 135 q 55 177 39 167 q 90 186 71 186 q 117 179 105 186 q 138 159 130 171 q 152 133 147 147 q 156 104 156 118 q 151 69 156 88 q 137 36 146 51 q 112 11 127 21 q 79 1 97 1 q 24 23 43 1 q 6 80 6 44 m 37 267 q 21 274 22 270 q 17 292 20 278 q 13 337 15 309 q 10 399 12 365 q 8 471 9 433 q 7 550 7 509 q 10 683 7 618 q 22 794 13 748 q 25 805 22 795 q 46 810 28 815 q 60 808 53 810 q 84 797 66 806 q 139 771 103 788 q 242 725 176 753 q 256 715 248 722 q 263 699 265 708 l 216 440 q 200 347 206 381 q 192 296 194 314 q 188 273 189 279 q 188 264 188 267 q 177 249 185 250 q 157 250 169 248 q 98 259 130 256 q 37 267 67 262 z "},"(":{"ha":409,"x_min":6,"x_max":404,"o":"m 178 -84 q 47 101 89 -8 q 6 328 6 209 q 6 358 6 344 q 8 389 6 373 q 32 515 14 453 q 79 635 50 578 q 150 742 109 692 q 243 833 191 793 q 260 836 252 840 q 274 823 269 831 q 336 735 313 767 q 372 685 359 703 q 389 660 384 667 q 397 649 395 653 q 402 633 404 642 q 391 617 400 623 q 273 492 322 564 q 213 338 223 420 q 209 281 209 310 q 271 67 209 167 q 275 58 273 64 q 274 42 277 53 l 206 -82 q 194 -89 204 -89 q 178 -84 185 -89 z "},")":{"ha":409,"x_min":5,"x_max":403,"o":"m 230 -84 q 214 -89 223 -89 q 203 -82 205 -89 l 134 42 q 134 58 132 53 q 138 67 135 64 q 199 281 199 167 q 196 338 199 310 q 136 492 185 420 q 17 617 87 564 q 6 633 8 623 q 12 649 5 642 q 19 660 14 653 q 37 685 24 667 q 73 735 50 703 q 134 823 96 767 q 148 836 140 831 q 166 833 156 840 q 259 742 218 793 q 329 635 300 692 q 377 515 359 578 q 400 389 395 453 q 403 358 403 373 q 403 328 403 344 q 361 101 403 209 q 230 -84 318 -8 z "},"<":{"ha":451,"x_min":6,"x_max":456,"o":"m 214 51 q 205 57 219 39 q 168 110 191 75 q 116 192 145 145 q 64 284 88 238 q 23 367 39 329 q 6 424 6 405 q 80 532 6 449 q 301 738 155 615 q 326 749 316 748 q 350 738 337 751 q 355 731 351 736 q 368 710 359 726 q 394 666 377 694 q 438 590 411 638 q 429 547 456 560 q 320 469 361 498 q 256 424 279 440 q 223 399 233 407 q 207 384 213 391 q 278 286 238 338 q 354 197 317 234 q 362 185 360 191 q 355 164 365 179 l 242 51 q 227 46 236 45 q 214 51 219 47 z "},">":{"ha":451,"x_min":-5,"x_max":446,"o":"m 237 51 q 224 46 233 47 q 209 51 215 45 l 96 164 q 89 185 87 179 q 97 197 91 191 q 174 286 134 234 q 244 384 213 338 q 229 399 238 391 q 196 424 219 407 q 131 469 172 440 q 22 547 90 498 q 14 590 -5 560 q 57 666 41 638 q 83 710 74 694 q 97 731 93 726 q 102 738 101 736 q 125 749 115 751 q 150 738 135 748 q 371 532 296 615 q 446 424 446 449 q 429 367 446 405 q 388 284 412 329 q 335 192 363 238 q 284 110 307 145 q 247 57 260 75 q 237 51 233 39 z "},"§":{"ha":503,"x_min":6,"x_max":500,"o":"m 27 353 q 75 380 58 370 q 101 394 93 389 q 111 401 109 399 q 112 404 112 403 q 91 403 101 404 q 73 402 82 402 q 46 409 57 402 q 30 439 35 416 q 23 494 24 466 q 22 549 22 521 q 23 594 22 572 q 23 640 23 617 q 23 681 23 661 q 28 718 23 701 q 44 748 32 735 q 79 771 56 762 q 112 783 87 775 q 172 797 137 791 q 248 810 207 804 q 331 815 289 815 q 402 810 368 815 q 463 791 436 804 q 487 756 480 781 q 493 701 493 731 q 488 638 493 669 q 481 587 484 606 q 471 563 478 571 q 454 553 464 556 q 431 552 443 551 q 405 552 419 552 q 348 554 375 552 q 291 554 321 556 q 279 563 281 557 q 277 576 277 568 q 277 593 277 581 q 277 617 278 605 q 272 639 277 630 q 257 648 267 648 q 235 634 244 648 q 219 600 226 619 q 210 561 213 580 q 207 532 207 542 q 208 527 207 531 q 218 523 209 523 q 275 525 245 523 q 353 528 306 528 q 393 525 373 528 q 433 516 413 522 q 447 507 438 514 q 462 484 456 500 l 494 362 q 495 336 500 344 q 481 317 491 328 q 402 260 462 294 q 227 185 343 226 q 224 168 225 179 q 233 156 223 156 q 237 157 233 156 q 259 161 241 157 q 317 171 278 164 q 428 192 356 178 q 458 193 447 196 q 475 184 469 190 q 483 171 480 178 q 485 161 485 164 q 488 131 487 146 q 490 103 490 117 q 329 -128 490 -54 q 239 -156 291 -146 q 135 -167 188 -167 q 86 -164 110 -167 q 42 -155 63 -161 q 28 -148 32 -153 q 23 -128 23 -144 l 81 -22 q 97 -10 89 -14 q 115 -17 104 -7 q 146 -35 127 -30 q 185 -41 164 -41 q 238 -34 212 -41 q 285 -17 265 -27 q 311 -1 295 -13 q 340 25 326 10 q 361 56 354 41 q 360 86 368 72 q 172 47 237 59 q 90 35 106 35 q 57 47 67 35 q 39 80 46 60 q 13 194 20 131 q 6 319 6 257 q 10 341 6 336 q 27 353 14 347 m 226 414 q 217 392 219 406 q 215 355 215 377 l 215 307 q 251 317 227 307 q 300 342 275 328 q 343 373 324 356 q 361 404 361 390 q 340 416 361 410 q 287 422 319 422 q 258 421 273 422 q 226 414 242 419 z "},"£":{"ha":692,"x_min":6,"x_max":688,"o":"m 6 209 q 12 226 6 225 q 30 234 17 228 q 43 236 35 235 q 61 239 52 237 q 79 242 71 241 q 90 248 87 244 q 95 281 93 264 q 100 321 97 297 q 66 318 84 321 q 32 323 47 315 q 23 336 23 328 q 25 354 23 345 q 31 396 28 367 q 42 484 35 425 q 43 494 41 486 q 61 503 45 502 l 148 508 q 194 611 162 560 q 273 701 227 661 q 374 767 318 742 q 488 792 429 792 q 582 774 543 792 q 644 724 620 756 q 678 649 668 692 q 685 556 688 605 q 679 539 685 549 q 664 528 674 530 q 572 505 601 512 q 534 495 543 498 q 517 498 521 493 q 513 515 513 502 q 512 540 513 524 q 509 570 512 556 q 503 595 507 584 q 492 606 499 606 q 458 582 481 606 q 416 491 435 557 l 416 488 q 427 488 419 488 q 445 487 435 487 q 463 485 455 486 q 475 484 471 484 q 485 479 477 484 q 493 453 493 475 l 479 368 q 470 355 477 358 q 447 351 463 353 q 396 343 414 345 q 370 341 378 341 q 359 340 361 340 q 355 337 356 339 q 348 311 353 328 q 344 289 344 294 l 500 317 q 535 308 530 317 q 539 289 539 299 l 501 89 q 495 73 500 86 q 484 65 490 61 q 407 46 444 57 q 332 26 369 36 q 255 8 294 16 q 175 -2 216 0 q 161 0 164 -2 q 147 15 157 2 l 6 209 l 6 209 z "},"™":{"ha":1571,"x_min":6,"x_max":1565,"o":"m 182 19 q 183 17 183 19 q 182 16 183 16 q 181 17 181 16 q 182 19 181 19 m 1565 116 q 1564 115 1565 115 q 1563 116 1563 115 q 1564 117 1563 117 q 1565 116 1565 117 m 72 328 q 65 334 66 325 q 64 351 64 344 l 96 550 l 23 531 l 19 531 q 9 536 13 531 q 6 554 6 541 l 17 735 q 20 748 17 740 q 29 758 23 757 q 231 778 131 771 q 446 787 332 786 q 458 786 453 787 q 468 770 463 786 l 490 655 l 523 750 q 528 769 523 766 q 547 775 532 772 l 670 791 q 681 781 679 791 q 679 764 682 771 l 639 411 q 634 394 638 398 q 624 390 631 390 q 577 384 601 385 q 530 381 553 383 q 521 380 525 381 q 514 381 517 380 q 510 387 512 382 q 508 400 508 391 q 508 405 508 402 q 510 417 508 407 q 514 447 512 427 q 522 502 516 468 q 510 488 516 499 q 497 466 503 478 q 484 445 491 455 q 472 432 477 435 q 466 442 470 435 q 458 457 462 449 q 450 473 454 465 q 446 485 447 480 l 427 406 q 405 389 424 394 q 384 385 397 387 q 355 381 370 383 q 325 377 340 380 q 300 374 310 375 l 297 374 q 285 397 285 374 l 308 569 q 285 568 295 569 q 260 564 274 567 l 223 383 q 215 362 220 367 q 204 356 209 358 q 193 352 200 354 q 171 347 185 350 q 133 340 156 345 q 72 328 109 336 z "},"©":{"ha":464,"x_min":6,"x_max":458,"o":"m 192 124 q 159 116 176 116 q 116 138 134 116 q 105 150 119 133 q 72 200 91 168 q 34 276 53 233 q 6 367 14 319 q 44 495 8 438 q 130 591 80 552 q 237 648 181 630 q 338 659 293 666 q 366 646 346 657 q 406 616 385 635 q 442 566 426 596 q 458 497 458 536 q 432 380 458 441 q 367 267 406 319 q 282 175 329 214 q 192 124 235 137 m 76 356 q 83 308 75 333 q 102 261 90 284 q 127 220 113 238 q 150 190 140 201 q 167 178 160 179 q 190 182 175 176 q 252 222 223 196 q 302 282 280 249 q 336 352 323 315 q 354 427 350 390 q 348 469 356 444 q 325 514 339 493 q 295 550 311 536 q 267 563 279 565 q 202 533 234 553 q 145 486 170 513 q 101 425 119 458 q 76 356 83 391 m 153 225 q 137 250 147 234 q 119 284 127 266 q 104 318 110 301 q 97 348 97 336 q 114 399 97 367 q 155 463 131 432 q 207 517 179 494 q 258 541 235 541 q 273 532 266 541 q 286 514 280 524 q 297 492 293 503 q 306 476 302 481 l 318 427 l 318 426 q 306 405 318 416 q 277 385 294 395 q 243 370 260 376 q 215 363 226 363 q 214 385 213 370 q 205 400 214 400 q 182 381 192 400 q 172 340 172 362 q 177 317 172 328 q 190 300 181 307 q 201 298 198 294 q 205 309 204 302 q 210 324 207 316 q 221 334 213 332 l 282 353 q 299 352 295 355 q 299 337 302 350 q 284 297 295 317 q 258 260 273 278 q 225 229 243 242 q 189 211 206 215 q 169 211 176 207 q 153 225 162 214 z "},"@":{"ha":668,"x_min":6,"x_max":662,"o":"m 270 0 q 148 37 198 5 q 66 120 97 69 q 20 233 35 170 q 6 362 6 296 q 31 541 6 456 q 97 677 56 625 q 223 784 146 743 q 406 824 301 824 q 432 824 419 824 q 458 822 444 824 q 558 773 519 813 q 621 680 598 734 q 653 566 644 626 q 662 456 662 506 q 659 392 662 418 q 601 203 642 278 q 503 82 559 127 q 387 19 448 37 q 270 0 325 0 m 236 80 q 292 68 260 68 q 345 76 318 68 q 396 96 373 83 q 437 125 419 109 q 464 159 455 141 l 466 163 q 427 140 448 150 q 387 123 405 130 q 355 117 368 117 q 340 128 343 118 q 340 152 338 141 q 339 176 341 163 q 297 143 316 157 q 260 130 278 128 q 225 146 241 131 q 198 185 209 161 q 182 242 188 209 q 176 310 176 274 q 187 411 176 359 q 222 508 198 463 q 284 584 247 552 q 373 625 321 616 q 389 623 378 625 q 409 614 399 622 q 424 591 418 606 q 429 547 431 575 q 435 561 432 551 q 443 583 439 572 q 452 602 448 594 q 461 610 456 610 l 462 610 q 501 587 480 602 q 537 560 522 572 q 476 642 514 618 q 396 667 439 667 q 336 657 366 667 q 279 630 307 647 q 228 589 251 612 q 189 541 205 566 q 150 440 163 497 q 138 325 138 384 q 144 247 138 285 q 163 176 150 208 q 193 119 175 144 q 236 80 212 94 m 561 503 q 513 414 531 459 q 483 332 494 369 q 466 269 471 294 q 458 238 461 243 q 506 263 486 238 q 541 321 527 287 q 561 394 554 355 q 568 462 568 432 q 567 487 568 476 q 563 503 566 498 l 561 503 m 341 446 q 318 429 329 446 q 300 390 308 413 q 287 341 292 367 q 282 295 282 315 q 285 270 282 279 q 295 260 288 260 q 320 274 308 260 q 341 307 332 287 q 356 351 351 328 q 362 396 362 375 q 358 427 362 413 q 341 446 353 440 z "},"¥":{"ha":681,"x_min":5,"x_max":675,"o":"m 188 2 q 175 4 179 -6 q 171 23 171 14 l 197 242 q 126 238 161 242 q 54 234 90 234 q 45 236 52 234 q 37 250 37 238 q 34 288 37 269 q 29 325 31 307 q 35 342 29 338 q 53 346 41 346 q 130 351 93 348 q 207 356 168 353 l 208 356 q 203 376 208 367 q 188 390 197 384 q 173 390 181 390 q 150 391 166 390 q 109 392 134 391 q 42 392 83 392 q 31 393 34 392 q 22 399 28 394 q 19 433 21 417 q 15 461 16 447 q 13 484 14 475 q 18 503 13 500 q 39 508 23 506 q 55 509 44 508 q 79 509 66 509 q 104 510 93 509 q 119 510 115 510 l 119 513 l 13 633 q 6 646 8 641 q 15 656 5 650 q 152 752 106 720 q 218 794 197 785 q 241 796 234 801 q 255 788 249 791 l 347 625 l 449 781 q 453 786 450 784 q 458 792 455 789 q 468 794 462 794 q 484 791 475 794 l 661 642 q 666 638 662 641 q 672 630 669 634 q 674 619 675 625 q 666 604 672 612 l 561 492 q 604 489 582 488 q 647 487 625 490 q 656 480 657 487 q 653 464 655 473 l 633 400 q 617 385 627 388 q 602 383 608 383 q 542 385 572 383 q 481 388 512 388 l 466 388 l 436 354 l 606 345 q 612 341 610 345 q 612 325 615 338 l 598 258 q 587 245 590 251 q 566 242 583 240 q 544 244 556 243 q 519 244 532 244 q 478 244 500 244 q 427 243 456 243 q 422 223 424 237 q 420 191 421 208 q 419 154 419 174 q 419 118 419 134 l 419 84 q 420 49 419 61 q 400 30 421 37 q 330 20 380 24 q 188 2 281 15 z "},"?":{"ha":666,"x_min":6,"x_max":666,"o":"m 39 104 q 57 130 45 124 q 71 137 68 137 q 110 139 94 139 q 142 140 126 140 q 172 139 157 140 q 207 138 188 139 q 219 130 212 134 q 226 104 227 126 q 223 65 225 90 q 215 23 221 39 q 212 14 214 21 q 207 2 211 8 q 198 -8 204 -3 q 184 -13 192 -13 q 133 -13 161 -15 q 61 -12 104 -12 q 46 -3 54 -9 q 38 20 38 2 l 39 104 m 57 205 q 46 212 54 206 q 32 236 37 218 q 31 270 29 250 q 32 323 32 291 q 46 365 30 341 q 86 408 61 388 q 138 442 110 428 q 190 455 167 455 q 235 454 206 455 q 316 443 264 453 q 334 448 329 442 q 344 464 340 455 q 348 480 345 469 q 355 505 352 491 q 361 535 359 519 q 363 565 363 551 q 357 598 363 584 q 333 612 351 612 q 325 612 330 612 q 314 606 319 612 q 304 586 309 601 q 297 542 300 571 q 288 531 295 536 q 274 528 281 527 q 167 539 209 532 q 95 552 124 545 q 50 563 67 558 q 22 569 34 568 q 11 579 16 572 q 7 594 6 586 l 19 743 q 29 759 21 750 q 47 778 37 769 q 69 797 58 788 q 87 811 80 806 q 136 840 112 831 q 190 850 160 850 q 275 844 225 850 q 383 827 325 839 q 501 795 440 815 q 620 747 563 775 q 655 716 644 738 q 654 674 666 693 q 579 492 615 581 q 495 314 544 403 q 468 291 483 299 q 440 279 454 282 q 414 275 426 275 q 398 274 403 274 q 393 275 397 274 q 373 277 389 275 q 324 282 356 279 q 235 292 292 286 q 229 257 229 279 q 225 216 228 235 q 202 202 215 207 q 177 198 189 197 l 128 198 q 92 199 110 198 q 57 205 74 200 z "},"-":{"ha":372,"x_min":43,"x_max":328,"o":"m 44 418 q 47 431 44 426 q 59 435 50 435 q 123 438 90 436 q 190 439 156 439 q 252 437 221 439 q 315 431 284 435 q 321 427 317 431 q 325 407 325 422 q 326 368 325 388 q 328 329 328 348 q 323 277 328 300 q 311 266 321 266 q 293 266 302 266 q 196 263 236 266 q 129 257 156 260 q 86 251 102 253 q 61 250 69 249 q 49 254 52 251 q 45 266 46 257 q 43 291 44 278 q 43 319 43 304 q 44 374 43 347 q 44 418 45 400 z "},"=":{"ha":368,"x_min":6,"x_max":362,"o":"m 6 390 q 12 396 6 395 q 24 398 19 398 q 83 400 58 400 q 139 400 109 400 q 239 398 189 400 q 338 395 289 396 q 351 389 347 392 l 351 376 q 349 323 351 350 q 348 270 347 296 q 332 261 343 262 q 311 262 322 260 l 64 242 l 13 242 l 8 258 q 7 307 7 284 q 6 348 7 326 q 6 384 6 370 l 6 390 m 17 582 q 23 589 17 587 q 36 591 29 591 q 95 593 69 593 q 150 594 120 594 q 251 591 200 594 q 350 587 301 589 q 362 581 359 587 l 362 568 q 360 516 362 542 q 360 463 358 490 q 344 454 354 455 q 323 455 333 454 l 75 435 l 24 435 l 20 450 q 19 500 19 477 q 18 541 19 520 q 17 576 17 563 l 17 582 z "},"˛":{"ha":964,"x_min":0,"x_max":0,"o":""},"ƒ":{"ha":591,"x_min":6,"x_max":586,"o":"m 31 -82 q 12 -21 19 -56 q 6 44 6 13 q 8 63 6 57 q 21 72 9 68 q 71 90 51 79 q 104 120 91 102 q 122 165 116 139 q 127 227 127 191 q 61 233 76 227 q 42 240 45 238 q 34 252 36 242 q 31 277 31 263 q 36 323 31 300 q 49 353 41 346 q 88 366 66 361 q 130 373 110 370 q 148 520 131 456 q 198 634 164 583 q 283 724 231 684 q 404 799 334 764 q 428 805 414 804 q 453 802 441 806 q 503 767 480 793 q 542 708 525 741 q 569 640 559 675 q 584 581 580 605 q 582 560 586 566 q 571 550 578 553 q 497 498 534 523 q 419 451 459 472 q 413 451 417 451 q 396 455 409 450 q 387 474 389 462 q 383 498 385 486 q 377 518 381 509 q 363 527 374 527 q 342 509 351 527 q 328 470 333 492 q 319 429 322 449 q 318 404 317 409 q 321 403 318 404 q 333 405 324 403 q 359 411 341 406 q 406 424 376 416 q 441 410 432 432 q 433 329 441 369 q 412 245 425 289 q 397 229 406 237 q 378 220 388 221 l 302 213 q 274 126 293 178 q 225 26 255 74 q 152 -57 194 -22 q 56 -91 110 -91 q 42 -90 50 -91 q 31 -82 35 -88 z "},"~":{"ha":563,"x_min":6,"x_max":557,"o":"m 23 247 q 10 284 14 266 q 6 319 6 302 q 31 405 6 368 q 94 465 57 442 q 142 484 119 478 q 185 490 164 490 q 247 479 218 490 q 304 455 275 469 q 362 430 332 442 q 428 416 392 418 q 501 434 468 416 q 551 485 534 453 q 556 461 554 472 q 557 436 557 449 q 539 359 557 395 q 491 297 522 323 q 418 258 459 271 q 328 247 376 244 q 267 257 296 250 q 211 270 238 264 q 159 282 184 277 q 111 287 133 287 q 63 278 84 287 q 23 247 42 270 z "},"[":{"ha":348,"x_min":6,"x_max":343,"o":"m 61 -43 q 50 -37 56 -42 q 42 -13 44 -32 q 28 228 35 115 q 17 436 22 341 q 9 604 12 531 q 6 723 6 677 q 6 746 6 736 q 7 764 6 756 q 14 785 13 775 q 38 801 15 794 q 126 823 80 814 q 211 838 172 832 q 274 847 249 844 q 300 850 300 850 q 322 845 315 850 q 329 825 329 841 l 302 670 q 295 645 297 659 q 278 630 293 632 l 197 616 q 168 410 181 522 q 155 189 155 299 q 156 149 155 169 q 157 110 156 130 l 159 110 q 193 114 175 110 q 230 124 211 118 q 267 135 249 130 q 303 144 286 141 q 322 138 316 146 q 330 122 328 130 q 341 47 339 83 q 343 -29 343 12 q 333 -46 343 -41 q 321 -52 324 -51 q 289 -56 307 -54 q 251 -57 271 -57 q 149 -52 203 -57 q 61 -43 96 -47 z "},"]":{"ha":348,"x_min":6,"x_max":343,"o":"m 287 -43 q 199 -52 252 -47 q 97 -57 146 -57 q 60 -56 78 -57 q 28 -52 42 -54 q 15 -46 24 -51 q 6 -29 6 -41 q 8 47 6 12 q 19 122 9 83 q 27 138 21 130 q 45 144 32 146 q 81 135 63 141 q 119 124 100 130 q 156 114 138 118 q 190 110 174 110 l 191 110 q 193 149 192 130 q 193 189 193 169 q 181 410 193 299 q 152 616 168 522 l 71 630 q 53 645 56 632 q 46 670 51 659 l 20 825 q 27 845 20 841 q 49 850 34 850 q 74 847 49 850 q 138 838 100 844 q 222 823 176 832 q 310 801 269 814 q 334 785 333 794 q 341 764 336 775 q 343 746 343 756 q 343 723 343 736 q 340 604 343 677 q 332 436 337 531 q 320 228 326 341 q 307 -13 314 115 q 299 -37 304 -32 q 287 -43 293 -42 z "},"€":{"ha":641,"x_min":7,"x_max":634,"o":"m 306 8 q 286 7 299 5 q 262 14 274 9 q 240 24 250 19 q 226 32 229 29 q 148 119 181 81 q 121 152 134 135 q 98 180 108 168 q 84 200 89 192 q 83 207 80 207 q 60 203 71 207 q 36 199 49 199 q 25 201 27 199 q 23 215 23 204 l 23 263 q 28 280 24 272 q 43 292 31 287 q 62 299 47 294 q 82 304 76 303 l 82 339 q 52 337 66 339 q 21 336 37 336 q 13 339 19 336 q 7 360 7 341 q 7 387 7 373 q 10 413 7 400 q 20 436 13 426 q 43 450 28 446 q 64 456 49 453 q 84 461 79 459 q 96 557 90 510 q 106 638 102 603 q 112 690 110 672 q 115 700 115 708 q 121 714 116 703 q 156 734 126 726 q 212 749 183 741 q 285 767 242 758 q 388 787 328 777 q 536 808 448 797 q 556 807 545 808 q 572 795 566 806 q 575 748 575 771 q 572 692 575 721 q 567 633 569 663 q 562 607 566 619 q 542 593 558 595 l 282 538 q 267 525 267 536 q 267 505 267 515 l 424 523 q 439 519 428 523 q 449 491 449 514 q 450 469 449 481 q 449 444 451 456 q 444 428 448 435 q 431 419 440 421 q 352 396 395 403 q 270 382 310 390 q 266 367 264 377 q 267 355 267 358 l 403 378 q 415 374 410 376 q 422 360 420 373 q 425 333 425 347 q 422 306 426 318 q 403 281 417 285 l 270 248 q 269 229 270 236 q 270 209 267 221 l 271 209 q 299 215 281 209 q 348 236 316 221 q 432 275 381 251 q 559 338 483 300 q 575 344 566 341 q 593 348 584 347 q 609 345 602 348 q 622 332 617 341 q 631 252 627 292 q 634 171 634 212 q 633 154 634 168 q 611 130 631 140 l 306 8 l 306 8 z "},"#":{"ha":635,"x_min":6,"x_max":630,"o":"m 34 244 q 19 243 28 242 q 10 253 9 244 q 8 263 9 255 q 6 282 7 272 q 6 303 6 293 q 8 318 6 313 q 17 325 10 324 q 29 328 23 326 l 120 347 l 122 348 q 122 367 120 358 q 123 387 123 377 l 27 375 l 23 375 q 13 380 15 375 q 12 391 12 384 q 13 421 12 407 q 17 451 14 435 q 31 465 21 462 l 139 492 q 141 517 139 501 q 146 550 144 532 q 152 583 149 567 q 157 609 155 598 q 164 616 160 615 q 174 619 169 618 l 310 638 q 319 619 325 638 l 288 523 l 288 521 q 329 529 308 525 q 370 542 351 532 q 373 554 370 545 q 379 573 376 563 q 385 593 382 583 q 389 605 388 602 q 394 620 392 615 q 398 627 395 625 q 406 630 400 630 q 421 631 411 631 q 484 635 451 631 q 549 640 517 640 q 561 637 554 640 q 567 625 567 634 l 545 569 q 583 575 569 573 q 602 578 596 576 q 611 579 609 579 q 612 579 612 579 q 622 577 615 579 q 630 563 630 575 q 629 553 630 559 q 626 536 628 547 q 618 504 624 524 q 602 450 612 484 q 587 436 598 438 q 567 433 576 434 q 526 429 547 433 q 485 424 505 425 q 481 411 483 419 q 476 399 479 403 q 516 401 495 399 q 560 403 536 403 q 575 375 587 403 l 546 287 q 539 275 544 281 q 528 270 534 270 l 438 267 l 418 191 q 407 179 414 182 q 398 175 399 176 q 360 175 378 175 q 325 179 341 176 q 319 186 324 181 q 314 205 314 192 q 317 237 314 223 q 319 270 319 251 q 274 268 296 270 q 229 264 252 266 l 228 263 l 215 192 q 206 174 213 176 q 190 172 199 172 q 148 172 162 170 q 126 178 133 174 q 117 188 120 178 q 115 203 115 197 l 115 253 l 34 244 m 344 414 q 326 414 339 414 q 298 413 313 414 q 270 410 284 412 q 253 404 257 409 q 247 369 248 390 l 337 382 q 341 398 338 388 q 344 414 344 407 z "},"/":{"ha":628,"x_min":5,"x_max":626,"o":"m 7 -64 q 127 241 78 115 q 211 455 177 368 q 264 595 244 543 q 296 678 285 648 q 311 722 307 708 q 319 742 316 735 q 325 755 322 747 q 332 770 328 763 q 345 785 337 778 q 366 794 353 792 q 487 817 442 809 q 555 828 531 824 q 588 832 579 831 q 602 833 597 833 q 620 826 613 834 q 617 801 626 817 q 459 530 525 648 q 346 322 392 411 q 270 172 300 234 q 222 72 240 111 q 194 12 204 32 q 179 -16 185 -9 q 163 -35 172 -32 q 149 -39 154 -38 q 87 -53 110 -46 q 50 -65 64 -60 q 30 -74 37 -71 q 17 -78 23 -78 q 9 -73 13 -78 q 7 -64 5 -69 z "},"¤":{"ha":696,"x_min":6,"x_max":693,"o":"m 421 133 q 367 106 396 115 q 309 97 339 97 q 175 140 237 97 q 157 129 170 137 q 130 113 145 122 q 103 96 116 104 q 86 84 90 88 q 71 78 80 81 q 57 82 63 74 q 42 101 51 90 q 25 124 34 112 q 12 149 17 137 q 6 172 6 162 q 6 181 6 178 q 10 189 7 184 q 46 227 27 208 q 86 262 66 245 l 86 265 q 76 308 80 284 q 72 359 72 332 q 78 419 72 389 q 97 476 83 449 l 19 553 q 11 569 9 561 q 19 588 13 578 q 57 652 36 619 q 108 729 78 685 q 139 742 120 749 q 170 718 157 735 q 178 708 172 715 q 189 691 183 700 q 202 673 196 682 q 212 660 208 664 q 330 715 267 715 q 463 653 395 715 l 532 711 q 557 718 542 719 q 581 708 572 718 q 636 638 610 672 q 685 558 662 603 q 687 529 693 543 q 668 502 681 515 q 622 467 640 481 q 589 442 603 453 q 564 421 575 431 q 541 400 552 412 q 531 329 544 360 q 508 279 517 299 q 519 251 510 267 q 539 218 528 235 q 561 183 550 200 q 579 152 572 166 q 583 120 589 131 q 579 106 578 109 q 556 87 567 97 q 535 65 544 76 q 517 55 529 59 q 497 57 505 51 q 483 71 491 61 q 465 93 475 81 q 444 115 455 104 q 424 133 434 126 l 421 133 m 341 397 q 309 378 321 399 q 297 333 297 356 q 301 311 297 321 q 313 299 304 302 q 330 300 322 295 q 345 316 339 306 q 356 340 352 326 q 360 366 360 353 q 355 387 360 378 q 341 397 351 395 z "},"×":{"ha":506,"x_min":6,"x_max":500,"o":"m 83 159 q 88 181 83 171 l 152 337 l 65 421 q 61 425 64 422 q 57 428 58 427 q 24 459 42 441 q 6 500 6 477 l 6 508 l 27 551 l 86 635 l 124 676 q 127 674 125 676 q 131 671 130 672 l 155 633 l 157 631 l 226 546 q 237 532 233 541 q 249 517 242 523 l 339 669 q 348 683 341 674 q 362 692 355 692 q 370 691 368 692 q 375 686 372 690 l 487 572 l 500 554 l 500 551 q 498 538 500 542 q 492 530 497 536 q 483 519 488 524 q 474 507 478 513 q 469 500 470 501 l 466 498 q 464 495 465 497 q 462 492 463 493 q 420 444 439 465 q 382 396 402 422 q 377 389 380 394 q 372 382 374 385 l 365 373 l 365 367 q 371 357 367 365 q 377 347 375 350 q 378 345 377 346 q 380 344 380 345 q 388 332 382 340 q 402 313 395 323 q 415 295 409 303 q 424 282 421 286 q 432 270 427 278 q 441 253 436 262 q 448 239 446 245 q 451 231 451 233 l 451 219 q 446 207 451 216 q 436 193 440 198 q 427 183 435 191 q 416 172 419 175 q 397 156 409 166 q 374 147 385 147 l 367 147 q 351 158 363 149 q 336 170 338 167 q 322 183 332 174 q 300 202 311 192 q 278 221 288 212 q 264 234 267 230 l 259 231 l 181 113 q 174 104 179 109 q 168 98 169 98 l 162 98 q 155 102 162 98 q 138 112 147 106 q 118 124 128 118 q 101 134 108 131 q 89 144 95 138 q 83 159 83 149 z "},"+":{"ha":538,"x_min":6,"x_max":537,"o":"m 146 191 q 147 245 146 218 q 149 306 148 273 q 94 303 122 306 q 38 300 66 300 q 32 299 37 300 q 21 301 27 299 q 10 310 15 303 q 6 329 6 316 l 24 429 q 34 446 27 439 q 51 456 41 454 l 175 476 l 190 603 q 196 615 190 613 q 209 618 201 616 q 305 635 255 627 q 426 644 355 644 q 438 635 438 641 q 438 620 439 630 l 396 490 l 396 488 q 454 492 425 488 q 513 497 483 497 q 528 492 520 497 q 529 478 537 488 l 479 326 q 449 308 472 308 l 346 308 q 328 240 334 265 q 316 200 321 214 q 310 181 311 186 q 307 175 308 176 q 292 164 301 166 q 273 161 282 162 q 247 160 260 161 q 219 160 234 160 q 171 163 193 160 q 154 172 161 166 q 146 191 147 178 z "},"*":{"ha":488,"x_min":3,"x_max":484,"o":"m 109 707 q 90 709 96 705 q 82 715 84 713 q 71 727 79 719 q 57 745 63 736 q 54 757 51 753 q 66 770 57 760 q 115 815 97 799 q 141 839 132 831 q 152 848 149 846 q 154 852 154 851 l 153 853 l 17 926 q 6 943 3 932 q 19 963 9 954 l 20 965 l 63 1030 q 75 1038 67 1037 q 89 1035 82 1038 q 98 1029 95 1032 q 101 1025 102 1025 q 100 1027 101 1025 q 105 1024 100 1028 q 127 1007 111 1020 q 176 965 142 994 q 172 981 174 973 q 169 999 170 988 q 167 1026 168 1010 q 167 1066 167 1042 q 175 1080 167 1074 q 189 1088 183 1086 q 251 1105 219 1100 q 314 1110 282 1110 q 322 1108 316 1110 q 330 1096 328 1106 l 308 965 l 405 1053 q 418 1060 414 1061 q 431 1046 421 1059 q 447 1021 436 1037 q 476 978 458 1005 q 482 965 480 973 q 476 954 484 957 q 409 913 432 927 q 375 891 387 898 q 360 881 362 883 q 336 867 353 876 q 315 852 319 858 l 409 769 q 421 755 419 759 q 413 738 422 750 q 404 727 409 733 q 395 716 399 721 q 385 709 390 712 q 374 711 381 706 l 281 774 l 279 771 q 277 736 279 753 q 272 700 274 719 q 269 685 270 691 q 258 677 269 679 q 237 674 249 675 q 219 674 225 674 q 209 676 213 674 q 205 685 205 678 l 199 782 l 109 707 z "},"°":{"ha":231,"x_min":6,"x_max":228,"o":"m 6 704 q 16 751 6 726 q 43 798 25 777 q 86 834 61 819 q 141 848 111 848 q 197 825 174 848 q 225 769 221 802 q 216 713 228 741 q 183 664 204 685 q 137 628 163 642 q 87 615 111 615 q 50 623 65 615 q 25 644 35 631 q 10 672 15 656 q 6 704 6 688 m 131 748 q 108 747 119 755 q 90 726 97 740 q 82 700 83 713 q 87 683 80 686 q 113 682 100 676 q 135 700 126 688 q 144 726 144 712 q 131 748 145 740 z "},"⁄":{"ha":756,"x_min":5,"x_max":751,"o":"m 7 47 q 197 313 117 201 q 334 502 278 424 q 425 629 390 580 q 481 706 461 678 q 509 744 501 734 q 517 757 516 755 q 539 782 525 772 q 573 782 552 792 q 659 758 628 766 q 705 745 690 750 q 727 739 721 741 q 738 735 733 737 q 749 715 748 726 q 735 696 751 705 q 561 514 649 610 q 394 328 473 419 q 247 159 314 237 q 134 30 179 80 q 123 17 128 24 q 102 12 118 9 q 61 21 78 19 q 35 24 45 23 q 19 26 24 25 q 10 29 14 27 q 6 37 8 31 q 7 47 5 43 z "},"%":{"ha":757,"x_min":5,"x_max":751,"o":"m 112 444 q 61 464 81 449 q 30 500 42 479 q 13 546 17 521 q 8 596 8 571 q 17 675 8 640 q 29 700 21 691 q 47 719 37 709 q 102 758 78 744 q 161 787 126 772 q 197 792 175 795 q 244 770 225 785 q 276 735 264 755 q 294 692 288 715 q 300 646 300 668 q 296 612 300 627 q 274 552 291 582 q 232 498 257 522 q 177 459 207 475 q 112 444 146 444 m 163 632 q 127 619 140 633 q 110 585 115 604 q 108 549 105 566 q 119 531 110 532 q 141 536 130 529 q 161 553 152 543 q 176 577 170 564 q 182 603 182 590 q 163 632 182 624 m 116 8 q 70 14 88 12 q 41 19 52 16 q 22 24 29 22 q 12 29 15 27 q 8 34 10 30 q 10 50 5 37 q 25 71 7 44 q 76 150 43 98 q 157 272 110 201 q 262 423 205 343 q 385 589 319 503 q 519 757 450 675 q 528 767 523 762 q 541 777 534 773 q 557 784 547 781 q 583 782 567 786 q 656 766 627 773 q 701 752 684 758 q 726 742 718 747 q 740 735 734 737 q 751 720 751 728 q 736 696 751 712 q 560 510 649 605 q 392 327 471 414 q 250 166 313 240 q 154 45 188 91 q 146 32 150 39 q 136 20 141 25 q 126 10 131 14 q 116 8 120 7 m 520 1 q 469 21 488 6 q 437 57 449 36 q 420 102 425 78 q 416 153 416 127 q 425 231 416 197 q 436 257 428 248 q 455 275 444 266 q 509 315 485 301 q 568 344 534 329 q 604 348 582 352 q 652 326 632 341 q 683 292 671 311 q 701 248 696 272 q 707 203 707 225 q 704 169 707 184 q 681 109 698 139 q 639 55 664 79 q 584 16 615 31 q 520 1 553 1 m 571 189 q 535 175 547 190 q 517 142 522 161 q 515 106 513 123 q 527 88 517 89 q 548 93 537 86 q 568 110 559 100 q 583 134 578 120 q 589 160 589 147 q 571 189 589 181 z "},"‰":{"ha":931,"x_min":5,"x_max":925,"o":"m 32 575 q 34 612 32 593 q 39 650 35 631 q 50 688 43 670 q 69 719 57 705 q 126 760 100 744 q 188 791 153 775 q 236 777 215 791 q 271 743 257 764 q 292 696 285 722 q 299 642 299 669 q 284 568 299 602 q 259 523 274 546 q 222 481 243 500 q 177 451 201 462 q 124 443 152 440 q 84 461 101 448 q 56 493 67 475 q 39 533 45 512 q 32 575 34 554 m 185 646 q 163 645 174 650 q 144 628 152 639 q 130 602 135 617 q 125 576 125 588 q 129 558 125 566 q 144 549 133 551 q 166 552 155 546 q 185 568 177 558 q 198 591 193 579 q 203 616 203 604 q 198 634 203 626 q 185 646 194 642 m 659 162 q 660 198 659 179 q 665 237 661 218 q 676 274 669 257 q 696 306 683 292 q 752 347 726 331 q 814 377 779 362 q 862 364 841 377 q 897 330 883 351 q 918 282 911 309 q 925 229 925 256 q 910 155 925 189 q 885 110 900 133 q 848 68 869 87 q 803 38 828 49 q 750 30 778 27 q 710 48 727 35 q 682 80 693 61 q 666 120 671 98 q 659 162 660 141 m 811 233 q 789 231 800 237 q 770 215 778 226 q 756 189 762 204 q 751 163 751 175 q 755 145 751 153 q 770 135 759 138 q 792 139 781 133 q 811 155 803 145 q 824 178 819 166 q 829 203 829 191 q 825 221 829 213 q 811 233 821 229 m 378 154 q 380 190 378 171 q 385 229 381 209 q 396 266 389 249 q 416 297 403 284 q 472 339 446 323 q 534 369 499 354 q 582 356 561 369 q 617 322 603 343 q 638 274 631 301 q 645 221 645 248 q 630 147 645 181 q 605 102 620 125 q 568 60 589 79 q 523 30 547 41 q 470 22 498 19 q 430 40 447 27 q 402 72 413 53 q 385 112 391 90 q 378 154 380 133 m 531 225 q 509 223 520 229 q 490 207 498 218 q 476 181 481 196 q 471 155 471 167 q 475 137 471 145 q 490 127 479 130 q 512 131 501 125 q 531 147 523 137 q 544 170 539 157 q 549 194 549 183 q 545 213 549 205 q 531 225 541 221 m 7 47 q 197 313 117 201 q 334 502 278 424 q 425 629 390 580 q 481 706 461 678 q 509 744 501 734 q 517 757 516 755 q 539 782 525 772 q 573 782 552 792 q 659 758 628 766 q 705 745 690 750 q 727 739 721 741 q 738 735 733 737 q 749 715 748 726 q 735 696 751 705 q 561 514 649 610 q 394 328 473 419 q 247 159 314 237 q 134 30 179 80 q 123 17 128 24 q 102 12 118 9 q 61 21 78 19 q 35 24 45 23 q 19 26 24 25 q 10 29 14 27 q 6 37 8 31 q 7 47 5 43 z "},"ˇ":{"ha":440,"x_min":3,"x_max":434,"o":"m 262 818 q 204 821 240 818 q 140 823 169 823 q 109 840 117 823 l 12 985 q 6 996 9 987 q 16 1013 3 1005 q 84 1036 59 1028 q 124 1050 110 1045 q 144 1056 138 1054 q 153 1059 149 1058 q 171 1058 163 1059 q 182 1043 179 1058 l 221 934 l 288 1037 q 295 1045 291 1041 q 307 1046 299 1049 q 369 1026 340 1038 q 428 998 398 1014 q 433 986 434 993 q 426 975 432 979 l 287 828 q 277 821 284 825 q 262 818 271 816 z "},"'":{"ha":238,"x_min":5,"x_max":237,"o":"m 74 1157 q 155 1095 125 1119 q 200 1057 184 1071 q 220 1039 215 1044 q 228 1034 226 1035 q 226 1005 237 1021 q 163 898 193 949 q 84 813 132 847 q 81 807 84 810 q 68 809 78 804 q 41 829 58 815 q 14 853 23 843 q 6 865 5 861 q 9 878 7 868 q 29 975 21 928 q 42 1060 37 1022 q 49 1123 46 1097 q 52 1155 51 1148 q 74 1157 58 1170 z "},"\"":{"ha":453,"x_min":5,"x_max":451,"o":"m 43 1162 q 126 1111 95 1131 q 172 1080 156 1091 q 194 1065 189 1069 q 200 1059 199 1060 q 207 1045 206 1053 q 201 1029 207 1037 q 152 909 176 966 q 87 807 128 851 q 83 802 86 806 q 71 801 80 797 q 43 817 60 806 q 14 837 25 828 q 6 848 5 844 q 8 862 7 853 q 17 966 14 916 q 21 1056 20 1016 q 22 1122 22 1096 q 23 1155 22 1148 q 29 1167 24 1166 q 43 1162 34 1168 m 288 1140 q 369 1078 339 1102 q 414 1040 398 1053 q 435 1022 429 1027 q 442 1016 440 1017 q 440 987 451 1003 q 377 881 407 932 q 299 795 346 830 q 295 790 299 793 q 282 792 292 787 q 255 811 272 797 q 228 836 237 825 q 220 847 219 844 q 223 861 221 851 q 243 958 235 911 q 256 1042 251 1005 q 263 1105 260 1080 q 266 1138 265 1131 q 288 1140 272 1153 z "},"˝":{"ha":531,"x_min":5,"x_max":530,"o":"m 126 1135 q 203 1096 175 1111 q 246 1072 231 1081 q 265 1061 260 1064 q 272 1057 270 1058 q 265 1034 281 1047 q 181 940 221 985 q 83 862 140 896 q 78 858 82 861 q 65 858 74 855 q 38 870 54 861 q 13 885 22 878 q 6 894 5 891 q 12 905 8 897 q 48 985 32 947 q 75 1054 64 1023 q 94 1105 87 1084 q 103 1131 101 1125 q 112 1139 108 1139 q 126 1135 117 1140 m 387 1119 q 458 1071 432 1089 q 499 1042 485 1052 q 517 1028 513 1031 q 522 1023 521 1024 q 513 1001 530 1013 q 418 919 464 958 q 311 853 372 880 q 306 850 310 852 q 293 851 302 847 q 269 866 284 855 q 244 884 253 876 q 239 893 237 890 q 245 904 241 896 q 292 979 271 942 q 327 1044 313 1015 q 351 1093 341 1073 q 363 1117 360 1112 q 387 1119 373 1128 z "},"&":{"ha":615,"x_min":6,"x_max":609,"o":"m 417 406 q 463 374 439 394 q 509 334 487 355 q 548 293 531 313 q 571 260 565 273 l 535 197 q 539 194 536 197 q 550 187 543 192 q 572 174 558 182 q 609 153 586 166 q 584 107 605 133 q 536 58 564 81 q 479 19 508 35 q 427 1 449 2 l 373 58 q 296 2 339 20 q 209 -16 253 -16 q 134 -3 170 -16 q 69 36 97 10 q 23 100 41 63 q 6 185 6 138 q 10 224 6 199 q 28 279 15 249 q 66 342 42 309 q 128 405 90 375 q 82 478 97 447 q 60 531 66 509 q 54 566 53 553 q 54 583 54 579 q 76 649 54 611 q 130 723 98 688 q 198 782 162 758 q 263 807 234 807 q 329 792 297 811 q 385 742 361 773 q 424 675 410 712 q 439 605 439 638 q 409 488 439 541 q 331 391 378 435 q 338 373 331 384 q 355 350 345 361 q 374 332 365 339 q 388 324 383 324 q 407 363 399 344 q 417 406 414 383 m 227 265 q 208 247 214 259 q 201 220 201 234 q 212 185 201 200 q 243 169 223 169 q 278 181 258 169 q 272 197 278 185 q 258 223 266 209 q 241 249 250 237 q 227 265 233 260 m 245 583 q 227 572 233 582 q 222 547 222 561 q 230 514 222 530 q 251 492 237 498 q 267 514 260 498 q 273 547 273 530 q 267 573 273 563 q 245 583 260 584 z "},"®":{"ha":461,"x_min":6,"x_max":455,"o":"m 122 170 q 53 251 80 206 q 25 351 25 295 q 25 370 25 356 q 28 391 25 383 l 49 469 l 90 552 q 106 575 96 561 q 123 595 117 588 q 172 641 146 620 q 235 661 198 661 q 244 661 237 661 q 256 660 251 662 l 316 631 q 326 624 318 630 q 337 617 333 619 q 348 606 340 613 q 365 590 356 598 q 382 574 374 581 q 392 565 390 567 q 405 550 396 561 q 416 535 413 539 q 420 528 417 534 q 427 515 424 522 q 434 502 431 508 q 439 493 438 495 q 444 477 440 490 q 451 459 449 464 q 453 451 451 457 q 455 442 455 444 q 453 428 455 440 q 451 412 451 416 q 384 262 429 333 q 366 234 375 248 q 344 209 356 220 q 335 203 341 207 q 322 193 329 198 q 309 183 315 188 q 301 177 303 178 q 289 172 295 177 q 279 167 282 168 q 238 152 259 157 q 194 147 216 147 q 122 170 152 147 m 170 203 q 197 194 182 194 q 225 205 209 194 q 251 221 241 215 q 260 230 253 223 q 274 243 267 236 q 288 256 281 250 q 297 265 295 263 q 303 271 299 267 q 308 278 307 275 q 344 343 325 307 q 363 414 363 380 q 352 464 363 435 q 325 507 341 493 l 278 551 q 267 553 274 553 q 258 553 259 553 q 228 545 242 553 q 203 525 214 536 q 194 516 199 522 q 183 505 189 510 q 172 495 177 500 q 168 491 168 491 l 164 485 l 168 485 q 175 486 172 485 q 182 488 177 486 l 252 500 l 260 500 q 283 492 271 500 q 307 475 295 485 q 326 452 318 464 q 333 429 333 440 q 310 369 333 392 q 252 337 287 346 q 263 332 256 336 q 278 325 270 329 q 293 317 286 321 q 303 311 301 313 q 306 310 304 311 q 309 308 308 308 l 314 303 l 281 257 l 278 252 l 271 252 q 249 263 258 252 q 227 273 240 273 q 224 258 225 267 q 223 247 223 249 l 219 243 l 159 231 l 157 231 q 153 232 156 231 q 150 235 150 233 l 150 251 l 160 346 q 161 369 159 356 q 164 392 164 381 q 155 389 159 392 q 145 387 150 387 q 140 392 140 387 l 140 396 l 153 462 q 154 471 154 465 l 154 472 l 142 461 l 112 387 q 111 378 112 385 q 107 363 109 372 q 104 347 105 355 q 102 334 102 339 l 102 323 q 123 258 102 286 q 170 203 145 229 m 39 249 q 41 248 41 249 q 39 247 41 247 q 38 248 38 247 q 39 249 38 249 m 225 390 q 229 381 225 382 l 237 381 q 259 385 247 381 q 271 402 271 390 q 264 412 271 410 q 250 414 257 414 q 230 409 236 414 q 225 390 225 404 m 7 395 q 8 394 8 395 q 7 392 8 392 q 6 394 6 392 q 7 395 6 395 z "},"\\":{"ha":628,"x_min":2,"x_max":624,"o":"m 622 -64 q 620 -73 624 -69 q 611 -78 616 -78 q 598 -74 605 -78 q 578 -65 591 -71 q 542 -53 565 -60 q 479 -39 519 -46 q 465 -35 475 -38 q 449 -16 456 -32 q 434 12 443 -9 q 407 72 425 32 q 359 172 389 111 q 282 322 329 234 q 170 529 236 411 q 12 801 103 647 q 9 826 2 817 q 27 833 15 834 q 41 832 31 833 q 73 828 50 831 q 142 817 97 824 q 263 794 186 809 q 284 785 275 792 q 296 770 292 778 q 304 755 301 763 q 309 742 307 747 q 317 722 311 735 q 333 678 322 708 q 364 595 344 648 q 418 455 384 543 q 501 241 451 368 q 622 -64 551 115 z "},"`":{"ha":321,"x_min":2,"x_max":315,"o":"m 306 863 l 267 823 q 245 818 251 817 q 235 822 240 819 q 116 917 171 861 q 13 1036 61 972 q 8 1050 2 1042 q 21 1065 14 1059 q 54 1096 30 1074 q 132 1164 79 1118 q 137 1168 133 1166 q 146 1173 141 1171 q 157 1172 152 1175 q 168 1160 163 1170 l 315 887 l 306 863 z "},"_":{"ha":830,"x_min":7,"x_max":824,"o":"m 7 -110 q 8 -96 7 -101 q 21 -90 9 -91 q 108 -86 60 -88 q 209 -83 156 -84 q 320 -80 263 -81 q 435 -80 377 -80 q 638 -83 541 -80 q 810 -94 735 -86 q 818 -97 811 -94 q 824 -112 824 -100 q 821 -165 824 -139 q 817 -218 817 -191 q 814 -229 817 -222 q 799 -235 810 -235 q 737 -236 779 -235 q 609 -240 694 -237 q 385 -248 523 -242 q 36 -262 247 -253 q 25 -259 34 -262 q 14 -244 17 -257 q 12 -193 13 -218 q 9 -149 10 -172 q 7 -110 8 -126 z "},"^":{"ha":648,"x_min":6,"x_max":647,"o":"m 226 1194 q 314 1196 270 1194 q 407 1199 359 1198 q 429 1195 413 1198 q 454 1183 446 1192 l 633 917 q 641 892 647 906 q 622 870 634 878 q 582 853 605 861 q 535 839 559 845 q 492 828 512 832 q 465 823 472 824 q 457 821 463 823 q 442 821 450 819 q 427 826 434 822 q 416 841 420 831 l 338 1016 l 262 840 q 254 820 262 825 q 236 815 247 815 q 204 822 221 815 q 179 833 188 829 l 24 906 q 9 922 12 913 q 8 938 6 931 q 14 952 9 946 q 21 962 19 958 l 169 1167 q 176 1174 171 1169 q 188 1185 181 1179 q 204 1193 194 1190 q 226 1194 213 1196 z "},"|":{"ha":284,"x_min":6,"x_max":278,"o":"m 190 -152 q 183 -162 189 -157 q 172 -167 177 -167 q 162 -166 167 -167 q 147 -162 157 -164 q 117 -155 137 -160 q 64 -141 98 -149 q 52 -128 54 -139 q 46 -102 49 -118 q 28 143 36 27 q 15 359 20 259 q 8 541 10 459 q 6 682 6 623 q 12 803 6 778 q 19 830 15 821 q 43 839 22 839 q 56 839 47 839 q 86 834 65 838 q 144 821 106 830 q 243 795 181 811 q 264 784 257 792 q 274 768 271 777 q 277 751 277 759 q 278 738 278 743 q 274 681 275 703 q 272 642 273 660 q 269 604 271 624 q 264 551 267 584 q 255 465 260 517 q 240 331 249 413 q 219 131 231 249 q 190 -152 207 13 z "},"‹":{"ha":336,"x_min":2,"x_max":329,"o":"m 185 116 q 162 111 175 105 q 141 125 149 116 q 86 203 110 161 q 45 281 61 244 q 19 344 28 318 q 8 374 9 370 q 14 411 2 389 q 33 439 20 421 q 71 483 46 457 q 133 546 95 509 q 226 630 170 582 q 244 637 236 635 q 260 630 251 639 q 264 625 262 627 q 273 612 266 623 q 293 580 280 602 q 329 520 306 559 q 329 504 329 514 q 314 484 329 494 q 237 425 266 447 q 192 392 208 404 q 168 373 176 380 q 156 362 161 367 q 164 352 160 359 q 179 332 169 346 q 208 293 190 317 q 258 229 227 269 q 264 216 260 222 q 260 191 269 209 l 185 116 l 185 116 z "},"›":{"ha":336,"x_min":7,"x_max":333,"o":"m 75 191 q 71 216 66 209 q 78 229 75 222 q 127 293 109 269 q 156 332 146 317 q 171 352 167 346 q 179 362 176 359 q 167 373 175 367 q 144 392 160 380 q 98 425 127 404 q 22 484 69 447 q 7 504 7 494 q 7 520 7 514 q 42 580 29 559 q 63 612 56 602 q 72 625 69 623 q 75 630 74 627 q 92 637 84 639 q 110 630 100 635 q 203 546 166 582 q 265 483 241 509 q 303 439 289 457 q 322 411 316 421 q 328 374 333 389 q 317 344 326 370 q 291 281 308 318 q 250 203 274 244 q 194 125 226 161 q 174 111 186 116 q 150 116 161 105 l 75 191 z "},"«":{"ha":603,"x_min":2,"x_max":596,"o":"m 185 116 q 162 111 175 105 q 141 125 149 116 q 86 203 110 161 q 45 281 61 244 q 19 344 28 318 q 8 374 9 370 q 14 411 2 389 q 33 439 20 421 q 71 483 46 457 q 133 546 95 509 q 226 630 170 582 q 244 637 236 635 q 260 630 251 639 q 264 625 262 627 q 273 612 266 623 q 293 580 280 602 q 329 520 306 559 q 329 504 329 514 q 314 484 329 494 q 237 425 266 447 q 192 392 208 404 q 168 373 176 380 q 156 362 161 367 q 164 352 160 359 q 179 332 169 346 q 208 293 190 317 q 258 229 227 269 q 264 216 260 222 q 260 191 269 209 l 185 116 m 453 89 q 429 84 442 79 q 409 98 417 89 q 353 176 377 134 q 312 255 329 218 q 286 318 295 292 q 275 347 277 344 q 281 384 270 362 q 300 413 287 395 q 338 457 314 431 q 400 519 362 483 q 493 603 438 556 q 511 611 503 609 q 528 603 519 612 q 531 598 529 601 q 541 586 534 596 q 560 554 547 575 q 596 493 573 532 q 596 477 596 487 q 581 457 596 468 q 505 399 534 420 q 459 365 476 377 q 436 347 443 353 q 424 336 428 340 q 432 326 427 332 q 447 305 436 319 q 476 266 457 291 q 525 203 494 242 q 532 189 528 196 q 528 164 536 183 l 453 89 z "},"−":{"ha":373,"x_min":5,"x_max":367,"o":"m 7 428 q 10 442 7 436 q 25 447 13 447 q 101 448 63 448 q 179 449 140 449 q 258 448 219 449 q 338 442 297 447 q 357 437 351 442 q 363 417 363 432 q 365 373 363 395 q 367 330 367 352 q 367 311 367 321 q 365 293 367 302 q 357 274 361 279 q 337 266 353 270 q 277 259 315 262 q 196 255 238 256 q 113 253 154 253 q 46 253 73 253 q 12 252 20 252 q 29 250 5 251 q 13 254 16 251 q 8 267 9 257 q 6 293 6 279 q 6 323 6 307 q 7 381 6 353 q 7 428 8 410 z "},"•":{"ha":296,"x_min":5,"x_max":291,"o":"m 7 334 q 12 390 5 360 q 36 446 19 420 q 82 491 53 472 q 152 514 110 510 q 201 506 177 516 q 245 479 226 497 q 276 435 264 461 q 289 381 288 410 q 283 325 291 354 q 258 270 275 295 q 211 227 240 244 q 144 209 183 211 q 89 219 113 208 q 47 248 65 230 q 19 288 30 265 q 7 334 8 311 z "},"–":{"ha":446,"x_min":6,"x_max":440,"o":"m 8 425 q 12 438 8 433 q 30 443 16 443 q 128 446 79 444 q 229 447 177 447 q 325 445 278 447 q 420 439 372 443 q 429 434 422 439 q 436 414 436 429 q 438 373 436 394 q 440 332 440 352 q 439 305 440 318 q 433 278 438 292 q 415 267 431 267 q 387 267 399 267 q 240 264 301 267 q 138 257 179 260 q 72 251 96 253 q 34 250 47 249 q 16 254 20 251 q 9 267 12 257 q 6 321 6 289 q 8 378 6 350 q 8 425 9 407 z "},"—":{"ha":618,"x_min":6,"x_max":612,"o":"m 9 426 q 15 438 9 433 q 41 443 21 443 q 178 446 109 444 q 319 447 248 447 q 453 445 385 447 q 587 439 520 443 q 598 434 590 439 q 609 416 606 429 q 612 358 612 391 q 611 326 612 343 q 606 293 610 310 q 603 280 604 286 q 591 273 602 274 q 442 263 516 267 q 300 258 367 259 q 180 255 234 256 q 91 255 126 255 l 45 255 q 19 259 25 256 q 10 272 13 262 q 7 296 8 282 q 6 324 6 309 q 8 380 6 352 q 9 426 10 409 z "},"˜":{"ha":381,"x_min":6,"x_max":375,"o":"m 12 883 q 6 922 6 904 q 14 979 6 950 q 39 1030 23 1007 q 79 1068 56 1053 q 133 1082 103 1082 q 177 1073 157 1082 q 213 1054 196 1065 q 247 1035 230 1044 q 280 1023 263 1025 q 325 1031 300 1021 q 369 1078 350 1041 q 374 1058 373 1068 q 375 1037 375 1047 q 365 981 375 1009 q 336 932 354 954 q 292 896 317 910 q 235 881 266 882 q 200 888 220 881 q 160 903 181 895 q 117 919 139 912 q 76 926 96 926 q 41 917 57 926 q 13 881 24 907 l 12 883 l 12 883 z "},"ˆ":{"ha":478,"x_min":6,"x_max":475,"o":"m 8 946 q 93 1031 53 998 q 164 1084 133 1065 q 214 1113 194 1104 q 240 1125 234 1122 q 300 1091 271 1111 q 356 1046 329 1071 q 410 995 383 1022 q 463 942 436 969 q 472 925 469 935 q 465 907 475 914 q 461 903 464 906 q 447 891 457 899 q 419 867 438 883 q 369 826 400 852 q 362 825 365 826 q 354 826 360 824 q 292 902 315 874 q 255 946 269 931 q 236 968 242 962 q 225 978 230 975 q 188 947 212 976 q 112 856 164 918 q 106 853 110 854 q 91 858 103 852 l 10 926 q 7 936 8 929 q 8 946 6 942 z "},"‘":{"ha":238,"x_min":1,"x_max":234,"o":"m 164 813 q 84 875 113 851 q 39 913 54 899 q 17 931 23 926 q 10 936 12 935 q 13 965 1 949 q 76 1072 45 1021 q 154 1157 106 1123 q 157 1163 154 1160 q 170 1161 161 1166 q 198 1141 181 1155 q 225 1117 215 1127 q 233 1105 234 1109 q 229 1091 231 1102 q 209 995 218 1042 q 197 910 201 948 q 190 847 192 873 q 186 815 188 822 q 164 813 181 800 z "},"’":{"ha":236,"x_min":0,"x_max":233,"o":"m 69 1157 q 150 1095 120 1119 q 195 1057 179 1071 q 216 1039 211 1044 q 223 1034 221 1035 q 221 1005 233 1021 q 158 898 189 949 q 80 813 127 847 q 76 807 80 810 q 64 809 73 804 q 36 829 53 815 q 9 853 19 843 q 1 865 0 861 q 5 878 2 868 q 24 975 16 928 q 37 1060 32 1022 q 44 1123 42 1097 q 47 1155 46 1148 q 69 1157 53 1170 z "},"„":{"ha":471,"x_min":5,"x_max":470,"o":"m 74 215 q 155 153 125 177 q 200 115 184 128 q 220 97 215 102 q 228 91 226 93 q 226 63 237 79 q 163 -44 193 7 q 84 -130 132 -95 q 81 -135 84 -132 q 68 -133 78 -138 q 41 -113 58 -127 q 14 -89 23 -100 q 6 -78 5 -81 q 9 -64 7 -74 q 29 33 21 -14 q 42 117 37 80 q 49 181 46 155 q 52 213 51 206 q 74 215 58 228 m 307 197 q 387 134 358 159 q 432 97 417 110 q 453 79 448 83 q 461 73 458 74 q 458 44 470 60 q 395 -62 426 -12 q 317 -148 365 -113 q 314 -153 317 -150 q 301 -152 310 -156 q 273 -132 291 -146 q 247 -108 256 -118 q 238 -96 237 -100 q 242 -82 240 -93 q 262 14 253 -32 q 274 99 270 61 q 281 162 279 137 q 285 194 284 188 q 307 197 291 209 z "},"”":{"ha":458,"x_min":5,"x_max":457,"o":"m 74 1157 q 155 1095 125 1119 q 200 1057 184 1071 q 220 1039 215 1044 q 228 1034 226 1035 q 226 1005 237 1021 q 163 898 193 949 q 84 813 132 847 q 81 807 84 810 q 68 809 78 804 q 41 829 58 815 q 14 853 23 843 q 6 865 5 861 q 9 878 7 868 q 29 975 21 928 q 42 1060 37 1022 q 49 1123 46 1097 q 52 1155 51 1148 q 74 1157 58 1170 m 294 1150 q 374 1088 345 1112 q 420 1050 404 1064 q 440 1032 435 1037 q 448 1027 446 1028 q 446 998 457 1014 q 383 891 413 942 q 304 806 352 840 q 301 800 304 803 q 288 802 297 797 q 260 822 278 808 q 234 846 243 836 q 226 858 225 854 q 229 872 227 861 q 249 968 241 921 q 262 1053 257 1015 q 269 1116 266 1090 q 272 1148 271 1141 q 294 1150 278 1163 z "},"“":{"ha":447,"x_min":1,"x_max":442,"o":"m 164 813 q 84 875 113 851 q 39 913 54 899 q 17 931 23 926 q 10 936 12 935 q 13 965 1 949 q 76 1072 45 1021 q 154 1157 106 1123 q 157 1163 154 1160 q 170 1161 161 1166 q 198 1141 181 1155 q 225 1117 215 1127 q 233 1105 234 1109 q 229 1091 231 1102 q 209 995 218 1042 q 197 910 201 948 q 190 847 192 873 q 186 815 188 822 q 164 813 181 800 m 373 793 q 292 855 322 831 q 247 893 263 880 q 226 911 231 906 q 219 917 220 916 q 221 946 209 929 q 284 1052 253 1001 q 362 1138 315 1103 q 366 1143 362 1140 q 378 1141 369 1146 q 406 1122 389 1135 q 433 1097 424 1108 q 441 1086 442 1089 q 438 1072 440 1082 q 418 975 426 1022 q 405 891 410 928 q 398 828 400 853 q 395 795 396 802 q 373 793 389 780 z "},"‚":{"ha":238,"x_min":5,"x_max":237,"o":"m 74 215 q 155 153 125 177 q 200 115 184 128 q 220 97 215 102 q 228 91 226 93 q 226 63 237 79 q 163 -44 193 7 q 84 -130 132 -95 q 81 -135 84 -132 q 68 -133 78 -138 q 41 -113 58 -127 q 14 -89 23 -100 q 6 -78 5 -81 q 9 -64 7 -74 q 29 33 21 -14 q 42 117 37 80 q 49 181 46 155 q 52 213 51 206 q 74 215 58 228 z "},"…":{"ha":727,"x_min":6,"x_max":721,"o":"m 88 0 q 27 33 47 0 q 6 108 6 66 q 13 155 6 132 q 27 187 17 170 q 51 219 37 204 q 84 244 65 234 q 126 256 103 253 q 160 249 145 257 q 188 229 176 242 q 205 199 199 216 q 212 163 212 182 q 204 109 212 138 q 180 56 196 80 q 141 16 164 31 q 88 0 118 0 m 597 -3 q 536 30 557 -3 q 515 104 515 63 q 522 152 515 128 q 536 183 527 167 q 560 215 546 200 q 593 240 574 230 q 635 252 612 250 q 670 246 654 253 q 697 226 685 238 q 715 196 708 213 q 721 160 721 178 q 713 105 721 134 q 689 52 705 76 q 650 12 674 28 q 597 -3 627 -3 m 341 -1 q 280 32 301 -1 q 259 106 259 65 q 266 154 259 131 q 281 186 271 169 q 304 218 291 203 q 337 242 318 233 q 380 255 356 252 q 414 248 398 256 q 441 228 429 241 q 459 198 453 215 q 465 162 465 181 q 457 108 465 137 q 433 54 449 79 q 395 14 418 30 q 341 -1 372 -1 z "},"±":{"ha":538,"x_min":6,"x_max":537,"o":"m 60 178 q 63 192 60 186 q 79 197 66 197 q 155 198 116 198 q 233 199 193 199 q 311 198 272 199 q 391 192 351 197 q 410 187 404 192 q 417 167 417 182 q 418 123 417 145 q 420 80 420 102 q 420 61 420 71 q 418 43 420 52 q 410 24 414 29 q 390 16 406 20 q 329 9 367 12 q 249 5 292 6 q 167 3 207 3 q 100 3 126 3 q 65 2 73 2 q 82 0 58 1 q 66 4 69 1 q 61 17 63 7 q 59 43 59 29 q 59 73 59 57 q 60 131 59 103 q 60 178 61 160 m 146 271 q 147 325 146 297 q 149 385 148 353 q 94 383 122 385 q 38 380 66 380 q 32 379 37 380 q 21 381 27 378 q 10 389 15 383 q 6 409 6 396 l 24 509 q 34 526 27 519 q 51 536 41 534 l 175 556 l 190 683 q 196 694 190 693 q 209 698 201 696 q 305 715 255 707 q 426 723 355 723 q 438 715 438 721 q 438 700 439 709 l 396 569 l 396 568 q 454 572 425 568 q 513 576 483 576 q 528 572 520 576 q 529 558 537 568 l 479 406 q 449 388 472 388 l 346 388 q 328 319 334 345 q 316 280 321 294 q 310 261 311 266 q 307 255 308 256 q 292 244 301 245 q 273 241 282 242 q 247 240 260 241 q 219 240 234 240 q 171 243 193 240 q 154 252 161 245 q 146 271 147 258 z "},"¦":{"ha":179,"x_min":6,"x_max":174,"o":"m 155 781 q 171 762 171 781 q 173 719 172 740 q 174 676 174 698 q 171 557 174 617 q 168 427 169 497 q 161 416 166 418 q 146 413 157 413 q 86 416 116 413 q 25 417 56 418 q 20 424 22 419 q 17 447 19 429 q 16 483 16 459 q 14 542 15 506 q 13 628 14 578 q 12 749 13 679 q 14 763 12 756 q 29 778 16 770 q 57 778 41 778 q 92 780 74 779 q 127 781 110 780 q 155 781 144 781 m 149 336 q 166 316 166 336 q 167 273 167 294 q 168 230 168 252 q 166 111 168 171 q 162 -19 163 51 q 156 -30 160 -28 q 140 -32 152 -32 q 80 -30 110 -32 q 20 -29 50 -28 q 14 -21 16 -27 q 12 1 13 -16 q 10 37 10 14 q 9 96 9 60 q 8 183 8 132 q 6 303 7 234 q 8 317 6 310 q 23 332 10 324 q 52 333 35 332 q 86 334 68 333 q 121 335 104 334 q 149 336 138 336 z "},"´":{"ha":272,"x_min":5,"x_max":270,"o":"m 149 1163 q 210 1082 188 1112 q 244 1034 233 1051 q 259 1010 256 1016 q 265 1002 263 1003 q 255 975 270 988 q 210 931 231 953 q 166 889 189 909 q 119 854 144 870 q 67 828 95 838 q 63 824 67 825 q 51 829 58 823 q 29 855 42 838 q 10 885 16 873 q 6 899 5 896 q 13 912 8 902 q 57 999 37 956 q 91 1078 76 1043 q 116 1137 106 1112 q 127 1167 125 1161 q 149 1163 138 1179 z "},"¨":{"ha":449,"x_min":6,"x_max":443,"o":"m 88 821 q 27 854 47 821 q 6 928 6 887 q 13 976 6 953 q 27 1008 17 991 q 51 1039 37 1024 q 84 1064 65 1054 q 126 1076 103 1074 q 160 1070 145 1078 q 188 1050 176 1063 q 205 1020 199 1037 q 212 984 212 1002 q 204 929 212 958 q 180 876 196 900 q 141 836 164 852 q 88 821 118 821 m 319 813 q 258 845 279 813 q 237 920 237 878 q 244 968 237 944 q 259 999 249 983 q 282 1031 269 1016 q 315 1056 296 1046 q 358 1068 334 1066 q 392 1062 376 1069 q 419 1042 407 1054 q 437 1012 431 1029 q 443 976 443 994 q 435 921 443 950 q 411 868 427 892 q 373 828 396 844 q 319 813 350 813 z "},"¡":{"ha":270,"x_min":6,"x_max":265,"o":"m 6 738 q 24 796 6 774 q 79 817 43 817 q 112 807 97 817 q 137 782 127 797 q 151 749 146 767 q 156 714 156 730 q 152 686 156 700 q 138 659 147 671 q 117 639 130 647 q 90 632 105 632 q 55 642 71 632 q 28 667 39 652 q 12 702 17 683 q 6 738 6 721 m 37 551 q 98 560 67 557 q 157 568 130 563 q 177 569 169 571 q 188 554 185 568 q 188 545 188 551 q 192 522 189 539 q 200 471 194 505 q 216 378 206 438 l 263 119 q 256 103 265 110 q 242 94 248 96 q 139 47 176 65 q 84 21 103 30 q 60 10 66 13 q 46 8 53 8 q 32 8 37 6 q 25 13 28 9 q 23 20 23 16 q 22 24 22 24 q 10 135 13 71 q 7 269 7 200 q 8 347 7 308 q 10 420 9 385 q 13 481 12 454 q 17 527 15 509 q 21 545 20 541 q 37 551 22 549 z "},"·":{"ha":218,"x_min":6,"x_max":212,"o":"m 88 292 q 27 325 47 292 q 6 399 6 358 q 13 447 6 424 q 27 479 17 462 q 51 510 37 495 q 84 535 65 525 q 126 547 103 545 q 160 541 145 549 q 188 521 176 534 q 205 491 199 508 q 212 455 212 473 q 204 400 212 429 q 180 347 196 372 q 141 307 164 323 q 88 292 118 292 z "},"D":{"ha":637,"x_min":6,"x_max":631,"o":"m 27 741 q 114 766 64 753 q 216 787 164 778 q 318 802 269 796 q 402 809 367 808 q 422 809 411 809 q 446 806 434 809 q 468 796 457 803 q 484 772 478 788 l 618 505 q 631 444 631 477 q 620 391 631 416 q 579 300 606 350 q 517 202 551 251 q 450 106 484 153 q 388 22 416 59 q 363 4 380 9 q 329 5 346 -1 q 267 17 301 8 q 202 36 233 27 q 148 54 171 46 q 118 65 125 63 q 93 83 101 73 q 86 116 84 93 q 79 264 80 190 q 66 412 78 338 l 47 412 q 36 420 38 416 q 34 427 34 424 q 24 546 28 500 q 16 620 20 591 q 10 666 13 649 q 7 697 8 683 q 6 724 7 712 q 27 741 6 736 m 308 462 q 307 439 308 455 q 307 403 307 422 q 306 364 307 384 q 306 329 306 344 q 329 362 317 341 q 350 402 340 382 q 365 439 359 422 q 372 462 372 456 q 365 477 372 472 q 359 478 361 479 q 334 475 347 478 q 308 462 322 471 z "},"¿":{"ha":666,"x_min":6,"x_max":666,"o":"m 39 729 l 38 814 q 46 837 38 831 q 61 845 54 843 q 133 847 104 845 q 184 846 161 848 q 198 841 192 846 q 207 831 204 837 q 212 819 211 825 q 215 810 214 813 q 223 769 221 794 q 226 729 225 743 q 219 703 227 707 q 207 696 212 699 q 172 694 188 694 q 142 693 157 693 q 110 694 126 693 q 71 697 94 694 q 57 703 68 697 q 39 729 45 709 m 57 628 q 92 634 74 633 q 128 635 110 635 l 177 635 q 202 631 189 637 q 225 617 215 626 q 229 576 228 598 q 235 542 229 554 q 324 551 292 547 q 373 556 356 554 q 393 558 389 558 q 398 559 397 559 q 414 558 403 559 q 440 554 426 558 q 468 543 454 551 q 495 520 483 535 q 579 341 544 431 q 654 160 615 252 q 655 117 666 140 q 620 87 644 95 q 501 38 563 58 q 383 6 440 19 q 275 -11 325 -6 q 190 -16 225 -16 q 136 -7 160 -16 q 87 22 112 2 q 69 36 80 27 q 47 55 58 45 q 29 74 37 65 q 19 90 21 83 l 7 240 q 11 255 6 248 q 22 264 16 262 q 50 270 34 265 q 95 282 67 275 q 167 295 124 288 q 274 306 209 301 q 288 302 281 307 q 297 292 295 297 q 304 247 300 262 q 314 227 309 233 q 325 221 319 221 q 333 221 330 221 q 357 235 351 221 q 363 269 363 249 q 361 299 363 282 q 355 329 359 315 q 348 354 352 343 q 344 369 345 365 q 334 385 340 378 q 316 390 329 391 q 235 380 264 381 q 190 378 206 378 q 138 392 167 378 q 86 425 110 405 q 46 469 61 446 q 32 510 30 492 q 31 563 32 543 q 32 597 29 583 q 46 622 37 616 q 57 628 54 627 z "},"˙":{"ha":153,"x_min":5,"x_max":147,"o":"m 63 822 q 32 830 45 822 q 13 852 20 839 q 6 881 7 866 q 10 912 5 897 q 36 950 17 931 q 88 971 56 969 q 131 956 115 973 q 147 917 147 939 q 141 885 147 902 q 125 854 135 868 q 99 831 115 840 q 63 822 83 822 z "},"a":{"ha":664,"x_min":8,"x_max":657,"o":"m 15 170 q 8 198 8 177 l 244 764 q 260 785 250 777 q 285 791 270 793 l 541 684 q 557 670 550 679 q 566 652 564 661 l 657 23 q 657 12 657 17 q 648 6 656 7 q 637 8 646 6 q 602 16 628 10 q 526 30 576 21 q 391 56 476 39 q 380 63 385 57 q 374 75 375 69 l 363 166 l 361 166 q 341 161 358 166 q 307 151 325 157 q 273 138 288 145 q 255 127 257 132 l 222 6 q 215 0 220 0 q 203 3 209 0 q 191 10 197 6 q 182 16 185 14 l 15 170 m 352 485 q 336 441 343 469 q 317 380 329 413 q 341 381 329 380 q 361 389 353 383 q 359 437 361 410 q 352 485 358 464 z "},"b":{"ha":560,"x_min":6,"x_max":556,"o":"m 68 72 q 58 79 63 74 q 51 101 53 84 q 53 237 51 169 q 56 383 54 306 q 35 383 43 381 q 24 388 28 384 q 20 395 21 391 q 19 400 19 399 q 9 517 13 459 q 6 634 6 574 q 9 657 6 648 q 24 675 13 667 q 128 727 67 706 q 248 762 189 749 q 352 781 307 775 q 409 787 397 787 q 430 784 420 787 q 448 772 440 781 q 509 696 487 723 q 540 655 530 669 q 552 632 550 640 q 553 613 553 624 q 545 571 556 595 q 517 521 535 546 q 479 472 500 495 q 440 433 458 448 q 483 399 465 420 q 513 352 501 377 q 529 300 524 326 q 534 251 534 273 q 526 193 532 220 q 501 139 520 166 q 444 82 481 112 q 345 14 407 52 q 326 3 336 6 q 297 1 316 1 l 68 72 m 278 208 q 304 207 293 205 q 324 216 316 209 q 337 229 332 222 q 341 242 341 236 q 335 256 341 250 q 319 264 329 262 q 298 266 309 266 q 277 263 287 266 q 276 234 277 243 q 278 208 275 225 m 317 535 q 310 541 317 539 q 292 541 302 543 q 271 535 281 539 q 259 523 262 531 l 259 493 q 275 497 265 493 q 295 506 285 500 q 311 519 304 512 q 317 535 317 527 z "},"c":{"ha":571,"x_min":6,"x_max":571,"o":"m 538 407 q 501 392 523 402 q 453 372 478 382 q 402 352 427 361 q 355 339 376 343 q 326 336 337 330 q 313 361 315 343 q 308 381 310 367 q 303 409 307 395 q 295 435 300 424 q 282 446 289 446 q 266 436 273 447 q 252 409 258 426 q 243 369 247 391 q 240 324 240 346 q 245 275 240 297 q 264 244 251 253 q 292 255 286 244 q 301 277 297 265 q 308 289 306 285 q 324 295 310 294 q 352 285 333 293 q 394 266 370 277 q 441 242 417 256 q 487 216 465 229 q 505 201 500 211 q 502 175 509 191 q 479 138 495 157 q 443 101 463 119 q 403 68 424 83 q 369 45 383 53 q 304 13 337 24 q 234 1 271 1 q 182 6 207 1 q 141 36 157 10 q 55 179 86 112 q 13 306 24 245 q 6 345 6 323 q 14 399 6 372 q 74 524 35 461 q 162 642 113 587 q 264 738 211 697 q 369 800 318 780 q 403 808 384 808 q 436 801 419 808 q 466 778 451 794 q 497 725 481 763 q 528 620 512 686 q 564 444 544 553 q 538 407 571 417 z "},"d":{"ha":613,"x_min":9,"x_max":609,"o":"m 34 738 q 123 759 72 748 q 226 781 174 771 q 328 796 279 791 q 412 799 377 801 q 433 797 421 797 q 456 792 444 796 q 477 780 468 788 q 491 755 486 771 l 600 476 q 606 446 604 462 q 606 414 609 431 q 591 362 603 385 q 542 276 574 322 q 471 184 509 230 q 394 95 433 138 q 325 17 355 52 q 299 2 316 5 q 264 5 281 -1 q 204 23 236 10 q 141 49 171 36 q 89 72 111 61 q 60 84 67 82 q 37 105 44 94 q 32 139 30 116 q 40 286 35 213 q 41 435 45 360 l 22 438 q 11 446 13 442 q 10 454 9 450 q 12 568 12 527 q 12 634 12 610 q 11 670 12 657 q 10 697 10 683 q 12 724 12 712 q 34 738 13 736 m 287 462 q 284 439 286 455 q 280 405 282 424 q 275 365 278 385 q 272 330 273 345 q 297 360 284 341 q 322 398 311 378 q 341 434 333 418 q 350 456 350 450 q 349 465 351 462 q 345 471 347 469 q 339 473 341 473 q 314 473 328 475 q 287 462 301 471 z "},"e":{"ha":619,"x_min":12,"x_max":605,"o":"m 73 258 q 72 362 73 310 q 71 466 72 414 q 57 466 61 466 q 43 464 53 466 q 16 487 17 459 q 14 514 15 500 q 14 544 14 528 q 13 617 14 581 q 17 686 12 654 q 28 715 20 703 q 54 733 36 727 q 149 759 97 748 q 252 780 200 771 q 353 793 303 788 q 443 802 403 799 q 512 807 484 806 q 549 808 539 808 q 575 802 565 808 q 589 778 584 796 q 589 763 589 772 q 589 735 589 755 q 586 680 588 715 q 580 584 584 645 q 576 558 580 571 q 553 544 572 546 q 519 542 537 543 q 474 539 501 542 q 407 532 447 537 q 309 519 368 528 q 305 499 306 509 q 304 483 304 490 q 330 487 314 484 q 365 492 346 490 q 405 497 384 495 q 444 498 426 498 q 463 493 457 499 q 465 476 469 487 l 442 362 q 428 339 439 346 q 409 332 418 332 l 278 316 q 275 281 277 300 q 273 228 274 262 l 500 346 q 538 354 521 356 q 565 334 556 351 q 592 259 579 297 q 605 181 605 221 q 601 163 605 171 q 589 149 597 154 q 442 83 495 108 q 359 45 389 59 q 313 24 329 31 q 277 9 296 17 q 253 2 264 3 q 228 14 242 1 l 97 139 q 81 159 88 148 q 73 182 74 169 l 73 258 z "},"f":{"ha":624,"x_min":6,"x_max":633,"o":"m 356 506 q 352 486 353 497 q 350 463 352 476 q 367 464 355 463 q 395 465 380 464 q 425 468 410 466 q 453 470 440 469 q 486 459 479 472 q 486 424 492 447 l 458 304 q 452 284 456 295 q 425 269 448 272 q 402 266 418 267 q 369 264 387 265 q 337 263 352 264 q 315 263 322 263 l 291 29 q 280 9 289 17 q 257 6 271 0 q 247 9 253 7 q 223 18 240 12 q 177 37 207 24 q 94 73 146 50 q 82 79 88 76 q 72 87 76 81 q 66 106 68 94 q 65 146 64 119 q 65 250 65 198 q 66 360 66 302 q 66 419 66 389 q 65 481 66 449 q 47 481 56 481 q 31 483 39 481 q 7 508 10 485 q 6 544 6 523 q 7 589 6 565 q 10 635 8 612 q 14 677 12 659 q 43 713 14 704 q 315 773 179 747 q 593 808 450 800 q 626 752 633 808 l 583 560 q 570 534 579 541 q 544 524 561 527 q 461 517 493 520 q 409 512 428 514 q 377 508 389 509 q 356 506 366 507 z "},"g":{"ha":618,"x_min":6,"x_max":612,"o":"m 9 374 q 24 465 9 414 q 64 566 38 515 q 126 665 89 617 q 207 748 162 713 q 298 796 247 778 q 398 815 350 815 q 485 793 449 815 q 516 746 500 778 q 546 677 532 714 q 571 605 560 640 q 587 547 581 569 q 584 514 594 521 q 549 499 574 507 q 465 466 507 483 q 372 432 424 450 q 345 425 358 426 q 334 447 333 425 q 332 471 334 464 q 317 509 330 497 q 282 495 303 521 q 265 458 275 481 q 245 407 255 435 q 227 350 235 380 q 220 295 220 321 q 229 251 220 270 q 260 222 237 231 q 283 234 273 222 q 293 258 293 245 l 293 259 q 282 260 289 259 q 269 263 275 260 q 254 274 257 265 q 253 296 251 284 q 258 318 256 308 q 259 330 259 329 q 267 351 262 340 q 286 363 273 361 l 587 406 l 589 406 q 605 403 598 407 q 611 390 612 398 l 587 204 q 581 186 586 191 q 564 183 576 181 q 547 184 560 183 q 521 186 535 185 q 497 188 508 188 q 485 185 486 188 q 437 116 458 145 q 396 68 416 88 q 356 34 376 47 q 316 12 337 21 q 280 0 300 5 q 240 -5 260 -5 q 205 -1 222 -5 q 175 13 188 3 q 143 43 160 23 q 107 95 126 63 q 66 177 88 128 q 19 291 44 225 q 7 333 8 313 q 9 374 6 354 z "},"h":{"ha":688,"x_min":6,"x_max":685,"o":"m 574 41 q 569 11 574 17 q 537 10 564 5 q 446 30 494 19 q 358 54 398 41 q 341 64 348 58 q 336 86 334 69 q 340 145 337 105 q 353 260 344 185 l 280 252 l 249 44 q 237 17 248 20 q 221 15 226 14 q 140 36 172 28 q 86 51 108 45 q 52 61 65 57 q 27 69 38 65 q 8 90 9 76 q 7 126 6 104 q 15 236 8 166 q 31 393 22 306 q 49 578 39 480 q 65 771 58 676 q 102 795 65 807 l 328 727 q 355 712 346 723 q 355 670 365 700 l 323 513 l 325 513 q 343 515 332 514 q 363 517 353 516 q 380 520 373 519 q 389 522 388 521 q 406 653 399 604 q 417 728 412 701 q 423 766 421 755 q 427 784 425 777 q 433 800 428 792 q 461 803 438 808 q 544 775 512 787 q 597 756 576 764 q 630 744 618 749 q 652 736 642 740 q 675 724 666 731 q 679 693 685 716 l 574 41 l 574 41 z "},"i":{"ha":350,"x_min":5,"x_max":345,"o":"m 32 43 q 25 45 30 43 q 15 53 20 47 q 8 69 10 59 q 7 96 5 80 l 46 773 q 54 793 49 791 q 67 795 59 795 q 191 774 128 784 q 319 751 253 764 q 340 739 336 751 q 340 715 345 727 q 341 700 345 728 q 327 619 337 672 q 304 496 317 566 q 279 353 292 426 q 263 253 270 303 q 251 160 256 203 q 242 86 245 118 q 240 42 240 54 q 236 18 237 29 q 214 5 235 7 q 122 14 169 1 q 32 43 75 27 z "},"j":{"ha":803,"x_min":2,"x_max":800,"o":"m 286 5 q 225 25 260 12 q 150 58 189 38 q 75 102 111 78 q 14 156 39 126 q 6 176 2 168 q 17 191 10 184 q 112 275 64 240 q 203 337 161 310 q 224 344 212 345 q 242 334 236 344 q 258 315 249 326 q 275 292 266 303 q 292 274 284 281 q 309 266 301 266 q 319 271 315 263 q 326 297 323 280 q 330 338 329 315 q 332 385 332 361 q 330 440 332 414 q 324 485 329 466 q 311 484 319 485 q 286 480 303 483 q 241 473 270 477 q 166 463 212 469 q 159 462 163 463 q 150 464 155 462 q 142 472 146 466 q 135 488 138 477 l 100 684 q 100 704 97 691 q 124 721 103 716 q 408 781 264 757 q 712 804 552 804 q 740 804 726 804 q 769 803 753 803 q 792 796 784 803 q 796 773 800 789 q 793 749 795 765 q 787 708 791 734 q 778 642 784 682 q 764 547 772 603 q 759 519 764 525 q 748 510 755 513 q 726 510 743 510 q 690 510 709 510 q 653 509 670 510 q 630 507 635 508 q 626 433 628 473 q 621 355 624 394 q 615 283 618 316 q 606 231 611 250 q 589 190 604 209 q 564 160 574 170 q 541 140 554 152 q 501 111 527 128 q 438 69 476 94 q 341 10 399 45 q 328 3 338 8 q 286 5 317 -1 z "},"k":{"ha":639,"x_min":5,"x_max":646,"o":"m 520 758 q 542 771 528 770 q 558 758 556 773 l 640 524 q 644 510 641 522 q 632 492 646 499 l 356 326 q 400 315 374 322 q 457 301 427 309 q 516 284 486 293 q 567 267 545 275 q 593 243 593 259 q 583 207 593 233 q 571 168 579 191 q 555 120 564 145 q 536 71 546 95 q 516 29 527 46 q 510 17 514 23 q 501 7 507 10 q 486 4 494 3 q 466 12 477 5 l 241 120 l 231 54 q 223 35 230 39 q 203 36 215 31 q 123 53 168 41 q 42 74 79 65 q 27 78 35 76 q 14 82 20 79 q 7 93 9 86 q 7 116 5 100 q 13 264 10 190 q 20 416 16 338 q 27 576 23 493 q 38 753 31 660 q 40 779 39 769 q 45 796 41 789 q 57 805 49 802 q 82 808 65 808 q 138 804 103 808 q 211 796 172 801 q 285 784 249 791 q 345 770 322 777 q 358 765 352 767 q 369 758 365 763 q 374 743 373 752 q 370 719 375 734 l 343 608 l 520 758 z "},"l":{"ha":523,"x_min":16,"x_max":512,"o":"m 34 146 q 20 164 24 155 q 19 191 16 172 q 24 260 20 216 q 35 356 28 303 q 50 467 42 409 q 66 580 58 525 q 81 684 74 635 q 94 766 88 733 q 98 785 96 777 q 103 798 100 793 q 113 806 106 803 q 132 807 119 808 q 245 780 179 801 q 390 738 310 759 q 409 730 404 735 q 416 719 414 725 q 415 708 417 713 q 412 699 413 703 l 303 306 q 417 335 376 328 q 479 343 458 343 q 503 340 494 341 q 512 314 512 339 q 511 274 512 300 q 510 220 510 248 q 509 168 509 192 q 508 133 508 144 q 501 100 507 113 q 475 80 495 86 l 221 12 q 159 16 175 -10 q 113 58 144 23 q 34 146 82 94 z "},"m":{"ha":822,"x_min":6,"x_max":816,"o":"m 427 639 q 476 704 453 668 q 519 771 499 741 q 531 784 524 779 q 552 791 538 789 q 639 800 591 796 q 727 807 688 803 q 746 807 737 807 q 761 806 755 808 q 771 797 767 803 q 774 779 774 792 q 785 602 780 694 q 795 427 791 509 q 803 279 799 344 q 811 185 808 214 q 814 163 813 172 q 814 145 816 153 q 804 130 813 137 q 778 119 796 124 l 552 46 q 534 54 536 46 q 529 74 531 61 q 527 98 529 80 q 524 141 525 117 q 519 193 522 166 q 513 247 516 221 q 507 291 510 272 q 500 316 503 309 q 486 297 495 314 q 464 261 476 281 q 442 221 453 241 q 426 193 432 201 l 425 193 l 303 338 q 306 238 303 287 q 316 135 308 189 q 317 113 317 120 q 294 97 316 106 l 68 19 q 28 15 44 10 q 12 54 12 20 q 8 120 9 74 q 6 228 6 166 q 6 333 6 277 q 9 448 7 389 q 13 567 10 507 q 17 683 15 626 q 24 716 15 709 q 47 725 34 722 q 165 757 103 743 q 286 786 227 771 q 307 785 299 789 q 322 770 315 781 q 346 734 333 753 q 373 696 359 714 q 400 662 387 677 q 427 639 413 647 z "},"n":{"ha":648,"x_min":6,"x_max":642,"o":"m 251 0 q 105 33 157 20 q 37 51 53 46 q 12 62 19 56 q 6 87 6 68 q 12 271 9 172 q 19 461 15 369 q 26 628 22 553 q 36 744 30 704 q 57 769 39 767 q 88 757 75 770 q 182 679 140 716 q 258 610 225 641 q 313 557 291 579 q 347 529 336 536 q 345 599 348 558 q 339 679 343 640 q 330 748 334 719 q 325 784 326 778 q 327 800 322 795 q 341 805 332 804 q 362 804 351 806 q 381 801 374 802 q 428 789 399 796 q 490 773 457 782 q 554 751 522 763 q 611 725 586 738 q 626 717 619 721 q 637 705 633 713 q 641 683 640 697 q 640 647 642 669 q 634 582 638 625 q 623 484 630 538 q 611 369 617 429 q 598 254 604 309 q 586 155 591 199 q 578 87 580 110 q 575 67 576 78 q 568 48 573 56 q 553 38 563 41 q 528 44 544 35 q 459 118 498 80 q 384 189 420 156 q 318 245 347 222 q 278 273 288 267 q 270 232 272 264 q 267 163 267 200 q 269 90 267 126 q 272 38 270 54 q 270 10 273 22 q 251 0 266 -2 z "},"o":{"ha":615,"x_min":6,"x_max":609,"o":"m 161 16 q 109 63 137 31 q 59 137 82 94 q 21 233 36 179 q 7 345 6 286 q 24 445 7 397 q 64 535 41 493 q 113 608 88 576 q 156 659 139 640 q 201 703 174 677 q 259 751 228 728 q 324 791 291 774 q 387 807 358 807 q 439 795 414 808 q 489 752 464 782 q 541 672 514 721 q 600 552 567 623 q 609 507 609 537 q 595 423 609 470 q 564 332 582 376 q 525 250 545 287 q 494 197 506 213 q 468 159 485 183 q 427 108 450 134 q 373 56 403 81 q 310 16 344 31 q 229 -1 272 -1 q 192 3 209 -1 q 161 16 174 7 m 332 375 q 310 367 319 375 q 294 348 300 360 q 285 321 288 336 q 282 292 282 306 q 288 253 282 270 q 304 237 294 237 q 323 250 314 237 q 340 280 332 263 q 352 314 347 297 q 356 337 356 331 q 356 347 356 340 q 353 359 355 353 q 345 370 351 366 q 332 375 340 375 z "},"p":{"ha":609,"x_min":6,"x_max":603,"o":"m 391 97 q 390 84 391 91 q 381 73 389 76 l 163 -2 q 152 -2 155 -1 q 146 -2 148 -2 q 141 1 144 -1 q 133 9 139 3 q 117 130 124 84 q 105 212 110 176 q 95 283 100 248 q 86 373 90 318 q 71 366 80 368 q 58 363 63 365 q 43 366 46 361 q 36 375 41 370 q 14 502 21 438 q 6 632 8 566 q 11 655 6 648 q 32 670 16 662 q 120 718 75 693 q 211 762 166 742 q 301 794 257 781 q 385 807 345 807 q 447 795 418 806 q 502 759 477 785 q 550 688 528 733 q 593 575 573 644 q 600 551 597 563 q 603 527 603 539 q 593 484 603 506 q 538 408 558 435 q 508 367 519 381 q 494 348 498 353 q 487 339 491 344 q 472 323 480 330 q 449 316 463 316 q 400 316 427 314 q 350 321 373 318 l 391 97 m 328 447 q 344 446 330 442 q 375 458 359 450 q 403 478 391 466 q 411 500 414 490 q 399 505 409 505 q 377 503 390 506 q 348 494 363 500 q 322 478 333 487 l 328 447 z "},"q":{"ha":589,"x_min":6,"x_max":583,"o":"m 314 105 q 288 90 303 98 q 256 73 272 81 q 223 60 240 65 q 194 54 206 54 q 152 69 175 54 q 119 102 130 83 q 57 193 81 154 q 21 263 34 233 q 9 311 13 281 q 6 375 6 341 q 11 450 6 413 q 27 509 16 486 q 74 601 44 551 q 146 697 104 652 q 240 773 188 742 q 351 807 292 804 q 425 788 389 809 q 491 727 462 766 q 539 635 521 688 q 557 525 557 583 q 487 296 560 419 q 490 292 487 295 q 501 279 493 288 q 523 253 508 270 q 565 209 538 236 q 583 179 583 192 q 575 162 583 170 q 556 141 566 154 q 484 72 510 97 q 444 32 458 46 q 424 13 429 19 q 414 6 418 8 q 405 2 411 3 q 389 9 399 0 l 314 105 m 247 319 q 248 306 247 315 q 252 288 249 297 q 259 272 255 279 q 272 265 264 265 q 274 298 273 277 q 277 336 274 319 q 307 341 286 337 q 343 354 328 346 q 344 369 344 359 q 343 391 345 380 q 336 410 341 402 q 323 420 331 419 q 294 414 308 425 q 270 387 280 404 q 253 351 259 370 q 247 319 247 332 z "},"r":{"ha":650,"x_min":7,"x_max":645,"o":"m 601 179 q 615 152 610 166 q 603 125 619 138 q 587 114 596 122 q 558 94 578 106 q 509 60 539 81 q 428 8 478 39 q 412 2 422 2 q 391 23 402 1 q 370 64 382 41 q 344 111 358 87 q 317 159 331 135 q 289 204 302 183 q 285 193 286 208 q 285 156 285 178 q 288 112 286 134 q 291 79 289 89 q 285 57 292 65 q 270 49 279 50 q 234 39 255 43 q 190 32 213 36 q 145 26 168 29 q 104 21 123 23 q 88 20 94 17 q 79 28 82 22 q 76 41 76 34 q 75 56 75 49 q 73 83 74 68 q 73 117 73 98 q 74 190 73 150 q 76 266 75 229 q 79 332 78 302 q 81 376 81 362 l 78 375 q 69 372 75 374 q 54 366 64 369 q 38 369 45 363 q 30 389 31 375 q 14 542 19 487 q 7 623 9 597 q 8 645 7 632 q 25 663 9 657 q 71 693 37 674 q 153 734 105 713 q 260 774 201 755 q 382 801 319 793 q 396 803 388 802 q 416 803 405 803 q 464 799 436 803 q 519 781 492 794 q 571 743 546 767 q 611 679 595 719 q 638 598 631 631 q 645 543 645 565 q 639 510 645 522 q 628 490 634 499 q 594 435 612 459 q 557 385 575 410 q 514 355 537 360 q 502 353 509 354 q 487 351 495 352 q 473 351 479 351 q 463 351 466 351 l 601 179 m 291 417 q 325 423 304 417 q 363 439 345 429 q 395 461 382 449 q 409 484 409 472 q 399 499 409 494 q 375 505 390 505 q 331 497 355 505 q 291 472 307 488 l 291 417 z "},"s":{"ha":642,"x_min":5,"x_max":637,"o":"m 309 547 q 280 534 292 549 q 260 497 267 519 q 252 451 253 475 q 257 413 251 427 q 318 415 289 413 q 379 419 347 417 q 449 423 411 421 q 538 425 487 425 q 578 415 557 426 q 604 383 598 404 q 617 343 612 367 q 623 289 623 318 q 612 217 623 255 q 573 148 601 179 q 420 33 507 71 q 244 -5 332 -5 q 138 10 189 -5 q 47 53 88 24 q 27 75 34 66 q 36 102 20 84 q 47 114 41 106 q 67 136 53 122 q 102 175 80 150 q 161 240 125 199 q 183 252 174 252 q 208 240 192 251 q 258 217 234 226 q 313 208 282 208 q 398 228 356 208 q 464 284 439 248 q 440 286 453 286 q 414 286 427 286 q 266 276 347 286 q 106 264 185 266 q 75 269 87 264 q 56 293 63 273 q 34 359 43 324 q 20 432 25 395 q 12 506 15 469 q 7 579 9 544 q 15 626 5 600 q 43 669 25 653 q 115 724 72 698 q 208 769 157 750 q 315 798 259 787 q 427 809 372 809 q 544 795 488 809 q 610 755 584 782 q 635 672 635 727 q 636 668 635 670 q 635 650 637 666 q 631 601 634 635 q 619 502 627 567 q 613 483 617 490 q 583 473 609 476 l 347 451 q 329 455 334 449 q 325 481 323 461 q 326 495 325 485 q 326 517 328 506 q 322 538 325 529 q 309 547 318 546 z "},"t":{"ha":753,"x_min":3,"x_max":743,"o":"m 31 660 q 120 693 68 676 q 229 727 171 711 q 349 758 287 743 q 471 783 411 772 q 586 800 531 794 q 683 807 640 807 q 709 800 701 807 q 716 774 716 793 q 730 658 725 715 q 741 541 735 601 q 742 517 743 527 q 725 503 742 507 l 579 463 q 577 436 578 450 q 576 407 576 422 q 583 292 576 360 q 603 116 589 225 q 605 94 605 106 q 597 80 605 82 l 340 10 q 317 5 324 2 q 306 16 309 7 q 301 36 302 24 q 299 61 300 49 q 287 219 289 140 q 280 378 285 299 l 111 318 q 84 317 89 310 q 75 333 79 324 q 65 366 71 345 q 51 420 59 387 q 32 501 43 453 q 9 615 22 549 q 9 642 3 627 q 31 660 14 656 z "},"u":{"ha":727,"x_min":6,"x_max":721,"o":"m 289 777 q 307 783 299 780 q 322 786 316 786 q 333 782 329 786 q 337 766 337 778 q 335 672 336 719 q 334 579 334 625 q 339 380 334 471 q 353 235 343 289 q 369 224 359 229 q 396 229 380 219 q 390 407 396 318 q 384 588 384 497 q 388 692 384 640 q 392 719 387 708 q 413 731 397 729 l 698 807 q 719 800 718 809 q 720 786 721 792 q 703 663 712 730 q 685 522 693 595 q 672 374 677 449 q 667 229 667 299 q 668 164 667 196 q 672 104 670 133 q 670 83 674 89 q 649 74 667 76 q 604 64 630 71 q 550 50 578 58 q 498 33 523 42 q 456 17 473 24 q 435 14 442 9 q 425 30 428 20 q 421 50 422 39 q 419 68 420 60 q 405 57 414 65 q 384 40 396 50 q 359 21 372 30 q 336 6 346 12 q 312 3 322 0 q 288 10 302 6 q 170 59 211 42 q 110 93 130 76 q 96 123 102 109 q 84 157 90 138 q 72 203 79 176 q 56 270 65 229 q 8 634 15 451 q 8 660 6 649 q 29 679 10 670 l 289 777 l 289 777 z "},"v":{"ha":770,"x_min":3,"x_max":791,"o":"m 374 347 q 379 389 375 367 q 390 446 383 411 q 406 535 397 481 q 428 674 416 589 q 434 696 427 690 q 450 705 441 703 q 610 752 527 733 q 777 779 693 771 q 786 777 781 779 q 788 762 791 775 q 720 625 752 697 q 660 483 688 553 q 611 348 633 413 q 573 233 589 284 q 547 150 557 183 q 536 113 537 118 q 531 98 532 104 q 526 90 529 93 q 519 85 523 87 q 505 81 514 83 q 379 56 428 66 q 300 38 330 45 q 253 27 270 31 q 226 20 236 23 q 205 14 213 14 q 193 31 198 15 l 9 625 q 9 657 3 649 q 31 669 14 664 l 309 770 q 336 773 329 778 q 344 750 343 769 q 347 704 345 734 q 353 626 350 675 q 362 509 356 578 q 374 347 367 440 z "},"w":{"ha":760,"x_min":5,"x_max":755,"o":"m 7 644 q 8 672 5 664 q 30 690 12 681 q 68 705 42 694 q 133 729 95 715 q 218 762 171 743 q 315 801 264 780 q 333 800 328 807 q 336 779 338 794 q 329 730 333 764 q 321 652 325 697 q 314 554 317 608 q 311 447 311 501 q 311 419 311 433 q 313 391 311 405 q 334 439 322 410 q 353 483 346 468 q 370 505 362 505 q 388 486 378 505 q 417 444 402 469 q 447 404 433 420 q 442 545 444 475 q 435 684 439 615 q 436 704 429 697 q 466 718 443 712 q 597 756 550 742 q 670 778 645 771 q 707 787 696 785 q 729 789 719 789 q 745 789 736 789 q 755 774 755 788 q 745 729 750 764 q 736 645 741 694 q 725 535 730 595 q 716 412 720 475 q 709 291 712 350 q 707 184 707 231 q 705 167 707 172 q 693 159 703 162 q 599 117 633 132 q 547 95 565 103 q 525 86 530 88 q 516 83 520 84 q 500 78 508 75 q 487 88 492 81 q 442 135 464 111 q 395 181 420 159 q 376 128 382 150 q 365 91 370 106 q 360 75 361 79 q 343 65 359 71 q 328 59 336 61 q 304 51 321 57 q 256 35 287 45 q 171 6 225 24 q 154 3 162 0 q 146 14 146 6 q 119 112 134 57 q 89 229 104 168 q 58 353 73 291 q 32 471 44 416 q 14 572 21 527 q 7 644 7 617 z "},"x":{"ha":725,"x_min":1,"x_max":722,"o":"m 402 667 q 432 715 421 690 q 456 760 443 741 q 473 785 463 782 q 497 781 483 787 q 507 777 500 780 q 535 761 514 773 q 596 726 556 749 q 708 663 637 703 q 718 652 714 660 q 709 628 722 644 q 649 538 686 587 q 574 444 611 490 q 508 364 537 399 q 470 315 478 329 q 506 201 487 243 q 531 140 525 160 q 534 121 534 131 q 521 102 535 111 q 494 78 510 90 q 460 53 478 65 q 424 31 442 42 q 391 12 405 20 q 369 12 375 6 q 358 24 362 19 l 299 103 l 200 -6 q 186 -13 191 -14 q 169 -6 181 -12 l 31 87 q 8 106 15 98 q 14 130 1 113 q 107 247 72 203 q 160 314 142 291 q 184 346 178 338 q 189 356 190 354 q 143 450 167 397 q 99 550 119 502 q 65 633 79 598 q 50 674 51 668 q 46 690 45 684 q 49 699 46 696 q 56 704 52 703 q 59 705 59 705 q 60 705 59 705 q 67 708 60 706 q 90 716 74 711 q 139 733 106 722 q 223 760 171 743 q 351 802 274 777 q 361 801 353 802 q 370 787 368 800 l 402 667 l 402 667 z "},"y":{"ha":755,"x_min":-8,"x_max":751,"o":"m 181 57 q 166 65 169 60 q 168 87 163 69 q 175 117 171 98 q 185 165 179 135 q 197 236 191 194 q 212 336 204 278 l 1 605 q -5 621 -8 612 q 2 633 -2 630 q 82 690 50 668 q 141 729 113 712 q 194 763 168 747 q 258 801 221 779 q 272 805 263 803 q 286 794 281 807 l 382 601 l 483 785 q 493 793 487 793 q 506 792 499 794 q 516 786 509 791 q 546 765 523 781 q 613 716 568 749 q 736 625 657 683 q 748 611 744 619 q 742 593 751 602 l 483 288 q 488 160 483 223 q 494 27 494 96 q 491 9 497 14 q 466 6 485 3 q 400 12 443 5 q 308 28 356 19 q 222 46 250 39 q 181 57 194 52 z "},"z":{"ha":600,"x_min":6,"x_max":594,"o":"m 45 20 q 42 55 45 30 q 36 110 39 80 q 31 172 34 140 q 27 231 28 205 q 27 241 27 235 q 38 258 28 247 l 313 486 l 53 449 q 28 465 34 443 q 10 663 15 584 q 6 786 6 742 q 30 810 6 810 q 268 802 153 810 q 503 794 383 794 l 546 794 q 564 788 558 794 q 571 777 569 781 q 588 641 582 711 q 594 506 594 572 q 592 488 594 494 q 581 475 590 481 q 564 459 575 469 q 525 428 553 450 q 446 365 498 405 q 306 259 394 325 q 355 266 326 259 q 414 281 384 272 q 474 300 444 289 q 527 319 503 310 q 550 320 544 324 q 556 300 557 316 q 548 187 553 248 q 538 73 543 126 q 535 48 537 56 q 513 38 532 41 l 72 -2 q 51 0 59 -3 q 45 20 43 3 z "},"ﬁ":{"ha":914,"x_min":6,"x_max":910,"o":"m 356 506 q 352 486 353 497 q 350 463 352 476 q 367 464 355 463 q 395 465 380 464 q 425 468 410 466 q 453 470 440 469 q 486 459 479 472 q 486 424 492 447 l 458 304 q 452 284 456 295 q 425 269 448 272 q 402 266 418 267 q 369 264 387 265 q 337 263 352 264 q 315 263 322 263 l 291 29 q 280 9 289 17 q 257 6 271 0 q 247 9 253 7 q 223 18 240 12 q 177 37 207 24 q 94 73 146 50 q 82 79 88 76 q 72 87 76 81 q 66 106 68 94 q 65 146 64 119 q 65 250 65 198 q 66 360 66 302 q 66 419 66 389 q 65 481 66 449 q 47 481 56 481 q 31 483 39 481 q 7 508 10 485 q 6 544 6 523 q 7 589 6 565 q 10 635 8 612 q 14 677 12 659 q 43 713 14 704 q 315 773 179 747 q 593 808 450 800 q 626 752 633 808 l 583 560 q 570 534 579 541 q 544 524 561 527 q 461 517 493 520 q 409 512 428 514 q 377 508 389 509 q 356 506 366 507 m 597 0 q 590 2 595 0 q 580 10 584 5 q 572 27 575 16 q 572 53 569 37 l 611 730 q 619 750 613 748 q 632 752 624 752 q 756 731 693 741 q 884 708 818 721 q 905 696 900 708 q 905 672 910 684 q 906 657 910 685 q 892 576 902 630 q 869 453 882 523 q 844 310 856 383 q 828 210 834 260 q 815 117 821 160 q 807 43 810 75 q 804 -1 804 12 q 801 -25 802 -14 q 779 -38 800 -36 q 687 -29 734 -42 q 597 0 640 -16 z "},"ﬂ":{"ha":1074,"x_min":6,"x_max":1068,"o":"m 356 506 q 352 486 353 497 q 350 463 352 476 q 367 464 355 463 q 395 465 380 464 q 425 468 410 466 q 453 470 440 469 q 486 459 479 472 q 486 424 492 447 l 458 304 q 452 284 456 295 q 425 269 448 272 q 402 266 418 267 q 369 264 387 265 q 337 263 352 264 q 315 263 322 263 l 291 29 q 280 9 289 17 q 257 6 271 0 q 247 9 253 7 q 223 18 240 12 q 177 37 207 24 q 94 73 146 50 q 82 79 88 76 q 72 87 76 81 q 66 106 68 94 q 65 146 64 119 q 65 250 65 198 q 66 360 66 302 q 66 419 66 389 q 65 481 66 449 q 47 481 56 481 q 31 483 39 481 q 7 508 10 485 q 6 544 6 523 q 7 589 6 565 q 10 635 8 612 q 14 677 12 659 q 43 713 14 704 q 315 773 179 747 q 593 808 450 800 q 626 752 633 808 l 583 560 q 570 534 579 541 q 544 524 561 527 q 461 517 493 520 q 409 512 428 514 q 377 508 389 509 q 356 506 366 507 m 590 122 q 577 139 581 131 q 575 167 573 148 q 580 236 576 192 q 591 332 584 279 q 606 443 598 384 q 623 556 615 501 q 638 660 631 611 q 650 742 645 708 q 655 760 653 752 q 660 774 656 769 q 670 781 663 779 q 689 782 676 784 q 802 756 736 777 q 947 714 867 735 q 966 705 961 711 q 972 694 971 700 q 972 683 973 689 q 969 675 970 678 l 860 281 q 974 311 933 303 q 1036 318 1015 318 q 1060 316 1051 317 q 1068 289 1068 315 q 1068 249 1068 275 q 1067 196 1067 223 q 1065 144 1066 168 q 1065 109 1065 119 q 1058 75 1064 89 q 1031 56 1052 61 l 778 -13 q 715 -8 731 -35 q 670 34 700 -1 q 590 122 639 69 z "},"Ł":{"ha":617,"x_min":5,"x_max":611,"o":"m 133 146 q 120 164 124 155 q 118 191 116 172 q 121 238 118 209 q 127 302 124 267 q 72 288 90 292 q 49 287 54 285 q 38 299 43 289 q 27 332 31 313 q 19 372 22 351 q 13 411 15 392 q 7 442 10 429 q 9 455 5 449 q 31 465 14 461 q 91 478 61 471 q 153 492 122 485 q 175 645 164 572 q 193 766 185 719 q 197 785 196 777 q 203 798 199 793 q 212 806 206 803 q 231 807 219 808 q 344 780 279 801 q 490 738 410 759 q 509 730 503 735 q 515 719 514 725 q 514 708 516 713 q 512 699 513 703 l 472 556 l 531 565 q 544 563 535 565 q 556 547 553 560 q 573 485 563 515 q 578 420 584 455 q 572 412 578 416 q 557 406 566 409 q 539 402 549 404 q 521 399 529 400 l 422 377 l 403 306 q 517 335 476 328 q 579 343 558 343 q 602 340 594 341 q 611 314 611 339 q 611 274 611 300 q 609 220 610 248 q 608 168 609 192 q 608 133 608 144 q 601 100 606 113 q 574 80 595 86 l 321 12 q 258 16 274 -10 q 212 58 243 23 q 133 146 182 94 z "},"ł":{"ha":771,"x_min":5,"x_max":765,"o":"m 221 146 q 208 164 212 155 q 206 191 204 172 q 208 233 206 207 q 214 288 211 258 q 138 267 168 275 q 89 255 109 258 q 58 251 66 250 q 45 264 51 252 q 31 301 37 279 q 21 346 25 323 q 14 391 17 369 q 7 426 10 412 q 10 441 5 434 q 41 454 16 448 l 242 501 q 263 650 252 579 q 281 766 274 721 q 285 785 284 777 q 291 798 287 793 q 300 806 294 803 q 319 807 307 808 q 432 780 367 801 q 578 738 498 759 q 597 730 591 735 q 603 719 602 725 q 602 708 604 713 q 600 699 601 703 l 564 571 q 633 584 598 578 q 703 596 668 590 q 720 594 707 597 q 737 575 733 591 q 747 541 741 558 q 758 507 753 524 q 764 472 763 490 q 760 434 765 454 q 753 424 760 428 q 734 417 745 420 q 709 410 722 413 q 685 405 697 407 l 507 363 l 491 306 q 605 335 564 328 q 667 343 646 343 q 690 340 682 341 q 699 314 699 339 q 698 274 699 300 q 697 220 698 248 q 696 168 697 192 q 696 133 696 144 q 689 100 694 113 q 662 80 683 86 l 409 12 q 346 16 362 -10 q 300 58 331 23 q 221 146 270 94 z "},"Ž":{"ha":600,"x_min":6,"x_max":594,"o":"m 358 847 q 300 850 336 847 q 236 852 265 852 q 205 869 213 852 l 108 1014 q 102 1025 105 1016 q 112 1042 100 1034 q 181 1065 155 1057 q 220 1079 206 1074 q 240 1085 234 1083 q 249 1088 245 1087 q 267 1087 259 1088 q 278 1072 275 1087 l 317 963 l 384 1066 q 391 1073 387 1069 q 403 1075 395 1078 q 465 1055 436 1067 q 524 1027 494 1043 q 529 1015 530 1022 q 522 1003 528 1008 l 383 856 q 373 850 380 854 q 358 847 367 845 m 45 20 q 42 55 45 30 q 36 110 39 80 q 31 172 34 140 q 27 231 28 205 q 27 241 27 235 q 38 258 28 247 l 313 486 l 53 449 q 28 465 34 443 q 10 663 15 584 q 6 786 6 742 q 30 810 6 810 q 268 802 153 810 q 503 794 383 794 l 546 794 q 564 788 558 794 q 571 777 569 781 q 588 641 582 711 q 594 506 594 572 q 592 488 594 494 q 581 475 590 481 q 564 459 575 469 q 525 428 553 450 q 446 365 498 405 q 306 259 394 325 q 355 266 326 259 q 414 281 384 272 q 474 300 444 289 q 527 319 503 310 q 550 320 544 324 q 556 300 557 316 q 548 187 553 248 q 538 73 543 126 q 535 48 537 56 q 513 38 532 41 l 72 -2 q 51 0 59 -3 q 45 20 43 3 z "},"ž":{"ha":600,"x_min":6,"x_max":594,"o":"m 348 818 q 291 821 326 818 q 227 823 256 823 q 196 840 204 823 l 98 985 q 93 996 96 987 q 103 1013 90 1005 q 171 1036 146 1028 q 211 1050 197 1045 q 230 1056 225 1054 q 240 1059 236 1058 q 258 1058 250 1059 q 269 1043 266 1058 l 308 934 l 375 1037 q 381 1045 377 1041 q 394 1046 385 1049 q 456 1026 427 1038 q 515 998 485 1014 q 520 986 521 993 q 513 975 519 979 l 374 828 q 364 821 370 825 q 348 818 358 816 m 45 20 q 42 55 45 30 q 36 110 39 80 q 31 172 34 140 q 27 231 28 205 q 27 241 27 235 q 38 258 28 247 l 313 486 l 53 449 q 28 465 34 443 q 10 663 15 584 q 6 786 6 742 q 30 810 6 810 q 268 802 153 810 q 503 794 383 794 l 546 794 q 564 788 558 794 q 571 777 569 781 q 588 641 582 711 q 594 506 594 572 q 592 488 594 494 q 581 475 590 481 q 564 459 575 469 q 525 428 553 450 q 446 365 498 405 q 306 259 394 325 q 355 266 326 259 q 414 281 384 272 q 474 300 444 289 q 527 319 503 310 q 550 320 544 324 q 556 300 557 316 q 548 187 553 248 q 538 73 543 126 q 535 48 537 56 q 513 38 532 41 l 72 -2 q 51 0 59 -3 q 45 20 43 3 z "},"Š":{"ha":642,"x_min":5,"x_max":637,"o":"m 419 839 q 362 841 397 839 q 297 844 326 844 q 266 861 274 844 l 169 1006 q 164 1017 167 1008 q 174 1034 161 1025 q 242 1057 216 1049 q 281 1071 267 1066 q 301 1077 295 1075 q 310 1080 307 1079 q 329 1079 321 1080 q 339 1064 337 1079 l 378 955 l 446 1058 q 452 1065 448 1061 q 464 1067 456 1069 q 527 1047 498 1059 q 586 1019 556 1035 q 590 1007 591 1014 q 583 995 589 1000 l 444 848 q 435 841 441 846 q 419 839 428 837 m 309 547 q 280 534 292 549 q 260 497 267 519 q 252 451 253 475 q 257 413 251 427 q 318 415 289 413 q 379 419 347 417 q 449 423 411 421 q 538 425 487 425 q 578 415 557 426 q 604 383 598 404 q 617 343 612 367 q 623 289 623 318 q 612 217 623 255 q 573 148 601 179 q 420 33 507 71 q 244 -5 332 -5 q 138 10 189 -5 q 47 53 88 24 q 27 75 34 66 q 36 102 20 84 q 47 114 41 106 q 67 136 53 122 q 102 175 80 150 q 161 240 125 199 q 183 252 174 252 q 208 240 192 251 q 258 217 234 226 q 313 208 282 208 q 398 228 356 208 q 464 284 439 248 q 440 286 453 286 q 414 286 427 286 q 266 276 347 286 q 106 264 185 266 q 75 269 87 264 q 56 293 63 273 q 34 359 43 324 q 20 432 25 395 q 12 506 15 469 q 7 579 9 544 q 15 626 5 600 q 43 669 25 653 q 115 724 72 698 q 208 769 157 750 q 315 798 259 787 q 427 809 372 809 q 544 795 488 809 q 610 755 584 782 q 635 672 635 727 q 636 668 635 670 q 635 650 637 666 q 631 601 634 635 q 619 502 627 567 q 613 483 617 490 q 583 473 609 476 l 347 451 q 329 455 334 449 q 325 481 323 461 q 326 495 325 485 q 326 517 328 506 q 322 538 325 529 q 309 547 318 546 z "},"Œ":{"ha":927,"x_min":6,"x_max":921,"o":"m 161 16 q 109 63 137 31 q 59 137 82 94 q 21 233 36 179 q 7 345 6 286 q 24 445 7 397 q 64 535 41 493 q 113 608 88 576 q 156 659 139 640 q 201 703 174 677 q 259 751 228 728 q 324 791 291 774 q 387 807 358 807 q 445 792 418 808 q 500 737 472 775 q 620 757 559 749 q 731 770 681 765 q 818 776 782 774 q 865 778 854 778 q 891 772 881 778 q 905 748 900 766 q 905 733 905 742 q 905 705 905 725 q 902 650 904 685 q 896 554 900 615 q 892 528 896 541 q 869 514 888 516 q 835 512 853 513 q 790 509 817 512 q 723 502 763 507 q 625 488 684 498 q 621 469 622 479 q 620 453 620 459 q 646 457 630 454 q 681 462 662 459 q 721 466 700 465 q 760 468 742 468 q 779 463 773 469 q 781 446 785 457 l 758 332 q 744 309 755 316 q 725 302 734 302 l 594 286 q 591 251 593 270 q 589 198 590 231 l 816 316 q 854 323 837 326 q 881 304 872 321 q 908 229 895 267 q 921 150 921 191 q 917 133 921 141 q 905 119 913 124 q 758 53 811 78 q 675 15 705 29 q 628 -6 645 1 q 593 -21 612 -13 q 569 -28 580 -27 q 544 -16 558 -29 l 421 101 q 370 53 398 75 q 310 16 341 30 q 229 -1 272 -1 q 192 3 209 -1 q 161 16 174 7 m 332 375 q 310 367 319 375 q 294 348 300 360 q 285 321 288 336 q 282 292 282 306 q 288 253 282 270 q 304 237 294 237 q 323 250 314 237 q 340 280 332 263 q 352 314 347 297 q 356 337 356 331 q 356 347 356 340 q 353 359 355 353 q 345 370 351 366 q 332 375 340 375 z "},"š":{"ha":642,"x_min":5,"x_max":637,"o":"m 359 818 q 302 821 337 818 q 237 823 266 823 q 206 840 214 823 l 109 985 q 104 996 106 987 q 113 1013 101 1005 q 182 1036 156 1028 q 221 1050 207 1045 q 241 1056 235 1054 q 250 1059 247 1058 q 269 1058 260 1059 q 279 1043 277 1058 l 318 934 l 385 1037 q 392 1045 388 1041 q 404 1046 396 1049 q 466 1026 438 1038 q 525 998 495 1014 q 530 986 531 993 q 523 975 529 979 l 384 828 q 374 821 381 825 q 359 818 368 816 m 309 547 q 283 538 294 550 q 265 509 272 527 q 253 458 256 486 q 257 413 251 429 q 318 415 289 413 q 379 419 347 417 q 449 423 411 421 q 538 425 487 425 q 578 415 557 426 q 604 383 598 404 q 617 343 612 367 q 623 289 623 318 q 612 217 623 255 q 573 148 601 179 q 420 33 507 71 q 244 -5 332 -5 q 138 10 189 -5 q 47 53 88 24 q 27 75 34 66 q 36 102 20 84 q 47 114 41 106 q 67 136 53 122 q 102 175 80 150 q 161 240 125 199 q 183 252 174 252 q 208 240 192 251 q 258 217 234 226 q 313 208 282 208 q 398 228 356 208 q 464 284 439 248 q 440 286 453 286 q 414 286 427 286 q 266 276 347 286 q 106 264 185 266 q 75 269 87 264 q 56 293 63 273 q 30 383 38 333 q 15 481 21 432 q 11 531 13 507 q 7 579 9 556 q 15 626 5 600 q 43 669 25 653 q 115 724 72 698 q 208 769 157 750 q 315 798 259 787 q 427 809 372 809 q 544 795 488 809 q 610 755 584 782 q 635 672 635 727 q 636 668 635 670 q 635 650 637 666 q 631 601 634 635 q 619 502 627 567 q 613 483 617 490 q 583 473 609 476 l 347 451 q 329 455 334 449 q 325 481 323 461 q 326 495 325 485 q 326 517 328 506 q 322 538 325 529 q 309 547 318 546 z "},"œ":{"ha":918,"x_min":6,"x_max":912,"o":"m 161 16 q 109 63 137 31 q 59 137 82 94 q 21 233 36 179 q 7 345 6 286 q 24 445 7 397 q 64 535 41 493 q 113 608 88 576 q 156 659 139 640 q 201 703 174 677 q 259 751 228 728 q 324 791 291 774 q 387 807 358 807 q 443 793 417 808 q 495 743 469 778 q 615 762 554 755 q 725 774 675 770 q 810 781 774 779 q 855 782 845 782 q 881 777 872 782 q 896 752 891 771 q 896 738 896 747 q 895 709 896 729 q 893 655 895 690 q 887 559 891 619 q 883 533 887 545 q 860 519 878 521 q 826 517 844 517 q 781 514 808 516 q 714 507 753 512 q 616 493 675 502 q 612 474 612 484 q 611 457 611 464 q 637 461 620 458 q 672 467 653 464 q 712 471 691 470 q 751 472 733 472 q 770 468 764 473 q 772 450 775 462 l 749 337 q 735 314 745 321 q 715 307 725 307 l 584 291 q 582 255 583 274 q 580 203 581 236 l 807 321 q 845 328 828 331 q 872 309 862 325 q 899 234 885 272 q 912 155 912 196 q 908 137 912 146 q 896 124 904 128 q 749 58 802 82 q 666 20 696 34 q 619 -1 635 6 q 583 -16 603 -8 q 560 -23 571 -22 q 535 -12 549 -24 l 419 98 q 368 52 396 74 q 310 16 340 29 q 229 -1 272 -1 q 192 3 209 -1 q 161 16 174 7 m 332 375 q 310 367 319 375 q 294 348 300 360 q 285 321 288 336 q 282 292 282 306 q 288 253 282 270 q 304 237 294 237 q 323 250 314 237 q 340 280 332 263 q 352 314 347 297 q 356 337 356 331 q 356 347 356 340 q 353 359 355 353 q 345 370 351 366 q 332 375 340 375 z "},"Ÿ":{"ha":766,"x_min":3,"x_max":763,"o":"m 260 847 q 199 880 220 847 q 178 955 178 913 q 185 1002 178 979 q 200 1034 190 1017 q 223 1066 209 1051 q 256 1091 237 1081 q 299 1103 275 1101 q 333 1097 317 1104 q 360 1076 348 1089 q 378 1046 372 1064 q 384 1010 384 1029 q 376 956 384 985 q 352 903 368 927 q 314 863 337 878 q 260 847 291 847 m 492 839 q 431 872 451 839 q 410 947 410 905 q 417 994 410 971 q 431 1026 421 1009 q 455 1058 441 1043 q 488 1083 469 1073 q 530 1095 507 1093 q 564 1089 549 1096 q 591 1068 580 1081 q 609 1038 603 1056 q 616 1002 616 1021 q 608 948 616 977 q 584 895 600 919 q 545 855 568 870 q 492 839 522 839 m 192 57 q 178 65 181 60 q 179 87 175 69 q 187 117 183 98 q 197 165 191 135 q 209 236 203 194 q 223 336 215 278 l 13 605 q 6 621 3 612 q 14 633 9 630 q 93 690 61 668 q 152 729 125 712 q 206 763 179 747 q 270 801 233 779 q 284 805 274 803 q 297 794 293 807 l 394 601 l 494 785 q 505 793 499 793 q 517 792 510 794 q 528 786 521 791 q 557 765 535 781 q 624 716 580 749 q 748 625 669 683 q 759 611 756 619 q 753 593 763 602 l 494 288 q 500 160 494 223 q 506 27 506 96 q 502 9 508 14 q 478 6 497 3 q 411 12 455 5 q 319 28 368 19 q 234 46 262 39 q 192 57 206 52 z "},"ª":{"ha":463,"x_min":6,"x_max":456,"o":"m 10 586 q 6 604 6 591 l 170 979 q 181 994 174 988 q 198 998 188 1000 l 375 927 q 386 917 381 924 q 392 905 391 911 l 456 488 q 456 481 456 485 q 450 477 456 478 q 442 479 448 477 q 418 484 436 480 q 366 494 400 487 q 272 510 331 500 q 264 514 267 510 q 259 523 260 519 l 252 583 l 251 583 q 237 580 248 583 q 213 573 226 578 q 189 565 200 569 q 177 558 178 561 l 154 477 q 141 475 152 470 q 126 484 131 480 l 10 586 m 244 795 q 233 766 238 784 q 220 725 228 748 q 251 731 238 725 q 250 763 251 745 q 244 795 249 781 z "},"²":{"ha":360,"x_min":6,"x_max":353,"o":"m 78 471 q 60 484 63 471 q 56 508 58 493 q 54 538 54 522 q 53 568 53 553 q 52 593 52 583 q 52 600 52 595 q 61 606 52 604 q 105 629 78 613 q 158 664 132 645 q 203 707 184 684 q 222 753 222 730 q 218 771 222 763 q 204 780 213 780 q 185 769 191 779 q 172 727 178 759 q 166 718 170 719 q 159 716 161 716 q 149 718 153 716 q 131 722 145 719 q 92 732 118 726 q 17 749 66 738 q 7 755 8 751 q 9 766 6 759 q 30 833 17 802 q 63 885 43 863 q 113 918 82 906 q 189 931 144 931 q 253 921 223 931 q 306 894 284 911 q 340 851 328 876 q 353 796 353 826 q 342 743 353 769 q 314 694 331 718 q 277 650 297 671 q 237 610 257 628 q 254 611 242 610 q 279 613 266 612 q 304 616 292 615 q 321 617 316 617 q 338 618 331 618 q 352 606 353 616 q 348 576 352 595 q 341 539 345 558 q 333 506 337 521 q 329 485 330 491 q 319 473 326 476 q 307 470 311 470 q 192 470 234 470 q 128 471 150 471 q 97 471 106 471 q 78 471 88 471 z "},"³":{"ha":300,"x_min":5,"x_max":294,"o":"m 39 475 q 26 480 34 475 q 19 492 19 485 q 17 524 16 502 q 19 571 17 546 q 23 616 20 595 q 29 644 25 637 q 36 649 30 649 q 46 642 43 649 q 78 612 58 626 q 115 597 97 597 q 127 597 120 595 q 141 604 134 600 q 150 614 147 608 q 153 626 154 620 q 145 652 153 640 q 128 671 138 663 q 111 685 119 679 q 98 691 102 690 q 111 696 101 692 q 132 706 120 700 q 152 720 144 712 q 161 741 161 729 q 150 764 161 755 q 124 773 139 773 q 84 762 108 773 q 47 741 61 751 q 36 736 42 736 q 29 743 31 736 q 21 780 24 759 q 14 819 17 800 q 10 854 12 838 q 7 878 8 870 q 8 892 5 888 q 16 898 10 896 q 69 920 38 911 q 127 928 101 928 q 184 920 155 928 q 237 894 213 911 q 275 854 260 877 q 289 799 289 830 q 269 737 289 765 q 218 689 248 708 q 239 679 226 685 q 264 661 252 672 q 285 635 277 650 q 294 600 294 619 q 275 540 294 565 q 228 500 257 515 q 163 478 199 485 q 91 471 127 471 q 39 475 64 471 z "},"¹":{"ha":287,"x_min":5,"x_max":281,"o":"m 81 718 q 57 702 63 706 q 46 696 52 698 q 34 696 37 691 q 30 708 30 701 q 20 748 27 721 q 7 816 14 774 q 16 836 5 831 l 139 922 q 156 924 146 929 l 271 873 q 279 867 277 870 q 279 854 281 863 l 227 506 q 222 485 226 488 q 214 480 219 481 q 155 474 175 477 q 127 470 135 471 q 117 468 118 469 q 116 468 116 468 q 103 484 106 468 q 93 601 94 544 q 81 718 93 659 z "},"º":{"ha":382,"x_min":6,"x_max":380,"o":"m 101 481 q 70 508 87 490 q 39 550 53 525 q 15 604 24 574 q 7 668 6 634 q 17 724 7 697 q 42 775 28 751 q 72 817 57 799 q 98 845 88 834 q 126 870 109 855 q 161 897 142 884 q 201 919 181 910 q 240 928 222 928 q 272 922 257 929 q 302 898 287 914 q 334 853 317 881 q 370 785 351 825 q 374 739 380 769 q 356 679 368 709 q 329 622 344 648 q 306 583 314 595 q 289 561 300 575 q 264 532 279 547 q 231 503 249 517 q 192 481 213 490 q 142 471 169 471 q 101 481 116 471 m 206 684 q 185 672 192 684 q 177 645 178 660 q 178 619 175 631 q 189 606 182 606 q 200 614 194 606 q 211 631 206 622 q 218 650 215 641 q 221 663 221 660 q 219 675 221 667 q 206 684 216 684 z "},"»":{"ha":811,"x_min":-5,"x_max":806,"o":"m 597 51 q 584 46 593 47 q 569 51 575 45 l 456 164 q 449 185 447 179 q 457 197 451 191 q 534 286 494 234 q 604 384 573 338 q 589 399 598 391 q 556 424 579 407 q 491 469 532 440 q 382 547 450 498 q 374 590 355 560 q 417 666 400 638 q 443 710 434 694 q 457 731 453 726 q 462 738 461 736 q 485 749 475 751 q 510 738 495 748 q 731 532 656 615 q 806 424 806 449 q 789 367 806 405 q 748 284 772 329 q 695 192 723 238 q 644 110 667 145 q 606 57 620 75 q 597 51 593 39 m 237 23 q 224 19 233 20 q 209 23 215 17 l 96 137 q 89 157 87 152 q 97 169 91 163 q 174 258 134 206 q 244 356 213 310 q 229 372 238 363 q 196 396 219 380 q 131 441 172 412 q 22 520 90 470 q 14 563 -5 532 q 57 638 41 610 q 83 682 74 667 q 97 703 93 698 q 102 711 101 708 q 125 722 115 723 q 150 711 135 720 q 371 504 296 587 q 446 396 446 421 q 429 339 446 377 q 388 256 412 301 q 335 164 363 211 q 284 82 307 117 q 247 30 260 47 q 237 23 233 12 z "},"¼":{"ha":1039,"x_min":3,"x_max":1034,"o":"m 815 130 l 677 117 q 668 119 671 117 q 661 132 664 120 q 648 168 656 144 q 632 225 640 192 q 617 295 624 257 q 610 372 611 332 q 612 398 608 391 q 626 411 616 405 q 663 424 642 418 q 704 435 684 431 q 740 442 725 439 q 760 444 755 444 q 769 446 764 447 q 775 435 773 444 q 775 413 775 429 q 774 375 774 397 q 773 329 773 353 q 772 286 772 306 q 774 241 772 252 l 810 251 q 810 344 810 297 q 806 439 809 390 q 808 447 807 442 q 818 451 810 451 l 987 462 q 996 461 992 462 q 1000 449 1000 459 l 985 299 q 1003 303 990 300 q 1021 307 1016 306 q 1030 304 1025 307 q 1034 296 1034 302 q 1033 291 1034 294 q 1031 273 1032 287 q 1026 231 1029 259 q 1019 154 1023 204 q 1009 139 1019 139 q 997 138 1005 138 q 983 135 988 138 q 980 115 981 130 q 977 82 979 100 q 974 49 976 65 q 972 25 972 34 q 961 14 972 14 l 848 -7 q 829 -4 831 -13 q 825 7 826 5 l 815 130 m 164 -64 q 285 241 235 115 q 368 455 334 368 q 422 595 402 543 q 453 678 442 648 q 469 722 464 708 q 477 742 473 735 q 482 755 479 747 q 490 770 485 763 q 502 785 494 778 q 523 794 510 792 q 644 817 600 809 q 712 828 689 824 q 745 832 736 831 q 759 833 755 833 q 777 826 771 834 q 774 801 784 817 q 616 530 683 648 q 503 322 550 411 q 427 172 457 234 q 379 72 397 111 q 352 12 361 32 q 337 -16 343 -9 q 321 -35 330 -32 q 307 -39 311 -38 q 244 -53 267 -46 q 208 -65 221 -60 q 188 -74 194 -71 q 175 -78 181 -78 q 166 -73 170 -78 q 164 -64 162 -69 m 82 597 q 58 581 64 586 q 46 574 52 576 q 34 575 37 569 q 29 588 30 580 q 20 627 27 601 q 7 696 14 654 q 16 716 3 709 l 142 803 q 159 804 148 810 l 278 752 q 286 735 291 750 l 233 383 q 228 362 231 366 q 220 358 225 359 q 159 351 179 354 q 129 347 138 348 q 119 345 120 346 q 118 345 118 345 q 109 348 112 345 q 105 362 106 352 q 95 481 96 424 q 82 597 94 538 z "},"½":{"ha":990,"x_min":3,"x_max":983,"o":"m 701 -3 q 689 -1 692 -3 q 683 9 685 1 q 679 34 681 19 q 677 64 677 49 q 675 94 676 80 q 675 119 675 109 q 675 126 675 122 q 684 132 675 130 q 728 155 700 139 q 783 190 756 170 q 830 234 810 211 q 850 280 850 257 q 844 298 850 289 q 830 306 839 307 q 810 295 817 306 q 797 253 803 285 q 791 243 796 244 q 784 242 786 242 q 774 243 778 242 q 756 248 770 244 q 716 258 743 251 q 639 274 689 264 q 628 281 630 277 q 631 293 627 285 q 653 359 640 329 q 686 411 666 390 q 738 445 707 433 q 815 457 769 457 q 880 447 850 457 q 934 420 911 438 q 970 378 957 403 q 983 323 983 353 q 972 269 983 295 q 943 220 961 243 q 905 175 926 197 q 865 135 884 154 q 881 138 869 137 q 907 139 894 139 q 932 141 920 140 q 949 142 944 142 q 955 143 949 142 q 967 143 961 144 q 978 140 973 142 q 981 132 983 138 q 978 102 981 120 q 970 65 975 83 q 962 32 966 47 q 957 12 958 16 q 948 -2 955 1 q 935 -5 941 -5 q 818 -4 860 -5 q 754 -3 777 -3 q 722 -3 731 -3 q 701 -3 712 -3 m 168 -75 q 288 230 238 103 q 372 444 338 356 q 425 584 405 531 q 457 667 446 637 q 472 710 468 697 q 480 730 477 723 q 486 743 483 735 q 493 759 488 751 q 506 773 498 766 q 527 782 514 780 q 648 805 603 797 q 716 816 692 813 q 749 821 740 819 q 763 822 758 822 q 781 814 774 823 q 778 789 787 806 q 620 518 686 637 q 507 311 553 399 q 431 161 461 222 q 383 60 400 100 q 355 0 365 21 q 340 -28 346 -21 q 324 -47 333 -44 q 310 -51 315 -50 q 248 -65 271 -58 q 211 -77 225 -72 q 191 -86 198 -82 q 178 -89 184 -89 q 170 -85 174 -89 q 168 -75 166 -81 m 90 597 q 63 582 69 586 q 51 575 57 578 q 37 576 42 571 q 32 588 32 581 q 22 627 29 601 q 7 696 15 654 q 17 715 3 711 l 155 802 q 174 803 162 809 l 303 752 q 311 747 309 750 q 311 734 314 743 l 253 385 q 248 365 252 368 q 240 360 244 361 q 173 354 196 356 q 141 350 150 351 q 130 348 131 348 q 128 347 130 347 q 115 363 118 347 q 104 481 105 424 q 90 597 102 538 z "},"¾":{"ha":973,"x_min":5,"x_max":968,"o":"m 41 352 q 27 357 35 352 q 19 369 19 362 q 17 402 16 380 q 19 448 17 424 q 23 493 20 472 q 29 521 25 514 q 37 527 30 527 q 47 520 44 527 q 80 489 60 503 q 119 475 101 475 q 146 481 132 471 q 159 503 161 491 q 151 529 159 517 q 134 549 144 541 q 115 562 124 557 q 102 568 105 567 q 115 573 104 569 q 137 583 125 578 q 159 598 149 589 q 168 618 168 606 q 156 641 168 632 q 130 650 145 650 q 87 639 111 650 q 49 618 63 628 q 37 613 43 613 q 29 620 31 613 q 21 657 24 637 q 14 696 17 677 q 10 731 12 715 q 7 756 8 748 q 8 769 5 765 q 16 775 10 773 q 72 797 39 788 q 132 806 105 806 q 192 797 161 806 q 247 771 222 788 q 286 731 271 755 q 302 676 302 707 q 280 614 302 642 q 228 566 258 586 q 251 556 237 563 q 277 539 264 550 q 298 512 289 528 q 307 477 307 497 q 287 417 307 442 q 237 377 267 392 q 170 355 207 362 q 95 348 132 348 q 41 352 66 348 m 141 -68 q 262 237 212 110 q 345 451 311 363 q 399 591 378 538 q 430 674 419 644 q 446 717 441 704 q 454 737 450 730 q 459 750 456 742 q 466 766 462 758 q 479 780 471 773 q 500 789 487 787 q 621 812 576 804 q 689 823 666 819 q 722 828 713 826 q 736 829 731 829 q 754 821 748 830 q 751 796 760 813 q 593 525 660 644 q 480 318 527 406 q 404 168 434 229 q 356 67 374 106 q 329 7 338 28 q 314 -21 319 -14 q 297 -40 307 -37 q 284 -44 288 -43 q 221 -58 244 -51 q 185 -70 198 -65 q 164 -79 171 -75 q 152 -82 157 -82 q 143 -78 147 -82 q 141 -68 139 -74 m 752 131 l 616 118 q 608 120 611 118 q 601 133 604 122 q 588 170 596 145 q 572 227 580 194 q 558 299 565 260 q 550 376 551 337 q 552 403 547 396 q 567 416 557 411 q 603 429 582 422 q 644 440 624 435 q 678 447 663 444 q 698 450 693 450 q 706 450 701 451 q 713 440 711 449 q 712 420 713 435 q 712 385 712 405 q 711 341 712 365 q 711 299 711 318 q 711 264 711 279 q 713 244 711 249 l 748 253 q 747 349 748 302 q 743 444 747 396 q 746 452 744 447 q 756 457 748 457 l 921 468 q 931 466 927 468 q 934 455 934 464 l 920 302 q 937 306 924 303 q 955 311 950 309 q 964 308 959 311 q 968 300 968 306 q 967 294 968 297 q 965 277 966 291 q 960 234 963 263 q 953 156 957 206 q 943 141 953 141 q 931 140 939 140 q 918 138 924 140 q 915 116 917 132 q 911 83 913 101 q 909 50 910 66 q 907 27 907 34 q 904 17 907 20 q 895 14 900 15 l 785 -7 q 771 -9 775 -10 q 766 -5 767 -8 q 763 2 764 -1 q 762 7 763 6 l 752 131 z "},"À":{"ha":662,"x_min":6,"x_max":655,"o":"m 490 843 l 451 802 q 429 797 435 796 q 419 801 424 799 q 300 896 355 840 q 197 1015 245 951 q 192 1030 186 1021 q 205 1044 198 1038 q 238 1075 214 1053 q 316 1144 263 1097 q 321 1148 317 1145 q 330 1152 325 1150 q 341 1152 336 1154 q 352 1139 347 1149 l 499 866 l 490 843 m 13 170 q 6 198 6 177 l 242 764 q 258 785 248 777 q 282 791 267 793 l 538 684 q 554 670 547 679 q 564 652 561 661 l 655 23 q 655 12 655 17 q 646 6 654 7 q 635 8 644 6 q 600 16 626 10 q 524 30 574 21 q 389 56 473 39 q 378 63 383 57 q 372 75 373 69 l 361 166 l 359 166 q 339 161 355 166 q 304 151 323 157 q 270 138 286 145 q 252 127 255 132 l 220 6 q 212 0 218 0 q 201 3 207 0 q 189 10 194 6 q 179 16 183 14 l 13 170 m 350 485 q 333 441 340 469 q 315 380 326 413 q 339 381 326 380 q 359 389 351 383 q 357 437 359 410 q 350 485 355 464 z "},"Á":{"ha":662,"x_min":6,"x_max":655,"o":"m 470 1150 q 531 1069 508 1100 q 565 1021 553 1038 q 580 997 576 1003 q 586 990 583 991 q 575 962 590 976 q 531 918 552 940 q 487 877 509 896 q 440 841 464 858 q 388 815 416 825 q 383 811 388 813 q 372 816 378 810 q 350 843 362 825 q 331 873 337 860 q 327 886 325 883 q 333 899 329 889 q 377 987 358 943 q 412 1065 397 1030 q 436 1124 427 1100 q 448 1154 446 1148 q 470 1150 458 1167 m 13 170 q 6 198 6 177 l 242 764 q 258 785 248 777 q 282 791 267 793 l 538 684 q 554 670 547 679 q 564 652 561 661 l 655 23 q 655 12 655 17 q 646 6 654 7 q 635 8 644 6 q 600 16 626 10 q 524 30 574 21 q 389 56 473 39 q 378 63 383 57 q 372 75 373 69 l 361 166 l 359 166 q 339 161 355 166 q 304 151 323 157 q 270 138 286 145 q 252 127 255 132 l 220 6 q 212 0 218 0 q 201 3 207 0 q 189 10 194 6 q 179 16 183 14 l 13 170 m 350 485 q 333 441 340 469 q 315 380 326 413 q 339 381 326 380 q 359 389 351 383 q 357 437 359 410 q 350 485 355 464 z "},"Â":{"ha":662,"x_min":6,"x_max":655,"o":"m 183 921 q 268 1007 228 973 q 339 1060 308 1041 q 389 1089 369 1080 q 414 1101 409 1097 q 475 1067 446 1087 q 531 1022 503 1046 q 584 971 558 998 q 638 918 611 944 q 646 900 644 911 q 640 883 649 890 q 635 878 639 882 q 622 867 632 875 q 594 843 612 859 q 544 802 575 828 q 537 801 539 802 q 529 802 535 800 q 466 878 490 850 q 430 922 443 906 q 411 944 417 938 q 399 954 405 950 q 363 922 387 951 q 287 832 339 894 q 281 829 285 830 q 266 833 278 828 l 185 902 q 182 911 183 905 q 183 921 181 918 m 13 170 q 6 198 6 177 l 242 764 q 258 785 248 777 q 282 791 267 793 l 538 684 q 554 670 547 679 q 564 652 561 661 l 655 23 q 655 12 655 17 q 646 6 654 7 q 635 8 644 6 q 600 16 626 10 q 524 30 574 21 q 389 56 473 39 q 378 63 383 57 q 372 75 373 69 l 361 166 l 359 166 q 339 161 355 166 q 304 151 323 157 q 270 138 286 145 q 252 127 255 132 l 220 6 q 212 0 218 0 q 201 3 207 0 q 189 10 194 6 q 179 16 183 14 l 13 170 m 350 485 q 333 441 340 469 q 315 380 326 413 q 339 381 326 380 q 359 389 351 383 q 357 437 359 410 q 350 485 355 464 z "},"Ã":{"ha":662,"x_min":6,"x_max":655,"o":"m 238 823 q 233 862 233 844 q 241 918 233 890 q 266 970 250 947 q 306 1008 282 993 q 360 1022 330 1022 q 403 1013 384 1022 q 440 994 422 1005 q 473 975 457 984 q 507 963 490 965 q 552 970 527 961 q 596 1017 576 980 q 601 998 600 1008 q 602 977 602 987 q 591 921 602 949 q 563 872 581 894 q 519 836 544 850 q 462 821 493 822 q 427 828 447 821 q 387 843 407 834 q 344 859 366 852 q 303 866 323 866 q 267 856 284 866 q 240 821 251 847 l 238 823 m 13 170 q 6 198 6 177 l 242 764 q 258 785 248 777 q 282 791 267 793 l 538 684 q 554 670 547 679 q 564 652 561 661 l 655 23 q 655 12 655 17 q 646 6 654 7 q 635 8 644 6 q 600 16 626 10 q 524 30 574 21 q 389 56 473 39 q 378 63 383 57 q 372 75 373 69 l 361 166 l 359 166 q 339 161 355 166 q 304 151 323 157 q 270 138 286 145 q 252 127 255 132 l 220 6 q 212 0 218 0 q 201 3 207 0 q 189 10 194 6 q 179 16 183 14 l 13 170 m 350 485 q 333 441 340 469 q 315 380 326 413 q 339 381 326 380 q 359 389 351 383 q 357 437 359 410 q 350 485 355 464 z "},"Ä":{"ha":662,"x_min":6,"x_max":655,"o":"m 284 822 q 222 855 243 822 q 201 929 201 888 q 208 977 201 954 q 223 1009 213 992 q 247 1041 233 1025 q 280 1065 260 1056 q 322 1078 299 1075 q 356 1071 340 1079 q 383 1051 372 1064 q 401 1021 395 1038 q 407 985 407 1003 q 399 931 407 959 q 376 877 391 902 q 337 837 360 853 q 284 822 314 822 m 515 814 q 454 847 475 814 q 433 921 433 880 q 440 969 433 946 q 454 1001 444 984 q 478 1032 464 1017 q 511 1057 492 1047 q 553 1069 530 1067 q 587 1063 572 1071 q 615 1043 603 1056 q 633 1013 626 1030 q 639 977 639 995 q 631 922 639 951 q 607 869 623 894 q 568 829 591 845 q 515 814 545 814 m 13 170 q 6 198 6 177 l 242 764 q 258 785 248 777 q 282 791 267 793 l 538 684 q 554 670 547 679 q 564 652 561 661 l 655 23 q 655 12 655 17 q 646 6 654 7 q 635 8 644 6 q 600 16 626 10 q 524 30 574 21 q 389 56 473 39 q 378 63 383 57 q 372 75 373 69 l 361 166 l 359 166 q 339 161 355 166 q 304 151 323 157 q 270 138 286 145 q 252 127 255 132 l 220 6 q 212 0 218 0 q 201 3 207 0 q 189 10 194 6 q 179 16 183 14 l 13 170 m 350 485 q 333 441 340 469 q 315 380 326 413 q 339 381 326 380 q 359 389 351 383 q 357 437 359 410 q 350 485 355 464 z "},"Å":{"ha":662,"x_min":6,"x_max":655,"o":"m 310 885 q 326 944 310 914 q 368 998 343 975 q 426 1036 394 1021 q 491 1051 458 1051 q 560 1025 531 1051 q 588 956 588 999 q 573 885 588 917 q 532 831 558 853 q 475 797 507 809 q 409 786 443 786 q 373 793 391 786 q 341 814 355 801 q 319 845 328 826 q 310 885 310 863 m 464 917 q 450 911 456 917 q 440 897 443 905 q 437 881 436 889 q 443 868 438 873 q 461 873 454 867 q 472 888 469 880 q 474 905 476 897 q 464 917 472 913 m 13 170 q 6 198 6 177 l 242 764 q 258 785 248 777 q 282 791 267 793 l 538 684 q 554 670 547 679 q 564 652 561 661 l 655 23 q 655 12 655 17 q 646 6 654 7 q 635 8 644 6 q 600 16 626 10 q 524 30 574 21 q 389 56 473 39 q 378 63 383 57 q 372 75 373 69 l 361 166 l 359 166 q 339 161 355 166 q 304 151 323 157 q 270 138 286 145 q 252 127 255 132 l 220 6 q 212 0 218 0 q 201 3 207 0 q 189 10 194 6 q 179 16 183 14 l 13 170 m 350 485 q 333 441 340 469 q 315 380 326 413 q 339 381 326 380 q 359 389 351 383 q 357 437 359 410 q 350 485 355 464 z "},"Æ":{"ha":964,"x_min":6,"x_max":958,"o":"m 13 170 q 6 198 6 177 l 242 764 q 258 785 248 777 q 282 791 267 793 l 407 738 q 502 765 450 753 q 605 785 553 777 q 706 799 656 794 q 796 808 756 804 q 865 813 837 811 q 902 814 892 814 q 928 808 918 814 q 942 784 938 802 q 942 769 942 778 q 942 741 942 760 q 939 686 941 721 q 933 590 938 650 q 929 564 933 576 q 906 550 925 552 q 872 548 890 549 q 827 545 854 547 q 760 538 800 543 q 662 524 721 534 q 658 505 659 515 q 657 488 657 495 q 683 492 667 490 q 718 498 699 495 q 758 502 737 501 q 797 503 779 503 q 816 499 810 505 q 818 481 822 493 l 795 368 q 781 345 792 352 q 762 338 771 338 l 631 322 q 628 286 630 306 q 626 234 627 267 l 853 352 q 891 359 874 362 q 918 340 909 356 q 945 265 932 303 q 958 186 958 227 q 954 168 958 177 q 942 155 950 160 q 815 98 865 120 q 735 61 766 75 q 686 39 704 47 q 654 25 668 31 l 655 23 q 655 12 655 17 q 646 6 654 7 q 638 8 644 6 q 620 12 633 9 q 602 8 611 8 q 581 20 593 8 l 389 56 q 378 63 383 57 q 372 75 373 69 l 361 166 l 359 166 q 339 161 355 166 q 304 151 323 157 q 270 138 286 145 q 252 127 255 132 l 220 6 q 212 0 218 0 q 201 3 207 0 q 189 10 194 6 q 179 16 183 14 l 13 170 m 350 485 q 333 441 340 469 q 315 380 326 413 q 339 381 326 380 q 359 389 351 383 q 357 437 359 410 q 350 485 355 464 z "},"È":{"ha":611,"x_min":6,"x_max":605,"o":"m 432 865 l 394 824 q 372 819 377 818 q 361 823 366 821 q 242 918 297 862 q 139 1037 188 973 q 134 1052 128 1043 q 147 1066 140 1060 q 181 1097 156 1075 q 258 1166 205 1119 q 263 1170 259 1167 q 273 1174 267 1172 q 284 1174 278 1176 q 294 1161 289 1171 l 441 888 l 432 865 m 73 258 q 72 362 73 310 q 71 466 72 414 q 53 464 61 466 q 35 459 45 462 q 8 483 9 455 q 6 509 7 495 q 6 539 6 523 q 9 615 6 576 q 17 686 12 654 q 28 715 20 703 q 54 733 36 727 q 149 759 97 748 q 252 780 200 771 q 353 793 303 788 q 443 802 403 799 q 512 807 484 806 q 549 808 539 808 q 575 802 565 808 q 589 778 584 796 q 589 763 589 772 q 589 735 589 755 q 586 680 588 715 q 580 584 584 645 q 576 558 580 571 q 553 544 572 546 q 519 542 537 543 q 474 539 501 542 q 407 532 447 537 q 309 519 368 528 q 305 499 306 509 q 304 483 304 490 q 330 487 314 484 q 365 492 346 490 q 405 497 384 495 q 444 498 426 498 q 463 493 457 499 q 465 476 469 487 l 442 362 q 428 339 439 346 q 409 332 418 332 l 278 316 q 275 281 277 300 q 273 228 274 262 l 500 346 q 538 354 521 356 q 565 334 556 351 q 592 259 579 297 q 605 181 605 221 q 601 163 605 171 q 589 149 597 154 q 442 83 495 108 q 359 45 389 59 q 313 24 329 31 q 277 9 296 17 q 253 2 264 3 q 228 14 242 1 l 97 139 q 81 159 88 148 q 73 182 74 169 l 73 258 z "},"É":{"ha":611,"x_min":6,"x_max":605,"o":"m 355 1148 q 416 1067 394 1097 q 450 1019 439 1036 q 465 995 462 1001 q 471 987 469 988 q 461 959 476 973 q 416 916 438 938 q 372 874 395 894 q 325 839 350 855 q 273 813 301 823 q 269 809 273 810 q 257 814 264 808 q 235 840 248 823 q 216 870 222 858 q 212 884 211 881 q 219 897 214 887 q 263 984 243 941 q 297 1063 282 1028 q 322 1122 313 1097 q 333 1152 331 1146 q 355 1148 344 1164 m 73 258 q 72 362 73 310 q 71 466 72 414 q 53 464 61 466 q 35 459 45 462 q 8 483 9 455 q 6 509 7 495 q 6 539 6 523 q 9 615 6 576 q 17 686 12 654 q 28 715 20 703 q 54 733 36 727 q 149 759 97 748 q 252 780 200 771 q 353 793 303 788 q 443 802 403 799 q 512 807 484 806 q 549 808 539 808 q 575 802 565 808 q 589 778 584 796 q 589 763 589 772 q 589 735 589 755 q 586 680 588 715 q 580 584 584 645 q 576 558 580 571 q 553 544 572 546 q 519 542 537 543 q 474 539 501 542 q 407 532 447 537 q 309 519 368 528 q 305 499 306 509 q 304 483 304 490 q 330 487 314 484 q 365 492 346 490 q 405 497 384 495 q 444 498 426 498 q 463 493 457 499 q 465 476 469 487 l 442 362 q 428 339 439 346 q 409 332 418 332 l 278 316 q 275 281 277 300 q 273 228 274 262 l 500 346 q 538 354 521 356 q 565 334 556 351 q 592 259 579 297 q 605 181 605 221 q 601 163 605 171 q 589 149 597 154 q 442 83 495 108 q 359 45 389 59 q 313 24 329 31 q 277 9 296 17 q 253 2 264 3 q 228 14 242 1 l 97 139 q 81 159 88 148 q 73 182 74 169 l 73 258 z "},"Ê":{"ha":611,"x_min":6,"x_max":605,"o":"m 96 951 q 181 1037 141 1003 q 252 1090 221 1071 q 302 1119 282 1110 q 328 1131 322 1127 q 388 1097 359 1117 q 444 1052 417 1076 q 498 1001 471 1028 q 551 948 524 975 q 560 931 557 941 q 553 913 563 920 q 549 909 552 912 q 535 897 545 905 q 507 873 525 889 q 457 832 488 858 q 450 831 453 832 q 442 832 448 830 q 380 908 403 880 q 343 952 356 936 q 324 974 330 968 q 313 984 318 980 q 276 953 300 981 q 200 862 252 924 q 194 859 198 860 q 179 863 191 858 l 98 932 q 95 942 96 935 q 96 951 94 948 m 73 258 q 72 362 73 310 q 71 466 72 414 q 53 464 61 466 q 35 459 45 462 q 8 483 9 455 q 6 509 7 495 q 6 539 6 523 q 9 615 6 576 q 17 686 12 654 q 28 715 20 703 q 54 733 36 727 q 149 759 97 748 q 252 780 200 771 q 353 793 303 788 q 443 802 403 799 q 512 807 484 806 q 549 808 539 808 q 575 802 565 808 q 589 778 584 796 q 589 763 589 772 q 589 735 589 755 q 586 680 588 715 q 580 584 584 645 q 576 558 580 571 q 553 544 572 546 q 519 542 537 543 q 474 539 501 542 q 407 532 447 537 q 309 519 368 528 q 305 499 306 509 q 304 483 304 490 q 330 487 314 484 q 365 492 346 490 q 405 497 384 495 q 444 498 426 498 q 463 493 457 499 q 465 476 469 487 l 442 362 q 428 339 439 346 q 409 332 418 332 l 278 316 q 275 281 277 300 q 273 228 274 262 l 500 346 q 538 354 521 356 q 565 334 556 351 q 592 259 579 297 q 605 181 605 221 q 601 163 605 171 q 589 149 597 154 q 442 83 495 108 q 359 45 389 59 q 313 24 329 31 q 277 9 296 17 q 253 2 264 3 q 228 14 242 1 l 97 139 q 81 159 88 148 q 73 182 74 169 l 73 258 z "},"Ë":{"ha":611,"x_min":6,"x_max":605,"o":"m 174 822 q 112 855 133 822 q 91 929 91 888 q 98 977 91 954 q 113 1009 103 992 q 137 1041 123 1025 q 170 1065 150 1056 q 212 1078 189 1075 q 246 1071 230 1079 q 273 1051 262 1064 q 291 1021 285 1038 q 297 985 297 1003 q 289 931 297 959 q 266 877 281 902 q 227 837 250 853 q 174 822 204 822 m 405 814 q 344 847 365 814 q 323 921 323 880 q 330 969 323 946 q 344 1001 334 984 q 368 1032 354 1017 q 401 1057 382 1047 q 443 1069 420 1067 q 477 1063 462 1071 q 505 1043 493 1056 q 523 1013 516 1030 q 529 977 529 995 q 521 922 529 951 q 497 869 513 894 q 458 829 481 845 q 405 814 435 814 m 73 258 q 72 362 73 310 q 71 466 72 414 q 53 464 61 466 q 35 459 45 462 q 8 483 9 455 q 6 509 7 495 q 6 539 6 523 q 9 615 6 576 q 17 686 12 654 q 28 715 20 703 q 54 733 36 727 q 149 759 97 748 q 252 780 200 771 q 353 793 303 788 q 443 802 403 799 q 512 807 484 806 q 549 808 539 808 q 575 802 565 808 q 589 778 584 796 q 589 763 589 772 q 589 735 589 755 q 586 680 588 715 q 580 584 584 645 q 576 558 580 571 q 553 544 572 546 q 519 542 537 543 q 474 539 501 542 q 407 532 447 537 q 309 519 368 528 q 305 499 306 509 q 304 483 304 490 q 330 487 314 484 q 365 492 346 490 q 405 497 384 495 q 444 498 426 498 q 463 493 457 499 q 465 476 469 487 l 442 362 q 428 339 439 346 q 409 332 418 332 l 278 316 q 275 281 277 300 q 273 228 274 262 l 500 346 q 538 354 521 356 q 565 334 556 351 q 592 259 579 297 q 605 181 605 221 q 601 163 605 171 q 589 149 597 154 q 442 83 495 108 q 359 45 389 59 q 313 24 329 31 q 277 9 296 17 q 253 2 264 3 q 228 14 242 1 l 97 139 q 81 159 88 148 q 73 182 74 169 l 73 258 z "},"Ì":{"ha":422,"x_min":5,"x_max":418,"o":"m 332 867 l 294 826 q 272 822 278 821 q 262 825 266 823 q 143 920 198 865 q 39 1039 88 976 q 35 1054 29 1045 q 47 1068 41 1063 q 81 1100 57 1078 q 159 1168 105 1122 q 164 1172 160 1169 q 173 1177 168 1175 q 184 1176 178 1178 q 194 1163 190 1174 l 341 890 l 332 867 m 29 61 q 22 65 27 63 q 13 75 17 68 q 6 91 8 81 q 9 118 5 102 l 127 786 q 137 804 131 802 q 150 806 142 807 q 271 770 209 787 q 396 733 332 752 q 415 718 412 730 q 412 694 418 705 q 410 679 418 706 q 387 600 403 652 q 351 480 372 549 q 309 341 330 412 q 282 244 295 293 q 258 154 269 196 q 241 81 248 112 q 234 37 235 50 q 228 14 230 24 q 205 2 226 3 q 115 23 160 5 q 29 61 69 41 z "},"Í":{"ha":491,"x_min":5,"x_max":488,"o":"m 368 1178 q 429 1097 406 1127 q 463 1049 451 1066 q 478 1025 475 1031 q 484 1017 481 1019 q 473 990 488 1003 q 429 946 450 968 q 385 905 407 924 q 338 869 362 885 q 286 843 314 853 q 281 839 286 840 q 270 844 277 838 q 248 870 260 853 q 229 900 235 888 q 225 914 223 911 q 231 927 227 917 q 275 1014 256 971 q 310 1093 295 1058 q 334 1152 325 1127 q 346 1182 344 1176 q 368 1178 356 1194 m 29 61 q 22 65 27 63 q 13 75 17 68 q 6 91 8 81 q 9 118 5 102 l 127 786 q 137 804 131 802 q 150 806 142 807 q 271 770 209 787 q 396 733 332 752 q 415 718 412 730 q 412 694 418 705 q 410 679 418 706 q 387 600 403 652 q 351 480 372 549 q 309 341 330 412 q 282 244 295 293 q 258 154 269 196 q 241 81 248 112 q 234 37 235 50 q 228 14 230 24 q 205 2 226 3 q 115 23 160 5 q 29 61 69 41 z "},"Î":{"ha":506,"x_min":5,"x_max":502,"o":"m 36 951 q 121 1037 81 1003 q 192 1090 161 1071 q 242 1119 222 1110 q 267 1131 262 1127 q 328 1097 299 1117 q 384 1052 356 1076 q 438 1001 411 1028 q 491 948 464 975 q 499 931 497 941 q 493 913 502 920 q 488 909 492 912 q 475 897 485 905 q 447 873 465 889 q 397 832 428 858 q 390 831 392 832 q 382 832 388 830 q 319 908 343 880 q 283 952 296 936 q 264 974 270 968 q 252 984 258 980 q 216 953 240 981 q 140 862 192 924 q 134 859 138 860 q 119 863 131 858 l 38 932 q 35 942 36 935 q 36 951 34 948 m 29 61 q 22 65 27 63 q 13 75 17 68 q 6 91 8 81 q 9 118 5 102 l 127 786 q 137 804 131 802 q 150 806 142 807 q 271 770 209 787 q 396 733 332 752 q 415 718 412 730 q 412 694 418 705 q 410 679 418 706 q 387 600 403 652 q 351 480 372 549 q 309 341 330 412 q 282 244 295 293 q 258 154 269 196 q 241 81 248 112 q 234 37 235 50 q 228 14 230 24 q 205 2 226 3 q 115 23 160 5 q 29 61 69 41 z "},"Ï":{"ha":507,"x_min":5,"x_max":501,"o":"m 146 851 q 84 884 105 851 q 64 958 64 917 q 71 1006 64 983 q 85 1038 75 1021 q 109 1069 95 1054 q 142 1094 123 1084 q 184 1106 161 1104 q 218 1100 203 1108 q 245 1080 234 1093 q 263 1050 257 1067 q 270 1014 270 1032 q 262 959 270 988 q 238 906 253 931 q 199 866 222 882 q 146 851 176 851 m 377 843 q 316 876 337 843 q 295 950 295 909 q 302 998 295 975 q 317 1030 307 1013 q 340 1061 326 1046 q 373 1086 354 1076 q 416 1098 392 1096 q 450 1092 434 1100 q 477 1072 465 1084 q 495 1042 488 1059 q 501 1006 501 1024 q 493 951 501 980 q 469 898 485 922 q 431 858 454 874 q 377 843 407 843 m 29 61 q 22 65 27 63 q 13 75 17 68 q 6 91 8 81 q 9 118 5 102 l 127 786 q 137 804 131 802 q 150 806 142 807 q 271 770 209 787 q 396 733 332 752 q 415 718 412 730 q 412 694 418 705 q 410 679 418 706 q 387 600 403 652 q 351 480 372 549 q 309 341 330 412 q 282 244 295 293 q 258 154 269 196 q 241 81 248 112 q 234 37 235 50 q 228 14 230 24 q 205 2 226 3 q 115 23 160 5 q 29 61 69 41 z "},"Ð":{"ha":649,"x_min":6,"x_max":644,"o":"m 7 348 q 10 361 7 356 q 22 366 13 366 q 53 366 37 366 q 84 368 68 367 l 79 412 l 60 412 q 49 420 51 416 q 46 427 46 424 q 36 546 41 500 q 29 620 32 591 q 23 666 25 649 q 20 697 21 683 q 19 724 20 712 q 39 741 19 736 q 127 766 76 753 q 229 787 177 778 q 330 802 281 796 q 414 809 380 808 q 435 809 424 809 q 458 806 447 809 q 480 796 470 803 q 497 772 491 788 l 631 505 q 644 444 644 477 q 633 391 644 416 q 591 300 619 350 q 530 202 564 251 q 462 106 497 153 q 400 22 428 59 q 376 4 392 9 q 341 5 359 -1 q 280 17 314 8 q 215 36 245 27 q 161 54 184 46 q 131 65 138 63 q 105 83 113 73 q 98 116 97 93 q 95 151 96 133 q 94 188 95 169 q 50 182 66 184 q 24 181 34 179 q 12 185 15 182 q 8 197 9 188 q 6 222 7 208 q 6 250 6 235 q 7 304 6 278 q 7 348 8 331 m 321 462 q 320 439 321 455 q 319 403 319 422 q 319 364 319 384 q 318 329 318 344 q 341 362 330 341 q 362 402 353 382 q 378 439 372 422 q 384 462 384 456 q 377 477 384 472 q 372 478 374 479 q 347 475 360 478 q 321 462 334 471 z "},"Ñ":{"ha":648,"x_min":6,"x_max":642,"o":"m 131 859 q 125 898 125 880 q 134 954 125 926 q 159 1006 142 983 q 198 1043 175 1029 q 252 1058 222 1058 q 296 1049 277 1058 q 332 1030 315 1041 q 366 1010 350 1020 q 399 999 382 1001 q 444 1006 419 997 q 488 1053 469 1016 q 493 1034 492 1044 q 494 1013 494 1023 q 484 957 494 985 q 455 907 473 929 q 411 872 436 885 q 354 856 385 858 q 319 863 339 856 q 279 879 300 870 q 237 895 258 888 q 196 902 215 902 q 160 892 176 902 q 132 856 144 883 l 131 859 m 251 0 q 105 33 157 20 q 37 51 53 46 q 12 62 19 56 q 6 87 6 68 q 12 271 9 172 q 19 461 15 369 q 26 628 22 553 q 36 744 30 704 q 57 769 39 767 q 88 757 75 770 q 182 679 140 716 q 258 610 225 641 q 313 557 291 579 q 347 529 336 536 q 345 599 348 558 q 339 679 343 640 q 330 748 334 719 q 325 784 326 778 q 327 800 322 795 q 341 805 332 804 q 362 804 351 806 q 381 801 374 802 q 428 789 399 796 q 490 773 457 782 q 554 751 522 763 q 611 725 586 738 q 626 717 619 721 q 637 705 633 713 q 641 683 640 697 q 640 647 642 669 q 634 582 638 625 q 623 484 630 538 q 611 369 617 429 q 598 254 604 309 q 586 155 591 199 q 578 87 580 110 q 575 67 576 78 q 568 48 573 56 q 553 38 563 41 q 528 44 544 35 q 459 118 498 80 q 384 189 420 156 q 318 245 347 222 q 278 273 288 267 q 270 232 272 264 q 267 163 267 200 q 269 90 267 126 q 272 38 270 54 q 270 10 273 22 q 251 0 266 -2 z "},"Ò":{"ha":615,"x_min":6,"x_max":609,"o":"m 465 877 l 427 837 q 405 832 411 831 q 395 836 399 833 q 276 931 331 875 q 172 1050 221 986 q 168 1064 162 1056 q 181 1079 174 1073 q 214 1110 190 1088 q 292 1178 238 1132 q 297 1182 293 1179 q 306 1187 301 1185 q 317 1186 311 1189 q 328 1174 323 1184 l 475 900 l 465 877 m 161 16 q 109 63 137 31 q 59 137 82 94 q 21 233 36 179 q 7 345 6 286 q 24 445 7 397 q 64 535 41 493 q 113 608 88 576 q 156 659 139 640 q 201 703 174 677 q 259 751 228 728 q 324 791 291 774 q 387 807 358 807 q 439 795 414 808 q 489 752 464 782 q 541 672 514 721 q 600 552 567 623 q 609 507 609 537 q 595 423 609 470 q 564 332 582 376 q 525 250 545 287 q 494 197 506 213 q 468 159 485 183 q 427 108 450 134 q 373 56 403 81 q 310 16 344 31 q 229 -1 272 -1 q 192 3 209 -1 q 161 16 174 7 m 332 375 q 310 367 319 375 q 294 348 300 360 q 285 321 288 336 q 282 292 282 306 q 288 253 282 270 q 304 237 294 237 q 323 250 314 237 q 340 280 332 263 q 352 314 347 297 q 356 337 356 331 q 356 347 356 340 q 353 359 355 353 q 345 370 351 366 q 332 375 340 375 z "},"Ó":{"ha":615,"x_min":6,"x_max":609,"o":"m 385 1175 q 446 1093 424 1124 q 480 1045 469 1063 q 495 1021 492 1028 q 501 1014 499 1015 q 491 986 506 1000 q 446 942 468 964 q 402 901 425 920 q 355 866 380 882 q 303 839 331 850 q 299 836 303 837 q 287 840 294 834 q 265 867 278 850 q 247 897 252 884 q 242 910 241 907 q 249 924 244 913 q 293 1011 273 968 q 328 1089 313 1054 q 352 1148 343 1124 q 363 1178 361 1172 q 385 1175 374 1191 m 161 16 q 109 63 137 31 q 59 137 82 94 q 21 233 36 179 q 7 345 6 286 q 24 445 7 397 q 64 535 41 493 q 113 608 88 576 q 156 659 139 640 q 201 703 174 677 q 259 751 228 728 q 324 791 291 774 q 387 807 358 807 q 439 795 414 808 q 489 752 464 782 q 541 672 514 721 q 600 552 567 623 q 609 507 609 537 q 595 423 609 470 q 564 332 582 376 q 525 250 545 287 q 494 197 506 213 q 468 159 485 183 q 427 108 450 134 q 373 56 403 81 q 310 16 344 31 q 229 -1 272 -1 q 192 3 209 -1 q 161 16 174 7 m 332 375 q 310 367 319 375 q 294 348 300 360 q 285 321 288 336 q 282 292 282 306 q 288 253 282 270 q 304 237 294 237 q 323 250 314 237 q 340 280 332 263 q 352 314 347 297 q 356 337 356 331 q 356 347 356 340 q 353 359 355 353 q 345 370 351 366 q 332 375 340 375 z "},"Ô":{"ha":615,"x_min":6,"x_max":609,"o":"m 142 914 q 227 1000 188 966 q 298 1053 267 1034 q 348 1082 329 1073 q 374 1094 368 1090 q 434 1060 405 1080 q 490 1015 463 1039 q 544 964 517 991 q 597 911 571 938 q 606 894 603 904 q 600 876 609 883 q 595 872 598 875 q 582 860 591 868 q 553 836 572 852 q 503 795 535 821 q 497 794 499 795 q 488 795 494 793 q 426 871 449 843 q 389 915 403 899 q 370 937 376 931 q 359 947 365 943 q 322 916 346 944 q 247 825 299 887 q 241 822 244 823 q 226 826 237 821 l 145 895 q 141 905 142 898 q 142 914 140 911 m 161 16 q 109 63 137 31 q 59 137 82 94 q 21 233 36 179 q 7 345 6 286 q 24 445 7 397 q 64 535 41 493 q 113 608 88 576 q 156 659 139 640 q 201 703 174 677 q 259 751 228 728 q 324 791 291 774 q 387 807 358 807 q 439 795 414 808 q 489 752 464 782 q 541 672 514 721 q 600 552 567 623 q 609 507 609 537 q 595 423 609 470 q 564 332 582 376 q 525 250 545 287 q 494 197 506 213 q 468 159 485 183 q 427 108 450 134 q 373 56 403 81 q 310 16 344 31 q 229 -1 272 -1 q 192 3 209 -1 q 161 16 174 7 m 332 375 q 310 367 319 375 q 294 348 300 360 q 285 321 288 336 q 282 292 282 306 q 288 253 282 270 q 304 237 294 237 q 323 250 314 237 q 340 280 332 263 q 352 314 347 297 q 356 337 356 331 q 356 347 356 340 q 353 359 355 353 q 345 370 351 366 q 332 375 340 375 z "},"Õ":{"ha":615,"x_min":6,"x_max":609,"o":"m 185 853 q 179 892 179 874 q 188 948 179 920 q 213 1000 197 977 q 253 1038 229 1023 q 307 1052 277 1052 q 350 1043 331 1052 q 387 1024 369 1035 q 420 1005 404 1014 q 454 993 436 995 q 498 1001 473 991 q 543 1047 523 1010 q 547 1028 546 1038 q 549 1007 549 1017 q 538 951 549 979 q 509 902 528 924 q 465 866 491 880 q 409 851 440 852 q 374 858 394 851 q 333 873 354 865 q 291 889 313 882 q 250 896 270 896 q 214 887 230 896 q 186 851 198 877 l 185 853 m 161 16 q 109 63 137 31 q 59 137 82 94 q 21 233 36 179 q 7 345 6 286 q 24 445 7 397 q 64 535 41 493 q 113 608 88 576 q 156 659 139 640 q 201 703 174 677 q 259 751 228 728 q 324 791 291 774 q 387 807 358 807 q 439 795 414 808 q 489 752 464 782 q 541 672 514 721 q 600 552 567 623 q 609 507 609 537 q 595 423 609 470 q 564 332 582 376 q 525 250 545 287 q 494 197 506 213 q 468 159 485 183 q 427 108 450 134 q 373 56 403 81 q 310 16 344 31 q 229 -1 272 -1 q 192 3 209 -1 q 161 16 174 7 m 332 375 q 310 367 319 375 q 294 348 300 360 q 285 321 288 336 q 282 292 282 306 q 288 253 282 270 q 304 237 294 237 q 323 250 314 237 q 340 280 332 263 q 352 314 347 297 q 356 337 356 331 q 356 347 356 340 q 353 359 355 353 q 345 370 351 366 q 332 375 340 375 z "},"Ö":{"ha":615,"x_min":6,"x_max":609,"o":"m 230 841 q 169 874 190 841 q 148 949 148 907 q 155 997 148 973 q 170 1028 160 1012 q 193 1060 179 1045 q 226 1085 207 1075 q 269 1097 245 1095 q 303 1091 287 1098 q 330 1071 318 1083 q 348 1041 341 1058 q 354 1005 354 1023 q 346 950 354 979 q 322 897 338 921 q 284 857 307 873 q 230 841 260 841 m 462 833 q 400 866 421 833 q 380 941 380 899 q 387 988 380 965 q 401 1020 391 1003 q 425 1052 411 1037 q 458 1077 439 1067 q 500 1089 477 1087 q 534 1083 519 1090 q 561 1063 550 1075 q 579 1032 573 1050 q 586 997 586 1015 q 578 942 586 971 q 554 889 569 913 q 515 849 538 865 q 462 833 492 833 m 161 16 q 109 63 137 31 q 59 137 82 94 q 21 233 36 179 q 7 345 6 286 q 24 445 7 397 q 64 535 41 493 q 113 608 88 576 q 156 659 139 640 q 201 703 174 677 q 259 751 228 728 q 324 791 291 774 q 387 807 358 807 q 439 795 414 808 q 489 752 464 782 q 541 672 514 721 q 600 552 567 623 q 609 507 609 537 q 595 423 609 470 q 564 332 582 376 q 525 250 545 287 q 494 197 506 213 q 468 159 485 183 q 427 108 450 134 q 373 56 403 81 q 310 16 344 31 q 229 -1 272 -1 q 192 3 209 -1 q 161 16 174 7 m 332 375 q 310 367 319 375 q 294 348 300 360 q 285 321 288 336 q 282 292 282 306 q 288 253 282 270 q 304 237 294 237 q 323 250 314 237 q 340 280 332 263 q 352 314 347 297 q 356 337 356 331 q 356 347 356 340 q 353 359 355 353 q 345 370 351 366 q 332 375 340 375 z "},"Ø":{"ha":712,"x_min":5,"x_max":711,"o":"m 600 536 q 609 491 609 521 q 595 407 609 454 q 564 315 582 360 q 525 234 545 271 q 494 181 506 197 q 463 142 485 167 q 411 90 441 117 q 347 38 381 63 q 279 -2 313 13 l 265 -8 l 256 -34 q 245 -52 251 -45 q 226 -64 238 -58 q 174 -79 207 -71 q 109 -95 141 -87 q 55 -109 78 -103 q 35 -116 32 -115 q 16 -112 28 -115 q 7 -104 5 -110 q 54 11 36 -32 q 83 81 72 54 q 28 191 51 127 q 7 329 5 255 q 24 429 7 381 q 64 519 41 477 q 113 592 88 560 q 156 642 139 624 q 196 682 171 660 q 249 727 220 705 q 308 766 278 749 q 367 788 339 782 q 377 825 370 804 q 396 848 383 846 q 542 871 487 866 q 627 876 597 876 q 666 874 654 876 q 683 873 677 873 q 703 865 696 874 q 700 837 711 855 q 627 719 662 774 q 563 612 593 664 q 581 576 572 595 q 600 536 590 557 m 332 359 q 310 351 319 359 q 294 332 300 344 q 285 304 288 319 q 282 275 282 289 q 288 237 282 253 q 304 221 294 221 q 323 234 314 221 q 340 264 332 247 q 352 298 347 281 q 356 321 356 315 q 356 330 356 324 q 353 343 355 337 q 345 354 351 350 q 332 359 340 359 z "},"Ù":{"ha":727,"x_min":6,"x_max":721,"o":"m 478 894 l 440 853 q 418 848 424 847 q 407 852 412 850 q 289 947 344 891 q 185 1066 234 1002 q 181 1080 175 1072 q 193 1095 186 1089 q 227 1126 203 1104 q 304 1194 251 1148 q 310 1198 306 1196 q 319 1203 314 1201 q 330 1203 324 1205 q 340 1190 336 1200 l 487 917 l 478 894 m 289 777 q 307 783 299 780 q 322 786 316 786 q 333 782 329 786 q 337 766 337 778 q 335 672 336 719 q 334 579 334 625 q 339 380 334 471 q 353 235 343 289 q 369 224 359 229 q 396 229 380 219 q 390 407 396 318 q 384 588 384 497 q 388 692 384 640 q 392 719 387 708 q 413 731 397 729 l 698 807 q 719 800 718 809 q 720 786 721 792 q 703 663 712 730 q 685 522 693 595 q 672 374 677 449 q 667 229 667 299 q 668 164 667 196 q 672 104 670 133 q 670 83 674 89 q 649 74 667 76 q 604 64 630 71 q 550 50 578 58 q 498 33 523 42 q 456 17 473 24 q 435 14 442 9 q 425 30 428 20 q 421 50 422 39 q 419 68 420 60 q 405 57 414 65 q 384 40 396 50 q 359 21 372 30 q 336 6 346 12 q 312 3 322 0 q 288 10 302 6 q 170 59 211 42 q 110 93 130 76 q 96 123 102 109 q 84 157 90 138 q 72 203 79 176 q 56 270 65 229 q 8 634 15 451 q 8 660 6 649 q 29 679 10 670 l 289 777 z "},"Ú":{"ha":727,"x_min":6,"x_max":721,"o":"m 440 1185 q 501 1104 478 1134 q 535 1056 523 1073 q 550 1032 546 1038 q 556 1024 553 1025 q 545 997 560 1010 q 501 953 522 975 q 457 911 479 931 q 410 876 434 892 q 358 850 385 860 q 353 846 358 847 q 341 851 348 845 q 319 877 332 860 q 301 907 307 895 q 297 921 295 918 q 303 934 299 924 q 347 1021 328 978 q 382 1100 367 1065 q 406 1159 397 1134 q 418 1189 416 1183 q 440 1185 428 1201 m 289 777 q 307 783 299 780 q 322 786 316 786 q 333 782 329 786 q 337 766 337 778 q 335 672 336 719 q 334 579 334 625 q 339 380 334 471 q 353 235 343 289 q 369 224 359 229 q 396 229 380 219 q 390 407 396 318 q 384 588 384 497 q 388 692 384 640 q 392 719 387 708 q 413 731 397 729 l 698 807 q 719 800 718 809 q 720 786 721 792 q 703 663 712 730 q 685 522 693 595 q 672 374 677 449 q 667 229 667 299 q 668 164 667 196 q 672 104 670 133 q 670 83 674 89 q 649 74 667 76 q 604 64 630 71 q 550 50 578 58 q 498 33 523 42 q 456 17 473 24 q 435 14 442 9 q 425 30 428 20 q 421 50 422 39 q 419 68 420 60 q 405 57 414 65 q 384 40 396 50 q 359 21 372 30 q 336 6 346 12 q 312 3 322 0 q 288 10 302 6 q 170 59 211 42 q 110 93 130 76 q 96 123 102 109 q 84 157 90 138 q 72 203 79 176 q 56 270 65 229 q 8 634 15 451 q 8 660 6 649 q 29 679 10 670 l 289 777 z "},"Û":{"ha":727,"x_min":6,"x_max":721,"o":"m 148 971 q 233 1057 193 1023 q 304 1110 273 1090 q 354 1138 334 1130 q 380 1150 374 1147 q 440 1116 411 1137 q 496 1072 469 1096 q 550 1021 523 1047 q 603 968 576 994 q 612 950 609 961 q 605 933 615 940 q 601 928 604 932 q 587 917 597 925 q 559 893 578 909 q 509 852 541 877 q 502 851 505 852 q 494 852 500 850 q 432 928 455 899 q 395 972 409 956 q 376 994 382 987 q 365 1003 370 1000 q 328 972 352 1001 q 252 882 304 943 q 247 878 250 880 q 231 883 243 877 l 150 951 q 147 961 148 955 q 148 971 146 968 m 289 777 q 307 783 299 780 q 322 786 316 786 q 333 782 329 786 q 337 766 337 778 q 335 672 336 719 q 334 579 334 625 q 339 380 334 471 q 353 235 343 289 q 369 224 359 229 q 396 229 380 219 q 390 407 396 318 q 384 588 384 497 q 388 692 384 640 q 392 719 387 708 q 413 731 397 729 l 698 807 q 719 800 718 809 q 720 786 721 792 q 703 663 712 730 q 685 522 693 595 q 672 374 677 449 q 667 229 667 299 q 668 164 667 196 q 672 104 670 133 q 670 83 674 89 q 649 74 667 76 q 604 64 630 71 q 550 50 578 58 q 498 33 523 42 q 456 17 473 24 q 435 14 442 9 q 425 30 428 20 q 421 50 422 39 q 419 68 420 60 q 405 57 414 65 q 384 40 396 50 q 359 21 372 30 q 336 6 346 12 q 312 3 322 0 q 288 10 302 6 q 170 59 211 42 q 110 93 130 76 q 96 123 102 109 q 84 157 90 138 q 72 203 79 176 q 56 270 65 229 q 8 634 15 451 q 8 660 6 649 q 29 679 10 670 l 289 777 z "},"Ü":{"ha":727,"x_min":6,"x_max":721,"o":"m 242 822 q 181 855 201 822 q 160 929 160 888 q 167 977 160 954 q 181 1009 171 992 q 205 1041 191 1025 q 238 1065 219 1056 q 280 1078 257 1075 q 314 1071 299 1079 q 341 1051 330 1064 q 359 1021 353 1038 q 366 985 366 1003 q 358 931 366 959 q 334 877 350 902 q 295 837 318 853 q 242 822 272 822 m 473 814 q 412 847 433 814 q 391 921 391 880 q 398 969 391 946 q 413 1001 403 984 q 436 1032 422 1017 q 469 1057 450 1047 q 512 1069 488 1067 q 546 1063 530 1071 q 573 1043 561 1056 q 591 1013 584 1030 q 597 977 597 995 q 589 922 597 951 q 565 869 581 894 q 527 829 550 845 q 473 814 503 814 m 289 777 q 307 783 299 780 q 322 786 316 786 q 333 782 329 786 q 337 766 337 778 q 335 672 336 719 q 334 579 334 625 q 339 380 334 471 q 353 235 343 289 q 369 224 359 229 q 396 229 380 219 q 390 407 396 318 q 384 588 384 497 q 388 692 384 640 q 392 719 387 708 q 413 731 397 729 l 698 807 q 719 800 718 809 q 720 786 721 792 q 703 663 712 730 q 685 522 693 595 q 672 374 677 449 q 667 229 667 299 q 668 164 667 196 q 672 104 670 133 q 670 83 674 89 q 649 74 667 76 q 604 64 630 71 q 550 50 578 58 q 498 33 523 42 q 456 17 473 24 q 435 14 442 9 q 425 30 428 20 q 421 50 422 39 q 419 68 420 60 q 405 57 414 65 q 384 40 396 50 q 359 21 372 30 q 336 6 346 12 q 312 3 322 0 q 288 10 302 6 q 170 59 211 42 q 110 93 130 76 q 96 123 102 109 q 84 157 90 138 q 72 203 79 176 q 56 270 65 229 q 8 634 15 451 q 8 660 6 649 q 29 679 10 670 l 289 777 z "},"Ý":{"ha":766,"x_min":3,"x_max":763,"o":"m 450 1182 q 511 1100 488 1131 q 545 1052 534 1069 q 560 1028 557 1035 q 566 1021 564 1022 q 556 993 571 1007 q 511 949 532 971 q 467 908 490 927 q 420 873 444 889 q 368 846 396 856 q 363 843 368 844 q 352 847 359 841 q 330 874 343 856 q 311 904 317 891 q 307 917 306 914 q 314 931 309 920 q 358 1018 338 975 q 392 1096 377 1061 q 417 1155 407 1131 q 428 1185 426 1179 q 450 1182 439 1198 m 192 57 q 178 65 181 60 q 179 87 175 69 q 187 117 183 98 q 197 165 191 135 q 209 236 203 194 q 223 336 215 278 l 13 605 q 6 621 3 612 q 14 633 9 630 q 93 690 61 668 q 152 729 125 712 q 206 763 179 747 q 270 801 233 779 q 284 805 274 803 q 297 794 293 807 l 394 601 l 494 785 q 505 793 499 793 q 517 792 510 794 q 528 786 521 791 q 557 765 535 781 q 624 716 580 749 q 748 625 669 683 q 759 611 756 619 q 753 593 763 602 l 494 288 q 500 160 494 223 q 506 27 506 96 q 502 9 508 14 q 478 6 497 3 q 411 12 455 5 q 319 28 368 19 q 234 46 262 39 q 192 57 206 52 z "},"Þ":{"ha":613,"x_min":5,"x_max":611,"o":"m 29 67 q 22 71 27 68 q 13 80 17 74 q 6 97 8 87 q 9 124 5 108 l 127 792 q 137 810 131 808 q 150 811 142 813 q 271 775 209 793 q 396 738 332 758 q 415 723 412 736 q 412 700 418 711 q 414 701 416 706 q 409 681 413 696 q 398 644 405 667 q 383 593 391 622 q 434 604 414 604 q 463 604 447 608 q 486 595 479 601 q 521 565 502 583 q 558 527 541 547 q 588 484 575 506 q 604 444 601 463 q 602 391 611 429 q 565 305 593 352 q 493 210 538 258 q 384 128 448 162 q 337 108 361 116 q 282 100 313 100 q 264 101 273 100 q 245 105 255 102 q 237 67 240 83 q 234 43 235 51 q 228 20 230 30 q 205 8 226 9 q 115 28 160 10 q 29 67 69 46 m 381 425 q 354 415 367 428 q 331 379 340 402 q 316 330 322 356 q 310 280 310 303 q 323 234 310 247 q 339 244 330 234 q 356 267 348 253 q 370 293 363 280 q 378 314 376 307 q 384 338 380 321 q 390 374 388 355 q 391 407 392 392 q 381 425 389 422 z "},"ß":{"ha":564,"x_min":6,"x_max":559,"o":"m 287 438 q 299 444 292 438 q 314 462 307 451 q 327 487 322 473 q 332 513 332 500 q 309 549 332 537 q 297 552 309 553 q 271 545 286 550 q 242 533 256 541 q 226 517 228 525 q 239 453 233 497 q 251 354 245 409 q 262 241 257 300 q 270 134 266 183 q 275 51 273 84 q 278 12 277 17 l 68 72 q 58 79 63 74 q 51 101 53 84 q 53 237 51 169 q 56 383 54 306 q 35 383 43 381 q 24 388 28 384 q 20 395 21 391 q 19 400 19 399 q 9 517 13 459 q 6 634 6 574 q 9 657 6 648 q 24 675 13 667 q 128 727 67 706 q 248 762 189 749 q 352 781 307 775 q 409 787 397 787 q 430 784 420 787 q 448 772 440 781 q 509 696 487 723 q 540 655 530 669 q 552 632 550 640 q 553 613 553 624 q 545 571 556 595 q 517 521 535 546 q 479 472 500 495 q 440 433 458 448 q 488 399 465 420 q 526 353 510 378 q 550 299 542 328 q 557 242 559 270 q 549 173 554 201 q 525 122 543 145 q 473 79 507 100 q 381 35 439 59 q 349 71 365 42 q 333 135 333 100 q 341 178 333 159 q 391 212 375 188 q 406 264 406 237 q 385 317 406 294 q 325 334 365 339 q 306 347 314 336 q 295 374 299 359 q 289 407 291 390 q 287 438 287 425 z "},"à":{"ha":662,"x_min":6,"x_max":655,"o":"m 479 863 l 441 823 q 419 818 425 817 q 409 822 413 819 q 290 917 345 861 q 186 1036 235 972 q 182 1050 176 1042 q 194 1065 188 1059 q 228 1096 204 1074 q 306 1164 252 1118 q 311 1168 307 1166 q 320 1173 315 1171 q 331 1172 325 1175 q 341 1160 337 1170 l 488 887 l 479 863 m 13 170 q 6 198 6 177 l 242 764 q 258 785 248 777 q 282 791 267 793 l 538 684 q 554 670 547 679 q 564 652 561 661 l 655 23 q 655 12 655 17 q 646 6 654 7 q 635 8 644 6 q 600 16 626 10 q 524 30 574 21 q 389 56 473 39 q 378 63 383 57 q 372 75 373 69 l 361 166 l 359 166 q 339 161 355 166 q 304 151 323 157 q 270 138 286 145 q 252 127 255 132 l 220 6 q 212 0 218 0 q 201 3 207 0 q 189 10 194 6 q 179 16 183 14 l 13 170 m 350 485 q 333 441 340 469 q 315 380 326 413 q 339 381 326 380 q 359 389 351 383 q 357 437 359 410 q 350 485 355 464 z "},"á":{"ha":662,"x_min":6,"x_max":655,"o":"m 451 1144 q 512 1062 490 1093 q 546 1014 535 1031 q 561 990 558 997 q 567 983 565 984 q 557 955 572 969 q 512 911 534 933 q 468 870 491 889 q 421 834 446 851 q 369 808 397 818 q 365 804 369 806 q 353 809 360 803 q 331 836 344 818 q 313 866 318 853 q 308 879 307 876 q 315 892 310 882 q 359 980 339 936 q 394 1058 378 1023 q 418 1117 409 1093 q 429 1147 427 1141 q 451 1144 440 1160 m 13 170 q 6 198 6 177 l 242 764 q 258 785 248 777 q 282 791 267 793 l 538 684 q 554 670 547 679 q 564 652 561 661 l 655 23 q 655 12 655 17 q 646 6 654 7 q 635 8 644 6 q 600 16 626 10 q 524 30 574 21 q 389 56 473 39 q 378 63 383 57 q 372 75 373 69 l 361 166 l 359 166 q 339 161 355 166 q 304 151 323 157 q 270 138 286 145 q 252 127 255 132 l 220 6 q 212 0 218 0 q 201 3 207 0 q 189 10 194 6 q 179 16 183 14 l 13 170 m 350 485 q 333 441 340 469 q 315 380 326 413 q 339 381 326 380 q 359 389 351 383 q 357 437 359 410 q 350 485 355 464 z "},"â":{"ha":662,"x_min":6,"x_max":655,"o":"m 166 932 q 251 1017 211 984 q 321 1071 291 1051 q 372 1099 352 1090 q 397 1111 391 1108 q 457 1077 428 1097 q 513 1032 486 1057 q 567 981 541 1008 q 620 928 594 955 q 629 911 626 921 q 623 894 632 900 q 618 889 622 892 q 605 877 615 885 q 576 854 595 869 q 527 813 558 838 q 520 811 522 813 q 512 813 517 810 q 449 888 472 860 q 413 932 426 917 q 394 954 399 948 q 382 964 388 961 q 345 933 369 962 q 270 843 322 904 q 264 839 267 840 q 249 844 260 838 l 168 912 q 164 922 166 916 q 166 932 163 928 m 13 170 q 6 198 6 177 l 242 764 q 258 785 248 777 q 282 791 267 793 l 538 684 q 554 670 547 679 q 564 652 561 661 l 655 23 q 655 12 655 17 q 646 6 654 7 q 635 8 644 6 q 600 16 626 10 q 524 30 574 21 q 389 56 473 39 q 378 63 383 57 q 372 75 373 69 l 361 166 l 359 166 q 339 161 355 166 q 304 151 323 157 q 270 138 286 145 q 252 127 255 132 l 220 6 q 212 0 218 0 q 201 3 207 0 q 189 10 194 6 q 179 16 183 14 l 13 170 m 350 485 q 333 441 340 469 q 315 380 326 413 q 339 381 326 380 q 359 389 351 383 q 357 437 359 410 q 350 485 355 464 z "},"ã":{"ha":662,"x_min":6,"x_max":655,"o":"m 255 816 q 249 855 249 837 q 258 911 249 883 q 282 963 266 940 q 322 1001 299 986 q 376 1015 346 1015 q 420 1006 400 1015 q 456 987 439 998 q 490 968 473 977 q 523 956 506 958 q 568 964 543 954 q 612 1010 593 973 q 617 991 616 1001 q 618 970 618 980 q 608 914 618 942 q 579 865 597 887 q 535 829 560 843 q 478 814 509 815 q 443 821 463 814 q 403 836 424 828 q 361 852 382 845 q 319 859 339 859 q 284 850 300 859 q 256 814 267 840 l 255 816 m 13 170 q 6 198 6 177 l 242 764 q 258 785 248 777 q 282 791 267 793 l 538 684 q 554 670 547 679 q 564 652 561 661 l 655 23 q 655 12 655 17 q 646 6 654 7 q 635 8 644 6 q 600 16 626 10 q 524 30 574 21 q 389 56 473 39 q 378 63 383 57 q 372 75 373 69 l 361 166 l 359 166 q 339 161 355 166 q 304 151 323 157 q 270 138 286 145 q 252 127 255 132 l 220 6 q 212 0 218 0 q 201 3 207 0 q 189 10 194 6 q 179 16 183 14 l 13 170 m 350 485 q 333 441 340 469 q 315 380 326 413 q 339 381 326 380 q 359 389 351 383 q 357 437 359 410 q 350 485 355 464 z "},"ä":{"ha":662,"x_min":6,"x_max":655,"o":"m 293 817 q 231 850 252 817 q 211 925 211 883 q 218 972 211 949 q 232 1004 222 987 q 256 1036 242 1021 q 289 1061 270 1051 q 331 1073 308 1071 q 365 1067 350 1074 q 392 1046 381 1059 q 410 1016 404 1034 q 417 980 417 999 q 409 926 417 955 q 385 873 400 897 q 346 833 369 848 q 293 817 323 817 m 524 809 q 463 842 484 809 q 442 917 442 875 q 449 964 442 941 q 464 996 454 979 q 487 1028 473 1013 q 520 1053 501 1043 q 563 1065 539 1063 q 597 1058 581 1066 q 624 1038 612 1051 q 642 1008 635 1025 q 648 972 648 991 q 640 918 648 947 q 616 865 632 889 q 578 825 601 840 q 524 809 554 809 m 13 170 q 6 198 6 177 l 242 764 q 258 785 248 777 q 282 791 267 793 l 538 684 q 554 670 547 679 q 564 652 561 661 l 655 23 q 655 12 655 17 q 646 6 654 7 q 635 8 644 6 q 600 16 626 10 q 524 30 574 21 q 389 56 473 39 q 378 63 383 57 q 372 75 373 69 l 361 166 l 359 166 q 339 161 355 166 q 304 151 323 157 q 270 138 286 145 q 252 127 255 132 l 220 6 q 212 0 218 0 q 201 3 207 0 q 189 10 194 6 q 179 16 183 14 l 13 170 m 350 485 q 333 441 340 469 q 315 380 326 413 q 339 381 326 380 q 359 389 351 383 q 357 437 359 410 q 350 485 355 464 z "},"å":{"ha":662,"x_min":6,"x_max":655,"o":"m 291 902 q 307 961 291 931 q 348 1014 323 991 q 406 1052 374 1037 q 471 1067 439 1067 q 540 1041 512 1067 q 568 972 568 1015 q 553 901 568 933 q 513 847 538 869 q 455 814 487 825 q 389 802 424 802 q 354 810 372 802 q 322 830 336 817 q 299 861 308 843 q 291 902 291 880 m 444 933 q 430 927 436 933 q 420 913 424 921 q 417 897 417 905 q 424 884 418 889 q 442 889 434 883 q 453 905 449 896 q 454 921 456 913 q 444 933 453 929 m 13 170 q 6 198 6 177 l 242 764 q 258 785 248 777 q 282 791 267 793 l 538 684 q 554 670 547 679 q 564 652 561 661 l 655 23 q 655 12 655 17 q 646 6 654 7 q 635 8 644 6 q 600 16 626 10 q 524 30 574 21 q 389 56 473 39 q 378 63 383 57 q 372 75 373 69 l 361 166 l 359 166 q 339 161 355 166 q 304 151 323 157 q 270 138 286 145 q 252 127 255 132 l 220 6 q 212 0 218 0 q 201 3 207 0 q 189 10 194 6 q 179 16 183 14 l 13 170 m 350 485 q 333 441 340 469 q 315 380 326 413 q 339 381 326 380 q 359 389 351 383 q 357 437 359 410 q 350 485 355 464 z "},"æ":{"ha":961,"x_min":6,"x_max":955,"o":"m 13 170 q 6 198 6 177 l 242 764 q 258 785 248 777 q 282 791 267 793 l 409 737 q 554 774 475 759 q 705 797 633 788 q 831 808 778 806 q 898 811 884 811 q 924 806 914 811 q 939 781 934 800 q 939 767 939 775 q 938 738 939 758 q 936 683 938 719 q 929 588 934 648 q 925 562 929 574 q 903 547 921 550 q 869 546 887 546 q 823 543 851 545 q 757 536 796 541 q 659 522 718 531 q 655 503 655 513 q 654 486 654 493 q 679 490 663 487 q 715 496 696 493 q 755 500 734 499 q 794 501 775 501 q 813 497 807 502 q 815 479 818 491 l 792 366 q 778 343 788 350 q 758 336 767 336 l 627 319 q 625 288 626 304 q 623 243 624 271 l 624 233 l 850 350 q 888 357 870 360 q 914 338 905 354 q 942 263 928 301 q 955 184 955 225 q 951 166 955 175 q 939 153 947 157 l 655 24 l 655 23 q 655 12 655 17 q 646 6 654 7 q 622 10 644 6 q 600 5 610 6 q 578 17 590 5 l 574 21 q 501 35 545 27 q 389 56 456 43 q 378 63 383 57 q 372 75 373 69 l 361 166 l 359 166 q 339 161 355 166 q 304 151 323 157 q 270 138 286 145 q 252 127 255 132 l 220 6 q 212 0 218 0 q 201 3 207 0 q 189 10 194 6 q 179 16 183 14 l 13 170 m 350 485 q 333 441 340 469 q 315 380 326 413 q 339 381 326 380 q 359 389 351 383 q 357 437 359 410 q 350 485 355 464 z "},"è":{"ha":611,"x_min":12,"x_max":605,"o":"m 73 258 q 72 362 73 310 q 71 466 72 414 q 57 466 61 466 q 43 464 53 466 q 16 487 17 459 q 14 514 15 500 q 14 544 14 528 q 13 617 14 581 q 17 686 12 654 q 28 715 20 703 q 54 733 36 727 q 149 759 97 748 q 252 780 200 771 q 353 793 303 788 q 443 802 403 799 q 512 807 484 806 q 549 808 539 808 q 575 802 565 808 q 589 778 584 796 q 589 763 589 772 q 589 735 589 755 q 586 680 588 715 q 580 584 584 645 q 576 558 580 571 q 553 544 572 546 q 519 542 537 543 q 474 539 501 542 q 407 532 447 537 q 309 519 368 528 q 305 499 306 509 q 304 483 304 490 q 330 487 314 484 q 365 492 346 490 q 405 497 384 495 q 444 498 426 498 q 463 493 457 499 q 465 476 469 487 l 442 362 q 428 339 439 346 q 409 332 418 332 l 278 316 q 275 281 277 300 q 273 228 274 262 l 500 346 q 538 354 521 356 q 565 334 556 351 q 592 259 579 297 q 605 181 605 221 q 601 163 605 171 q 589 149 597 154 q 442 83 495 108 q 359 45 389 59 q 313 24 329 31 q 277 9 296 17 q 253 2 264 3 q 228 14 242 1 l 97 139 q 81 159 88 148 q 73 182 74 169 l 73 258 m 455 863 l 417 823 q 395 818 400 817 q 384 822 389 819 q 266 917 321 861 q 162 1036 211 972 q 157 1050 152 1042 q 170 1065 163 1059 q 204 1096 179 1074 q 281 1164 228 1118 q 286 1168 282 1166 q 296 1173 291 1171 q 307 1172 301 1175 q 317 1160 313 1170 l 464 887 l 455 863 z "},"é":{"ha":611,"x_min":6,"x_max":605,"o":"m 389 1168 q 450 1086 427 1117 q 484 1038 472 1056 q 499 1014 495 1021 q 505 1007 502 1008 q 494 979 509 993 q 450 935 471 957 q 406 894 428 913 q 359 859 383 875 q 307 832 334 843 q 302 829 307 830 q 291 833 297 828 q 269 860 281 843 q 250 890 256 877 q 246 903 244 900 q 252 917 248 906 q 296 1004 277 961 q 331 1082 316 1047 q 355 1141 346 1117 q 367 1171 365 1166 q 389 1168 377 1184 m 73 258 q 72 362 73 310 q 71 466 72 414 q 53 464 61 466 q 35 459 45 462 q 8 483 9 455 q 6 509 7 495 q 6 539 6 523 q 9 615 6 576 q 17 686 12 654 q 28 715 20 703 q 54 733 36 727 q 149 759 97 748 q 252 780 200 771 q 353 793 303 788 q 443 802 403 799 q 512 807 484 806 q 549 808 539 808 q 575 802 565 808 q 589 778 584 796 q 589 763 589 772 q 589 735 589 755 q 586 680 588 715 q 580 584 584 645 q 576 558 580 571 q 553 544 572 546 q 519 542 537 543 q 474 539 501 542 q 407 532 447 537 q 309 519 368 528 q 305 499 306 509 q 304 483 304 490 q 330 487 314 484 q 365 492 346 490 q 405 497 384 495 q 444 498 426 498 q 463 493 457 499 q 465 476 469 487 l 442 362 q 428 339 439 346 q 409 332 418 332 l 278 316 q 275 281 277 300 q 273 228 274 262 l 500 346 q 538 354 521 356 q 565 334 556 351 q 592 259 579 297 q 605 181 605 221 q 601 163 605 171 q 589 149 597 154 q 442 83 495 108 q 359 45 389 59 q 313 24 329 31 q 277 9 296 17 q 253 2 264 3 q 228 14 242 1 l 97 139 q 81 159 88 148 q 73 182 74 169 l 73 258 z "},"ê":{"ha":611,"x_min":6,"x_max":605,"o":"m 73 946 q 158 1031 118 998 q 229 1084 198 1065 q 279 1113 259 1104 q 304 1125 299 1122 q 365 1091 336 1111 q 421 1046 394 1071 q 475 995 448 1022 q 528 942 501 969 q 536 925 534 935 q 530 907 539 914 q 525 903 529 906 q 512 891 522 899 q 484 867 502 883 q 434 826 465 852 q 427 825 429 826 q 419 826 425 824 q 356 902 380 874 q 320 946 333 931 q 301 968 307 962 q 289 978 295 975 q 253 947 277 976 q 177 856 229 918 q 171 853 175 854 q 156 858 168 852 l 75 926 q 72 936 73 929 q 73 946 71 942 m 73 258 q 72 362 73 310 q 71 466 72 414 q 53 464 61 466 q 35 459 45 462 q 8 483 9 455 q 6 509 7 495 q 6 539 6 523 q 9 615 6 576 q 17 686 12 654 q 28 715 20 703 q 54 733 36 727 q 149 759 97 748 q 252 780 200 771 q 353 793 303 788 q 443 802 403 799 q 512 807 484 806 q 549 808 539 808 q 575 802 565 808 q 589 778 584 796 q 589 763 589 772 q 589 735 589 755 q 586 680 588 715 q 580 584 584 645 q 576 558 580 571 q 553 544 572 546 q 519 542 537 543 q 474 539 501 542 q 407 532 447 537 q 309 519 368 528 q 305 499 306 509 q 304 483 304 490 q 330 487 314 484 q 365 492 346 490 q 405 497 384 495 q 444 498 426 498 q 463 493 457 499 q 465 476 469 487 l 442 362 q 428 339 439 346 q 409 332 418 332 l 278 316 q 275 281 277 300 q 273 228 274 262 l 500 346 q 538 354 521 356 q 565 334 556 351 q 592 259 579 297 q 605 181 605 221 q 601 163 605 171 q 589 149 597 154 q 442 83 495 108 q 359 45 389 59 q 313 24 329 31 q 277 9 296 17 q 253 2 264 3 q 228 14 242 1 l 97 139 q 81 159 88 148 q 73 182 74 169 l 73 258 z "},"ë":{"ha":611,"x_min":6,"x_max":605,"o":"m 177 821 q 116 854 137 821 q 95 928 95 887 q 102 976 95 953 q 116 1008 106 991 q 140 1039 126 1024 q 173 1064 154 1054 q 215 1076 192 1074 q 249 1070 234 1078 q 277 1050 265 1063 q 295 1020 288 1037 q 301 984 301 1002 q 293 929 301 958 q 269 876 285 900 q 230 836 253 852 q 177 821 207 821 m 409 813 q 347 845 368 813 q 326 920 326 878 q 333 968 326 944 q 348 999 338 983 q 372 1031 358 1016 q 405 1056 385 1046 q 447 1068 424 1066 q 481 1062 465 1069 q 508 1042 497 1054 q 526 1012 520 1029 q 532 976 532 994 q 524 921 532 950 q 501 868 516 892 q 462 828 485 844 q 409 813 439 813 m 73 258 q 72 362 73 310 q 71 466 72 414 q 53 464 61 466 q 35 459 45 462 q 8 483 9 455 q 6 509 7 495 q 6 539 6 523 q 9 615 6 576 q 17 686 12 654 q 28 715 20 703 q 54 733 36 727 q 149 759 97 748 q 252 780 200 771 q 353 793 303 788 q 443 802 403 799 q 512 807 484 806 q 549 808 539 808 q 575 802 565 808 q 589 778 584 796 q 589 763 589 772 q 589 735 589 755 q 586 680 588 715 q 580 584 584 645 q 576 558 580 571 q 553 544 572 546 q 519 542 537 543 q 474 539 501 542 q 407 532 447 537 q 309 519 368 528 q 305 499 306 509 q 304 483 304 490 q 330 487 314 484 q 365 492 346 490 q 405 497 384 495 q 444 498 426 498 q 463 493 457 499 q 465 476 469 487 l 442 362 q 428 339 439 346 q 409 332 418 332 l 278 316 q 275 281 277 300 q 273 228 274 262 l 500 346 q 538 354 521 356 q 565 334 556 351 q 592 259 579 297 q 605 181 605 221 q 601 163 605 171 q 589 149 597 154 q 442 83 495 108 q 359 45 389 59 q 313 24 329 31 q 277 9 296 17 q 253 2 264 3 q 228 14 242 1 l 97 139 q 81 159 88 148 q 73 182 74 169 l 73 258 z "},"ì":{"ha":422,"x_min":5,"x_max":418,"o":"m 29 61 q 22 65 27 63 q 13 75 17 68 q 6 91 8 81 q 9 118 5 102 l 127 786 q 137 804 131 802 q 150 806 142 807 q 271 770 209 787 q 396 733 332 752 q 415 718 412 730 q 412 694 418 705 q 410 679 418 706 q 387 600 403 652 q 351 480 372 549 q 309 341 330 412 q 282 244 295 293 q 258 154 269 196 q 241 81 248 112 q 234 37 235 50 q 228 14 230 24 q 205 2 226 3 q 115 23 160 5 q 29 61 69 41 m 363 863 l 325 823 q 303 818 309 817 q 293 822 297 819 q 174 917 229 861 q 71 1036 119 972 q 66 1050 60 1042 q 79 1065 72 1059 q 112 1096 88 1074 q 190 1164 137 1118 q 195 1168 191 1166 q 204 1173 199 1171 q 215 1172 209 1175 q 226 1160 221 1170 l 373 887 l 363 863 z "},"í":{"ha":450,"x_min":5,"x_max":448,"o":"m 328 1157 q 388 1076 366 1106 q 422 1028 411 1045 q 438 1004 434 1010 q 443 997 441 998 q 433 969 448 983 q 388 925 410 947 q 344 884 367 903 q 297 848 322 865 q 245 822 273 832 q 241 818 245 819 q 229 823 236 817 q 207 850 220 832 q 189 880 194 867 q 185 893 183 890 q 191 906 186 896 q 235 994 215 950 q 270 1072 255 1037 q 294 1131 285 1106 q 306 1161 303 1155 q 328 1157 316 1174 m 29 61 q 22 65 27 63 q 13 75 17 68 q 6 91 8 81 q 9 118 5 102 l 127 786 q 137 804 131 802 q 150 806 142 807 q 271 770 209 787 q 396 733 332 752 q 415 718 412 730 q 412 694 418 705 q 410 679 418 706 q 387 600 403 652 q 351 480 372 549 q 309 341 330 412 q 282 244 295 293 q 258 154 269 196 q 241 81 248 112 q 234 37 235 50 q 228 14 230 24 q 205 2 226 3 q 115 23 160 5 q 29 61 69 41 z "},"î":{"ha":525,"x_min":5,"x_max":522,"o":"m 56 946 q 141 1031 101 998 q 211 1084 181 1065 q 262 1113 242 1104 q 287 1125 281 1122 q 347 1091 318 1111 q 403 1046 376 1071 q 457 995 431 1022 q 510 942 484 969 q 519 925 516 935 q 513 907 522 914 q 508 903 512 906 q 495 891 505 899 q 466 867 485 883 q 417 826 448 852 q 410 825 412 826 q 402 826 407 824 q 339 902 362 874 q 303 946 316 931 q 284 968 289 962 q 272 978 278 975 q 236 947 259 976 q 160 856 212 918 q 154 853 157 854 q 139 858 150 852 l 58 926 q 54 936 56 929 q 56 946 53 942 m 29 61 q 22 65 27 63 q 13 75 17 68 q 6 91 8 81 q 9 118 5 102 l 127 786 q 137 804 131 802 q 150 806 142 807 q 271 770 209 787 q 396 733 332 752 q 415 718 412 730 q 412 694 418 705 q 410 679 418 706 q 387 600 403 652 q 351 480 372 549 q 309 341 330 412 q 282 244 295 293 q 258 154 269 196 q 241 81 248 112 q 234 37 235 50 q 228 14 230 24 q 205 2 226 3 q 115 23 160 5 q 29 61 69 41 z "},"ï":{"ha":542,"x_min":5,"x_max":536,"o":"m 181 829 q 119 862 140 829 q 98 936 98 895 q 105 984 98 961 q 120 1016 110 999 q 144 1047 130 1032 q 177 1072 157 1063 q 219 1084 196 1082 q 253 1078 237 1086 q 280 1058 269 1071 q 298 1028 292 1045 q 304 992 304 1010 q 296 938 304 966 q 273 884 288 909 q 234 844 257 860 q 181 829 211 829 m 412 821 q 351 854 372 821 q 330 928 330 887 q 337 976 330 953 q 351 1008 341 991 q 375 1039 361 1024 q 408 1064 389 1054 q 450 1076 427 1074 q 484 1070 469 1078 q 512 1050 500 1063 q 530 1020 523 1037 q 536 984 536 1002 q 528 929 536 958 q 504 876 520 900 q 465 836 488 852 q 412 821 442 821 m 29 61 q 22 65 27 63 q 13 75 17 68 q 6 91 8 81 q 9 118 5 102 l 127 786 q 137 804 131 802 q 150 806 142 807 q 271 770 209 787 q 396 733 332 752 q 415 718 412 730 q 412 694 418 705 q 410 679 418 706 q 387 600 403 652 q 351 480 372 549 q 309 341 330 412 q 282 244 295 293 q 258 154 269 196 q 241 81 248 112 q 234 37 235 50 q 228 14 230 24 q 205 2 226 3 q 115 23 160 5 q 29 61 69 41 z "},"ð":{"ha":616,"x_min":6,"x_max":610,"o":"m 462 1035 q 504 1023 486 1037 q 533 991 522 1009 q 548 954 544 972 q 549 929 552 936 q 490 911 522 927 q 424 872 458 896 q 486 769 459 813 q 531 689 512 725 q 567 620 551 653 q 600 552 583 588 q 610 501 610 532 q 598 417 610 464 q 569 326 586 370 q 535 247 553 282 q 506 194 517 211 q 477 156 497 181 q 432 106 458 132 q 375 56 406 80 q 310 16 344 31 q 229 -1 272 -1 q 192 3 209 -1 q 161 16 174 7 q 109 63 137 31 q 59 137 82 94 q 21 233 36 179 q 7 345 6 286 q 31 470 10 410 q 89 582 52 531 q 181 668 126 632 q 304 721 235 705 l 277 762 q 183 698 227 722 q 137 725 153 703 q 109 766 120 748 q 101 778 103 774 q 101 784 100 781 q 108 788 103 786 q 119 795 112 789 l 208 859 l 157 928 q 153 943 147 934 q 166 957 159 951 q 199 988 175 966 q 277 1057 223 1010 q 282 1061 278 1058 q 291 1065 286 1064 q 302 1065 296 1067 q 313 1052 308 1063 l 363 970 q 418 1008 394 991 q 462 1035 443 1024 m 332 375 q 310 367 319 375 q 294 348 300 360 q 285 321 288 336 q 282 292 282 306 q 288 253 282 270 q 304 237 294 237 q 323 250 314 237 q 340 280 332 263 q 352 314 347 297 q 356 337 356 331 q 356 347 356 340 q 353 359 355 353 q 345 370 351 366 q 332 375 340 375 z "},"ñ":{"ha":648,"x_min":6,"x_max":642,"o":"m 131 883 q 125 922 125 904 q 134 979 125 950 q 159 1030 142 1007 q 198 1068 175 1053 q 252 1082 222 1082 q 296 1073 277 1082 q 332 1054 315 1065 q 366 1035 350 1044 q 399 1023 382 1025 q 444 1031 419 1021 q 488 1078 469 1041 q 493 1058 492 1068 q 494 1037 494 1047 q 484 981 494 1009 q 455 932 473 954 q 411 896 436 910 q 354 881 385 882 q 319 888 339 881 q 279 903 300 895 q 237 919 258 912 q 196 926 215 926 q 160 917 176 926 q 132 881 144 907 l 131 883 m 251 0 q 105 33 157 20 q 37 51 53 46 q 12 62 19 56 q 6 87 6 68 q 12 271 9 172 q 19 461 15 369 q 26 628 22 553 q 36 744 30 704 q 57 769 39 767 q 88 757 75 770 q 182 679 140 716 q 258 610 225 641 q 313 557 291 579 q 347 529 336 536 q 345 599 348 558 q 339 679 343 640 q 330 748 334 719 q 325 784 326 778 q 327 800 322 795 q 341 805 332 804 q 362 804 351 806 q 381 801 374 802 q 428 789 399 796 q 490 773 457 782 q 554 751 522 763 q 611 725 586 738 q 626 717 619 721 q 637 705 633 713 q 641 683 640 697 q 640 647 642 669 q 634 582 638 625 q 623 484 630 538 q 611 369 617 429 q 598 254 604 309 q 586 155 591 199 q 578 87 580 110 q 575 67 576 78 q 568 48 573 56 q 553 38 563 41 q 528 44 544 35 q 459 118 498 80 q 384 189 420 156 q 318 245 347 222 q 278 273 288 267 q 270 232 272 264 q 267 163 267 200 q 269 90 267 126 q 272 38 270 54 q 270 10 273 22 q 251 0 266 -2 z "},"ò":{"ha":615,"x_min":6,"x_max":609,"o":"m 451 863 l 413 823 q 391 818 397 817 q 381 822 385 819 q 262 917 317 861 q 159 1036 207 972 q 154 1050 148 1042 q 167 1065 160 1059 q 200 1096 176 1074 q 278 1164 225 1118 q 283 1168 279 1166 q 292 1173 287 1171 q 303 1172 297 1175 q 314 1160 309 1170 l 461 887 l 451 863 m 161 16 q 109 63 137 31 q 59 137 82 94 q 21 233 36 179 q 7 345 6 286 q 24 445 7 397 q 64 535 41 493 q 113 608 88 576 q 156 659 139 640 q 201 703 174 677 q 259 751 228 728 q 324 791 291 774 q 387 807 358 807 q 439 795 414 808 q 489 752 464 782 q 541 672 514 721 q 600 552 567 623 q 609 507 609 537 q 595 423 609 470 q 564 332 582 376 q 525 250 545 287 q 494 197 506 213 q 468 159 485 183 q 427 108 450 134 q 373 56 403 81 q 310 16 344 31 q 229 -1 272 -1 q 192 3 209 -1 q 161 16 174 7 m 332 375 q 310 367 319 375 q 294 348 300 360 q 285 321 288 336 q 282 292 282 306 q 288 253 282 270 q 304 237 294 237 q 323 250 314 237 q 340 280 332 263 q 352 314 347 297 q 356 337 356 331 q 356 347 356 340 q 353 359 355 353 q 345 370 351 366 q 332 375 340 375 z "},"ó":{"ha":615,"x_min":6,"x_max":609,"o":"m 450 1166 q 511 1084 488 1115 q 545 1036 534 1053 q 560 1012 557 1019 q 566 1005 564 1006 q 556 977 571 991 q 511 933 532 955 q 467 892 490 911 q 420 856 444 873 q 368 830 396 840 q 363 826 368 828 q 352 831 359 825 q 330 858 343 840 q 311 888 317 875 q 307 901 306 898 q 314 914 309 904 q 358 1002 338 958 q 392 1080 377 1045 q 417 1139 407 1115 q 428 1169 426 1163 q 450 1166 439 1182 m 161 16 q 109 63 137 31 q 59 137 82 94 q 21 233 36 179 q 7 345 6 286 q 24 445 7 397 q 64 535 41 493 q 113 608 88 576 q 156 659 139 640 q 201 703 174 677 q 259 751 228 728 q 324 791 291 774 q 387 807 358 807 q 439 795 414 808 q 489 752 464 782 q 541 672 514 721 q 600 552 567 623 q 609 507 609 537 q 595 423 609 470 q 564 332 582 376 q 525 250 545 287 q 494 197 506 213 q 468 159 485 183 q 427 108 450 134 q 373 56 403 81 q 310 16 344 31 q 229 -1 272 -1 q 192 3 209 -1 q 161 16 174 7 m 332 375 q 310 367 319 375 q 294 348 300 360 q 285 321 288 336 q 282 292 282 306 q 288 253 282 270 q 304 237 294 237 q 323 250 314 237 q 340 280 332 263 q 352 314 347 297 q 356 337 356 331 q 356 347 356 340 q 353 359 355 353 q 345 370 351 366 q 332 375 340 375 z "},"ô":{"ha":656,"x_min":6,"x_max":653,"o":"m 186 926 q 271 1012 231 978 q 342 1065 311 1045 q 392 1093 373 1084 q 418 1105 412 1102 q 478 1071 449 1091 q 534 1027 507 1051 q 588 976 561 1002 q 641 922 615 949 q 650 905 647 916 q 644 888 653 895 q 639 883 642 887 q 626 872 635 880 q 597 848 616 863 q 547 807 579 832 q 541 806 543 807 q 532 807 538 804 q 470 883 493 854 q 433 927 447 911 q 414 948 420 942 q 403 958 409 955 q 366 927 390 956 q 291 837 343 898 q 285 833 288 834 q 270 838 281 832 l 189 906 q 185 916 186 910 q 186 926 184 922 m 161 16 q 109 63 137 31 q 59 137 82 94 q 21 233 36 179 q 7 345 6 286 q 24 445 7 397 q 64 535 41 493 q 113 608 88 576 q 156 659 139 640 q 201 703 174 677 q 259 751 228 728 q 324 791 291 774 q 387 807 358 807 q 439 795 414 808 q 489 752 464 782 q 541 672 514 721 q 600 552 567 623 q 609 507 609 537 q 595 423 609 470 q 564 332 582 376 q 525 250 545 287 q 494 197 506 213 q 468 159 485 183 q 427 108 450 134 q 373 56 403 81 q 310 16 344 31 q 229 -1 272 -1 q 192 3 209 -1 q 161 16 174 7 m 332 375 q 310 367 319 375 q 294 348 300 360 q 285 321 288 336 q 282 292 282 306 q 288 253 282 270 q 304 237 294 237 q 323 250 314 237 q 340 280 332 263 q 352 314 347 297 q 356 337 356 331 q 356 347 356 340 q 353 359 355 353 q 345 370 351 366 q 332 375 340 375 z "},"õ":{"ha":633,"x_min":6,"x_max":627,"o":"m 264 850 q 258 889 258 870 q 267 945 258 917 q 292 997 275 973 q 332 1034 308 1020 q 385 1049 355 1049 q 429 1040 410 1049 q 465 1021 448 1031 q 499 1001 483 1010 q 532 990 515 992 q 577 997 552 987 q 622 1044 602 1007 q 626 1024 625 1035 q 627 1003 627 1014 q 617 948 627 976 q 588 898 606 920 q 544 862 569 876 q 487 847 519 848 q 453 854 472 847 q 412 870 433 861 q 370 885 391 878 q 329 892 348 892 q 293 883 309 892 q 265 847 277 874 l 264 850 m 161 16 q 109 63 137 31 q 59 137 82 94 q 21 233 36 179 q 7 345 6 286 q 24 445 7 397 q 64 535 41 493 q 113 608 88 576 q 156 659 139 640 q 201 703 174 677 q 259 751 228 728 q 324 791 291 774 q 387 807 358 807 q 439 795 414 808 q 489 752 464 782 q 541 672 514 721 q 600 552 567 623 q 609 507 609 537 q 595 423 609 470 q 564 332 582 376 q 525 250 545 287 q 494 197 506 213 q 468 159 485 183 q 427 108 450 134 q 373 56 403 81 q 310 16 344 31 q 229 -1 272 -1 q 192 3 209 -1 q 161 16 174 7 m 332 375 q 310 367 319 375 q 294 348 300 360 q 285 321 288 336 q 282 292 282 306 q 288 253 282 270 q 304 237 294 237 q 323 250 314 237 q 340 280 332 263 q 352 314 347 297 q 356 337 356 331 q 356 347 356 340 q 353 359 355 353 q 345 370 351 366 q 332 375 340 375 z "},"ö":{"ha":660,"x_min":6,"x_max":654,"o":"m 299 817 q 237 850 258 817 q 216 925 216 883 q 223 972 216 949 q 238 1004 228 987 q 262 1036 248 1021 q 295 1061 275 1051 q 337 1073 314 1071 q 371 1067 355 1074 q 398 1046 387 1059 q 416 1016 410 1034 q 422 980 422 999 q 414 926 422 955 q 391 873 406 897 q 352 833 375 848 q 299 817 329 817 m 530 809 q 469 842 490 809 q 448 917 448 875 q 455 964 448 941 q 469 996 459 979 q 493 1028 479 1013 q 526 1053 507 1043 q 568 1065 545 1063 q 602 1058 587 1066 q 630 1038 618 1051 q 648 1008 641 1025 q 654 972 654 991 q 646 918 654 947 q 622 865 638 889 q 583 825 606 840 q 530 809 560 809 m 161 16 q 109 63 137 31 q 59 137 82 94 q 21 233 36 179 q 7 345 6 286 q 24 445 7 397 q 64 535 41 493 q 113 608 88 576 q 156 659 139 640 q 201 703 174 677 q 259 751 228 728 q 324 791 291 774 q 387 807 358 807 q 439 795 414 808 q 489 752 464 782 q 541 672 514 721 q 600 552 567 623 q 609 507 609 537 q 595 423 609 470 q 564 332 582 376 q 525 250 545 287 q 494 197 506 213 q 468 159 485 183 q 427 108 450 134 q 373 56 403 81 q 310 16 344 31 q 229 -1 272 -1 q 192 3 209 -1 q 161 16 174 7 m 332 375 q 310 367 319 375 q 294 348 300 360 q 285 321 288 336 q 282 292 282 306 q 288 253 282 270 q 304 237 294 237 q 323 250 314 237 q 340 280 332 263 q 352 314 347 297 q 356 337 356 331 q 356 347 356 340 q 353 359 355 353 q 345 370 351 366 q 332 375 340 375 z "},"÷":{"ha":373,"x_min":5,"x_max":367,"o":"m 133 41 q 72 73 93 41 q 51 148 51 106 q 58 196 51 172 q 72 227 63 211 q 96 259 82 244 q 129 284 110 274 q 171 296 148 294 q 205 290 190 297 q 233 270 221 282 q 251 240 244 257 q 257 204 257 222 q 249 149 257 178 q 225 96 241 120 q 186 56 209 72 q 133 41 163 41 m 168 535 q 106 568 127 535 q 86 642 86 601 q 93 690 86 667 q 107 722 97 705 q 131 753 117 738 q 164 778 145 769 q 206 791 183 788 q 240 784 225 792 q 267 764 256 777 q 285 734 279 751 q 292 698 292 716 q 284 644 292 672 q 260 590 275 615 q 221 550 244 566 q 168 535 198 535 m 7 487 q 10 501 7 495 q 25 506 13 506 q 101 508 63 507 q 179 508 140 508 q 258 507 219 508 q 338 501 297 506 q 357 496 351 501 q 363 476 363 491 q 365 432 363 454 q 367 389 367 411 q 367 370 367 380 q 365 352 367 361 q 357 333 361 338 q 337 325 353 329 q 277 318 315 321 q 196 314 238 315 q 113 313 154 313 q 46 312 73 313 q 12 311 20 311 q 29 309 5 310 q 13 313 16 310 q 8 326 9 316 q 6 352 6 338 q 6 382 6 366 q 7 440 6 412 q 7 487 8 469 z "},"ø":{"ha":712,"x_min":1,"x_max":707,"o":"m 112 536 q 131 576 122 557 q 149 612 140 595 q 84 719 119 664 q 12 837 50 774 q 9 865 1 855 q 29 873 16 874 q 46 874 35 873 q 84 876 58 876 q 170 871 115 876 q 316 848 225 866 q 335 825 329 846 q 345 788 341 804 q 403 766 373 782 q 463 727 434 749 q 516 682 492 705 q 556 642 539 660 q 598 592 573 624 q 648 519 624 560 q 688 429 671 477 q 705 329 705 381 q 684 191 707 255 q 628 81 661 127 q 658 11 640 54 q 705 -104 676 -32 q 696 -112 707 -110 q 677 -116 684 -115 q 657 -109 679 -115 q 602 -95 634 -103 q 538 -79 571 -87 q 486 -64 505 -71 q 467 -52 473 -58 q 456 -34 461 -45 l 447 -8 l 433 -2 q 365 38 399 13 q 301 90 331 63 q 249 142 271 117 q 218 181 227 167 q 186 234 206 197 q 148 315 167 271 q 116 407 130 360 q 103 491 103 454 q 112 536 103 521 m 380 359 q 366 354 370 359 q 359 343 361 350 q 356 330 356 337 q 355 321 355 324 q 360 298 355 315 q 372 264 365 281 q 389 234 380 247 q 407 221 398 221 q 424 237 418 221 q 429 275 429 253 q 427 304 429 289 q 417 332 424 319 q 402 351 411 344 q 380 359 392 359 z "},"ù":{"ha":727,"x_min":6,"x_max":721,"o":"m 517 863 l 479 823 q 457 818 463 817 q 447 822 451 819 q 328 917 383 861 q 225 1036 273 972 q 220 1050 214 1042 q 233 1065 226 1059 q 266 1096 242 1074 q 344 1164 291 1118 q 349 1168 345 1166 q 358 1173 353 1171 q 369 1172 363 1175 q 380 1160 375 1170 l 527 887 l 517 863 m 289 777 q 307 783 299 780 q 322 786 316 786 q 333 782 329 786 q 337 766 337 778 q 335 672 336 719 q 334 579 334 625 q 339 380 334 471 q 353 235 343 289 q 369 224 359 229 q 396 229 380 219 q 390 407 396 318 q 384 588 384 497 q 388 692 384 640 q 392 719 387 708 q 413 731 397 729 l 698 807 q 719 800 718 809 q 720 786 721 792 q 703 663 712 730 q 685 522 693 595 q 672 374 677 449 q 667 229 667 299 q 668 164 667 196 q 672 104 670 133 q 670 83 674 89 q 649 74 667 76 q 604 64 630 71 q 550 50 578 58 q 498 33 523 42 q 456 17 473 24 q 435 14 442 9 q 425 30 428 20 q 421 50 422 39 q 419 68 420 60 q 405 57 414 65 q 384 40 396 50 q 359 21 372 30 q 336 6 346 12 q 312 3 322 0 q 288 10 302 6 q 170 59 211 42 q 110 93 130 76 q 96 123 102 109 q 84 157 90 138 q 72 203 79 176 q 56 270 65 229 q 8 634 15 451 q 8 660 6 649 q 29 679 10 670 l 289 777 z "},"ú":{"ha":727,"x_min":6,"x_max":721,"o":"m 449 1161 q 510 1079 487 1110 q 544 1031 532 1049 q 559 1008 556 1014 q 565 1000 563 1001 q 554 972 569 986 q 510 928 531 950 q 466 887 488 906 q 419 852 443 868 q 367 825 395 836 q 362 822 367 823 q 351 826 358 821 q 329 853 341 836 q 310 883 316 870 q 306 896 304 894 q 313 910 308 899 q 356 997 337 954 q 391 1075 376 1041 q 416 1134 406 1110 q 427 1164 425 1159 q 449 1161 438 1177 m 289 777 q 307 783 299 780 q 322 786 316 786 q 333 782 329 786 q 337 766 337 778 q 335 672 336 719 q 334 579 334 625 q 339 380 334 471 q 353 235 343 289 q 369 224 359 229 q 396 229 380 219 q 390 407 396 318 q 384 588 384 497 q 388 692 384 640 q 392 719 387 708 q 413 731 397 729 l 698 807 q 719 800 718 809 q 720 786 721 792 q 703 663 712 730 q 685 522 693 595 q 672 374 677 449 q 667 229 667 299 q 668 164 667 196 q 672 104 670 133 q 670 83 674 89 q 649 74 667 76 q 604 64 630 71 q 550 50 578 58 q 498 33 523 42 q 456 17 473 24 q 435 14 442 9 q 425 30 428 20 q 421 50 422 39 q 419 68 420 60 q 405 57 414 65 q 384 40 396 50 q 359 21 372 30 q 336 6 346 12 q 312 3 322 0 q 288 10 302 6 q 170 59 211 42 q 110 93 130 76 q 96 123 102 109 q 84 157 90 138 q 72 203 79 176 q 56 270 65 229 q 8 634 15 451 q 8 660 6 649 q 29 679 10 670 l 289 777 z "},"û":{"ha":727,"x_min":6,"x_max":721,"o":"m 135 946 q 220 1031 181 998 q 291 1084 260 1065 q 341 1113 322 1104 q 367 1125 361 1122 q 427 1091 398 1111 q 483 1046 456 1071 q 537 995 510 1022 q 590 942 564 969 q 599 925 596 935 q 593 907 602 914 q 588 903 591 906 q 575 891 584 899 q 546 867 565 883 q 497 826 528 852 q 490 825 492 826 q 481 826 487 824 q 419 902 442 874 q 383 946 396 931 q 363 968 369 962 q 352 978 358 975 q 315 947 339 976 q 240 856 292 918 q 234 853 237 854 q 219 858 230 852 l 138 926 q 134 936 135 929 q 135 946 133 942 m 289 777 q 307 783 299 780 q 322 786 316 786 q 333 782 329 786 q 337 766 337 778 q 335 672 336 719 q 334 579 334 625 q 339 380 334 471 q 353 235 343 289 q 369 224 359 229 q 396 229 380 219 q 390 407 396 318 q 384 588 384 497 q 388 692 384 640 q 392 719 387 708 q 413 731 397 729 l 698 807 q 719 800 718 809 q 720 786 721 792 q 703 663 712 730 q 685 522 693 595 q 672 374 677 449 q 667 229 667 299 q 668 164 667 196 q 672 104 670 133 q 670 83 674 89 q 649 74 667 76 q 604 64 630 71 q 550 50 578 58 q 498 33 523 42 q 456 17 473 24 q 435 14 442 9 q 425 30 428 20 q 421 50 422 39 q 419 68 420 60 q 405 57 414 65 q 384 40 396 50 q 359 21 372 30 q 336 6 346 12 q 312 3 322 0 q 288 10 302 6 q 170 59 211 42 q 110 93 130 76 q 96 123 102 109 q 84 157 90 138 q 72 203 79 176 q 56 270 65 229 q 8 634 15 451 q 8 660 6 649 q 29 679 10 670 l 289 777 z "},"ü":{"ha":727,"x_min":6,"x_max":721,"o":"m 238 821 q 177 854 198 821 q 156 928 156 887 q 163 976 156 953 q 178 1008 168 991 q 201 1039 188 1024 q 234 1064 215 1054 q 277 1076 253 1074 q 311 1070 295 1078 q 338 1050 326 1063 q 356 1020 350 1037 q 362 984 362 1002 q 354 929 362 958 q 330 876 346 900 q 292 836 315 852 q 238 821 269 821 m 470 813 q 409 845 429 813 q 388 920 388 878 q 395 968 388 944 q 409 999 399 983 q 433 1031 419 1016 q 466 1056 447 1046 q 508 1068 485 1066 q 542 1062 527 1069 q 569 1042 558 1054 q 587 1012 581 1029 q 594 976 594 994 q 586 921 594 950 q 562 868 578 892 q 523 828 546 844 q 470 813 500 813 m 289 777 q 307 783 299 780 q 322 786 316 786 q 333 782 329 786 q 337 766 337 778 q 335 672 336 719 q 334 579 334 625 q 339 380 334 471 q 353 235 343 289 q 369 224 359 229 q 396 229 380 219 q 390 407 396 318 q 384 588 384 497 q 388 692 384 640 q 392 719 387 708 q 413 731 397 729 l 698 807 q 719 800 718 809 q 720 786 721 792 q 703 663 712 730 q 685 522 693 595 q 672 374 677 449 q 667 229 667 299 q 668 164 667 196 q 672 104 670 133 q 670 83 674 89 q 649 74 667 76 q 604 64 630 71 q 550 50 578 58 q 498 33 523 42 q 456 17 473 24 q 435 14 442 9 q 425 30 428 20 q 421 50 422 39 q 419 68 420 60 q 405 57 414 65 q 384 40 396 50 q 359 21 372 30 q 336 6 346 12 q 312 3 322 0 q 288 10 302 6 q 170 59 211 42 q 110 93 130 76 q 96 123 102 109 q 84 157 90 138 q 72 203 79 176 q 56 270 65 229 q 8 634 15 451 q 8 660 6 649 q 29 679 10 670 l 289 777 z "}}}
